<svg xmlns="http://www.w3.org/2000/svg" viewBox="0 0 70.44 44.32"><defs><style>.cls-1,.cls-7{fill:#fff;}.cls-2{fill:#bbf9f6;}.cls-10,.cls-3,.cls-4,.cls-6,.cls-8,.cls-9{fill:none;}.cls-3,.cls-4,.cls-6,.cls-7{stroke:#1c3157;}.cls-3,.cls-6,.cls-7,.cls-8{stroke-miterlimit:10;}.cls-10,.cls-4,.cls-9{stroke-linecap:round;stroke-linejoin:round;}.cls-5{fill:#29b2b8;}.cls-6{stroke-width:0.59px;}.cls-7{stroke-width:0.29px;}.cls-10,.cls-8,.cls-9{stroke:#cd1318;}.cls-10,.cls-9{stroke-width:0.5px;}.cls-10{stroke-dasharray:1.96 1.96;}.cls-11{font-size:4.56px;fill:#cd1318;font-family:Roboto-Bold, Roboto;font-weight:700;}</style></defs><g id="Layer_2" data-name="Layer 2"><g id="Layer_2-2" data-name="Layer 2"><rect class="cls-1" width="70.44" height="43.82"/><rect class="cls-2" y="36.13" width="61.56" height="3.84"/><line class="cls-3" x1="70.44" y1="43.82" y2="43.82"/><polyline class="cls-3" points="0 36.13 61.56 36.13 61.56 43.81 0 43.81"/><rect class="cls-4" x="6.28" y="36.13" width="20.38" height="7.68"/><rect class="cls-4" x="6.28" y="39.97" width="20.38" height="3.84"/><rect class="cls-5" x="9.9" y="2.27" width="13.64" height="16.93"/><polygon class="cls-2" points="23.54 2.27 23.54 3.98 11.82 3.98 11.82 19.2 9.9 19.2 9.9 2.27 23.54 2.27"/><rect class="cls-4" x="9.9" y="2.27" width="13.64" height="33.86"/><line class="cls-4" x1="16.72" y1="2.27" x2="16.72" y2="18.84"/><line class="cls-4" x1="10.16" y1="19.2" x2="23.2" y2="19.2"/><line class="cls-4" x1="10.16" y1="10.79" x2="23.2" y2="10.79"/><circle class="cls-5" cx="46.21" cy="9.22" r="2.71"/><circle class="cls-6" cx="46.21" cy="9.22" r="2.71"/><circle class="cls-7" cx="46.21" cy="9.22" r="1.74"/><circle class="cls-7" cx="46.21" cy="9.22" r="1.23"/><line class="cls-8" x1="41.59" y1="12.69" x2="50.8" y2="12.69"/><line class="cls-8" x1="41.59" y1="36.13" x2="50.8" y2="36.13"/><line class="cls-9" x1="46.19" y1="12.69" x2="46.19" y2="13.61"/><line class="cls-10" x1="46.19" y1="15.58" x2="46.19" y2="34.23"/><line class="cls-9" x1="46.19" y1="35.21" x2="46.19" y2="36.13"/><text class="cls-11" transform="translate(48.47 18.84)">2m</text></g></g></svg>