<svg xmlns="http://www.w3.org/2000/svg" viewBox="0 0 71.26 44.83"><defs><style>.cls-1,.cls-5{fill:#fff;}.cls-2{fill:#bbf9f6;}.cls-3{fill:#29b2b8;}.cls-10,.cls-4,.cls-6,.cls-7,.cls-8,.cls-9{fill:none;}.cls-4,.cls-5,.cls-6,.cls-7{stroke:#1c3157;}.cls-4,.cls-5,.cls-6,.cls-8{stroke-miterlimit:10;}.cls-4{stroke-width:0.59px;}.cls-5{stroke-width:0.29px;}.cls-10,.cls-7,.cls-9{stroke-linecap:round;stroke-linejoin:round;}.cls-10,.cls-8,.cls-9{stroke:#cd1318;}.cls-10,.cls-9{stroke-width:0.5px;}.cls-10{stroke-dasharray:1.99 1.99;}.cls-11{font-size:4.62px;fill:#cd1318;font-family:Roboto-Bold, Roboto;font-weight:700;}</style></defs><g id="Layer_2" data-name="Layer 2"><g id="Layer_2-2" data-name="Layer 2"><rect class="cls-1" width="71.26" height="44.33"/><rect class="cls-2" y="36.55" width="62.28" height="3.89"/><circle class="cls-3" cx="46.73" cy="28.52" r="2.71"/><circle class="cls-4" cx="46.73" cy="28.52" r="2.71"/><circle class="cls-5" cx="46.73" cy="28.52" r="1.74"/><circle class="cls-5" cx="46.73" cy="28.52" r="1.23"/><line class="cls-6" x1="71.26" y1="44.33" y2="44.33"/><polyline class="cls-6" points="0 36.55 62.28 36.55 62.28 44.33 0 44.33"/><rect class="cls-7" x="6.36" y="36.55" width="20.62" height="7.77"/><rect class="cls-7" x="6.36" y="40.44" width="20.62" height="3.89"/><rect class="cls-3" x="10.01" y="2.3" width="13.8" height="17.13"/><polygon class="cls-2" points="23.68 2.12 23.68 3.84 11.82 3.84 11.82 19.24 9.88 19.24 9.88 2.12 23.68 2.12"/><rect class="cls-7" x="10.01" y="2.3" width="13.8" height="34.25"/><line class="cls-7" x1="16.91" y1="2.3" x2="16.91" y2="19.06"/><line class="cls-7" x1="10.28" y1="19.43" x2="23.47" y2="19.43"/><line class="cls-7" x1="10.28" y1="10.92" x2="23.47" y2="10.92"/><line class="cls-8" x1="42.07" y1="12.84" x2="51.39" y2="12.84"/><line class="cls-8" x1="42.07" y1="36.55" x2="51.39" y2="36.55"/><line class="cls-9" x1="46.73" y1="12.84" x2="46.73" y2="13.76"/><line class="cls-10" x1="46.73" y1="15.75" x2="46.73" y2="34.63"/><line class="cls-9" x1="46.73" y1="35.63" x2="46.73" y2="36.55"/><text class="cls-11" transform="translate(49.04 19.43)">2m</text></g></g></svg>