<svg xmlns="http://www.w3.org/2000/svg" viewBox="0 0 69.89 63.02"><defs><style>.cls-1{fill:#fff;}.cls-2{fill:#bbf9f6;}.cls-3{fill:#29b2b8;}.cls-4,.cls-5,.cls-6{fill:none;}.cls-4{stroke:#29b2b8;stroke-miterlimit:10;stroke-width:0.6px;}.cls-5,.cls-6{stroke:#1c3157;stroke-linecap:round;stroke-linejoin:round;}.cls-6{stroke-width:0.7px;}</style></defs><g id="Layer_2" data-name="Layer 2"><g id="Layer_2-2" data-name="Layer 2"><polygon class="cls-1" points="69.54 0 69.54 62.52 6.78 62.52 6.78 34.34 0.5 37.86 0.5 35.55 53.15 4.92 53.15 0 69.54 0"/><polygon class="cls-2" points="69.54 0 69.54 11.51 53.15 11.51 10.51 36.64 10.51 62.52 6.78 62.52 6.78 34.34 0.5 37.86 0.5 35.55 53.15 4.92 53.15 0 69.54 0"/><polygon class="cls-3" points="53.15 4.92 53.15 7.23 0.5 37.86 0.5 35.55 53.15 4.92"/><path class="cls-1" d="M31.66,12.35v5.07l-3,1.74-1.24.72V12.35a.74.74,0,0,1,.74-.74h0V7.18a1.36,1.36,0,1,1,2.71,0v4.43A.74.74,0,0,1,31.66,12.35Z"/><path class="cls-2" d="M31.66,12.35V13h-3v6.12l-1.24.72V12.35a.74.74,0,0,1,.74-.74h0V8.93h2.71V10H29v1.62h1.89A.74.74,0,0,1,31.66,12.35Z"/><path class="cls-4" d="M31.66,12.35v5.07l-4.22,2.46V12.35a.74.74,0,0,1,.74-.74h2.74A.74.74,0,0,1,31.66,12.35Z"/><rect class="cls-4" x="28.21" y="9.03" width="2.71" height="2.58"/><path class="cls-4" d="M30.92,7.18H28.21a1.36,1.36,0,1,1,2.71,0Z"/><line class="cls-4" x1="28.21" y1="9.03" x2="28.21" y2="7.18"/><line class="cls-4" x1="29.57" y1="7.18" x2="29.57" y2="9.03"/><line class="cls-4" x1="30.92" y1="9.03" x2="30.92" y2="7.18"/><line class="cls-5" x1="6.78" y1="62.52" x2="6.78" y2="34.34"/><polygon class="cls-5" points="53.15 4.92 53.15 7.23 33.59 18.61 26.56 22.7 25.18 23.5 0.5 37.86 0.5 35.55 26.56 20.39 33.59 16.3 53.15 4.92"/><rect class="cls-3" x="36.3" y="26.09" width="15.21" height="19.37"/><path class="cls-2" d="M51.51,26.09V28.2H38.29V45.46h-2V26.09Z"/><line class="cls-6" x1="34.27" y1="45.46" x2="53.15" y2="45.46"/><rect class="cls-6" x="36.3" y="26.09" width="14.82" height="19.37"/><line class="cls-6" x1="43.71" y1="26.09" x2="43.71" y2="45.46"/><line class="cls-6" x1="36.3" y1="35.77" x2="51.12" y2="35.77"/><rect class="cls-3" x="62.13" y="26.09" width="7.41" height="19.37"/><path class="cls-2" d="M69.54,26.09v2.1H64V45.45h-2V26.09Z"/><polyline class="cls-6" points="60.1 45.46 62.13 45.46 69.54 45.46"/><rect class="cls-6" x="62.13" y="26.09" width="7.41" height="19.37"/><polyline class="cls-6" points="69.54 26.09 69.54 35.77 69.54 45.46"/><line class="cls-6" x1="69.54" y1="35.77" x2="62.13" y2="35.77"/></g></g></svg>