<svg xmlns="http://www.w3.org/2000/svg" viewBox="0 0 71.05 52.15"><defs><style>.cls-1{fill:#fff;}.cls-2{fill:#bbf9f6;}.cls-3,.cls-4,.cls-5,.cls-7{fill:none;}.cls-3{stroke:#29b2b8;stroke-miterlimit:10;}.cls-3,.cls-4{stroke-width:0.67px;}.cls-4,.cls-5,.cls-7{stroke:#1c3157;stroke-linecap:round;stroke-linejoin:round;}.cls-6{fill:#29b2b8;}.cls-7{stroke-width:0.7px;}</style></defs><g id="Layer_2" data-name="Layer 2"><g id="Layer_2-2" data-name="Layer 2"><path class="cls-1" d="M31.26,16.59v.68H18.94v-.68h3.79V7.64a.83.83,0,0,1,.83-.83h0v-5a1.52,1.52,0,0,1,3,0v5a.83.83,0,0,1,.82.83v9Z"/><path class="cls-2" d="M27.45,7.64v.68H24.09v9.42h-4.7V16.59h3.34V7.64a.83.83,0,0,1,.83-.83h0V4h3v.68H24.72V6.81h1.91A.83.83,0,0,1,27.45,7.64Z"/><path class="cls-3" d="M27.45,7.64v9H22.73V7.64a.83.83,0,0,1,.83-.83h3.07A.83.83,0,0,1,27.45,7.64Z"/><polyline class="cls-4" points="28.86 16.59 27.45 16.59 22.73 16.59 21.32 16.59"/><rect class="cls-3" x="23.59" y="3.92" width="3.04" height="2.89"/><path class="cls-3" d="M26.63,1.85h-3a1.52,1.52,0,0,1,3,0Z"/><line class="cls-3" x1="23.59" y1="3.92" x2="23.59" y2="1.85"/><line class="cls-3" x1="25.11" y1="1.85" x2="25.11" y2="3.93"/><line class="cls-3" x1="26.63" y1="3.92" x2="26.63" y2="1.85"/><polygon class="cls-1" points="70.55 15.63 70.55 24.2 66.66 24.2 66.66 51.66 4.39 51.66 4.39 24.2 0.5 24.2 0.5 15.63 70.55 15.63"/><polygon class="cls-2" points="66.66 24.2 66.66 27.91 8.89 27.91 8.89 51.66 4.39 51.66 4.39 24.2 66.66 24.2"/><path class="cls-2" d="M70.55,15.63v2.42H4.39v6.14H.5V15.63Z"/><rect class="cls-5" x="0.5" y="16.02" width="70.05" height="8.17"/><line class="cls-5" x1="4.39" y1="24.2" x2="4.39" y2="51.65"/><line class="cls-5" x1="66.66" y1="24.2" x2="66.66" y2="51.65"/><rect class="cls-5" x="0.5" y="16.02" width="70.05" height="2.03"/><rect class="cls-6" x="14.41" y="29.65" width="15.21" height="19.37"/><path class="cls-2" d="M29.61,29.64v2.11H16.39V49h-2V29.64Z"/><line class="cls-7" x1="12.37" y1="49.01" x2="31.26" y2="49.01"/><rect class="cls-7" x="14.41" y="29.65" width="14.82" height="19.37"/><line class="cls-7" x1="21.81" y1="29.65" x2="21.81" y2="49.01"/><line class="cls-7" x1="14.41" y1="39.33" x2="29.22" y2="39.33"/><rect class="cls-6" x="41.83" y="29.65" width="15.21" height="19.37"/><path class="cls-2" d="M57,29.64v2.11H43.82V49h-2V29.64Z"/><line class="cls-7" x1="39.8" y1="49.01" x2="58.68" y2="49.01"/><rect class="cls-7" x="41.83" y="29.65" width="14.82" height="19.37"/><line class="cls-7" x1="49.24" y1="29.65" x2="49.24" y2="49.01"/><line class="cls-7" x1="41.83" y1="39.33" x2="56.65" y2="39.33"/></g></g></svg>