<svg xmlns="http://www.w3.org/2000/svg" viewBox="0 0 24.25 47.48"><defs><style>.cls-1{fill:#fff;}.cls-2{fill:#bbf9f6;}.cls-3,.cls-5,.cls-6{fill:none;stroke-miterlimit:10;}.cls-3{stroke:#cd1318;}.cls-4{fill:#1c3157;}.cls-5,.cls-6{stroke:#29b2b8;}.cls-6{stroke-width:0.77px;}.cls-7{fill:#cd1318;}.cls-8{fill:#29b2b8;}</style></defs><g id="Layer_2" data-name="Layer 2"><g id="Layer_2-2" data-name="Layer 2"><path class="cls-1" d="M23.75,10.26V37.51a3,3,0,0,1-3,3H16.43V46.7H7.3V40.49H3.48a3,3,0,0,1-3-3V10.26a3,3,0,0,1,3-3H9.62V5.15a4.74,4.74,0,0,1,1.5-3.46H20V4.22H14.4a.94.94,0,0,0-.94.93V7.27h7.31A3,3,0,0,1,23.75,10.26Z"/><path class="cls-2" d="M3.94,7.27V40.49H3.48a3,3,0,0,1-3-3V10.26a3,3,0,0,1,3-3Z"/><path class="cls-1" d="M20,.38V4.22H14.4a.94.94,0,0,0-.94.93V7.27H9.62V5.15a4.74,4.74,0,0,1,1.5-3.46A4.7,4.7,0,0,1,14.4.38Z"/><rect class="cls-1" x="13.43" y="40.49" width="3" height="6.99"/><rect class="cls-1" x="7.42" y="40.49" width="3" height="6.99"/><rect class="cls-2" x="7.3" y="40.49" width="1.62" height="6.99"/><rect class="cls-2" x="13.43" y="40.49" width="1.62" height="6.99"/><path class="cls-2" d="M20,.38V2H14.49A3.35,3.35,0,0,0,11.14,5.3v2H9.62V5.15a4.74,4.74,0,0,1,1.5-3.46A4.7,4.7,0,0,1,14.4.38Z"/><line class="cls-3" x1="0.5" y1="29.76" x2="23.75" y2="29.76"/><path class="cls-4" d="M23.75,31.66v5.85a3,3,0,0,1-3,3H3.48a3,3,0,0,1-3-3V31.66Z"/><path class="cls-5" d="M23.75,10.26V37.51a3,3,0,0,1-3,3H3.48a3,3,0,0,1-3-3V10.26a3,3,0,0,1,3-3H20.77A3,3,0,0,1,23.75,10.26Z"/><path class="cls-6" d="M20,4.22H14.4a.94.94,0,0,0-.94.93V7.27H9.62V5.15a4.74,4.74,0,0,1,1.5-3.46A4.7,4.7,0,0,1,14.4.38H20"/><polyline class="cls-5" points="7.42 47.48 7.42 40.49 10.42 40.49 10.42 47.48"/><polyline class="cls-5" points="16.43 47.48 16.43 46.7 16.43 40.49 15.05 40.49 13.43 40.49 13.43 46.7 13.43 47.48"/><circle class="cls-1" cx="19.59" cy="35.69" r="1.73"/><rect class="cls-7" x="3.94" y="34.44" width="1.26" height="1.26" rx="0.63"/><rect class="cls-8" x="5.74" y="34.44" width="1.26" height="1.26" rx="0.63"/><path class="cls-8" d="M10,15.54c3.33,0,5.33,4.14,5.44,7.43a3.53,3.53,0,0,0,.33-1.49,3.6,3.6,0,0,0-.48-1.79A4.31,4.31,0,0,1,12.12,27h-.27A4.31,4.31,0,0,1,9,19.68a3.53,3.53,0,0,0-.48,1.8,3.82,3.82,0,0,0,.11.9c.77-2.37,4-4.12,1.17-6.83H10M9,19.68H9m.93-4.6H9.78a.47.47,0,0,0-.41.29.49.49,0,0,0,.11.5c1.69,1.64.94,2.73-.09,4.24l-.22.32a3.06,3.06,0,0,1,.22-.49.45.45,0,0,0,.08-.26A.46.46,0,0,0,9,19.22H9a.37.37,0,0,0-.21.06h0l-.1.08a4.77,4.77,0,0,0,3.15,8.06h.29a4.77,4.77,0,0,0,3.45-8.06.43.43,0,0,0-.33-.14.41.41,0,0,0-.19,0c-1-2.35-2.77-4.19-5.1-4.19Z"/><path class="cls-2" d="M16.43,22.66A4.3,4.3,0,0,1,12.12,27h-.27A4.31,4.31,0,0,1,9,19.68a3.53,3.53,0,0,0-.48,1.8,3.82,3.82,0,0,0,.11.9c.77-2.37,4-4.12,1.17-6.83h0c3.42-.12,5.48,4.1,5.59,7.43a3.53,3.53,0,0,0,.33-1.49,3.6,3.6,0,0,0-.48-1.79A4.32,4.32,0,0,1,16.43,22.66Z"/><path class="cls-2" d="M16.43,22.66A4.3,4.3,0,0,1,12.12,27h-.27A4.31,4.31,0,0,1,9,19.68a3.53,3.53,0,0,0-.48,1.8,3.82,3.82,0,0,0,.11.9c.77-2.37,4-4.12,1.17-6.83h0c3.42-.12,5.48,4.1,5.59,7.43a3.53,3.53,0,0,0,.33-1.49,3.6,3.6,0,0,0-.48-1.79A4.32,4.32,0,0,1,16.43,22.66Z"/><path class="cls-1" d="M12.12,26.51h-.24a3.84,3.84,0,0,1-3.6-3.69L8.59,24l.49-1.52a7.75,7.75,0,0,1,1.06-1.89c.9-1.3,1.89-2.75.76-4.5,2.51.73,3.94,4.24,4,6.85l0,1.08c.06-.13,1-1.17,1-1.31A3.86,3.86,0,0,1,12.12,26.51Z"/><path class="cls-4" d="M13.91,22.78a2,2,0,0,1,.28,1,2,2,0,0,1-.19.86,6,6,0,0,0-2.21-4.5c.33,1.93-1.23,2.79-1.67,4.16a2.25,2.25,0,0,1-.07-.52,2,2,0,0,1,.28-1,2.43,2.43,0,0,0-.69,1.71,2.48,2.48,0,0,0,5,0A2.45,2.45,0,0,0,13.91,22.78Z"/></g></g></svg>