<svg xmlns="http://www.w3.org/2000/svg" viewBox="0 0 32.18 55.39"><defs><style>.cls-1{fill:#fff;}.cls-2{fill:#bbf9f6;}.cls-3{fill:#1c3157;}.cls-4{fill:#cd1318;}.cls-5,.cls-6{fill:none;stroke:#29b2b8;}.cls-5{stroke-linecap:round;stroke-linejoin:round;}.cls-6{stroke-miterlimit:10;}.cls-7{fill:#29b2b8;}</style></defs><g id="Layer_2" data-name="Layer 2"><g id="Layer_2-2" data-name="Layer 2"><path class="cls-1" d="M31.68,18.56v33.8a2.53,2.53,0,0,1-2.53,2.53H6.47a1.16,1.16,0,0,1-1.16-1.16V21.35A1.45,1.45,0,0,1,6.76,19.9h8.18v-5h5.18V1.73H26.5V14.88H28A3.67,3.67,0,0,1,31.68,18.56Z"/><rect class="cls-2" x="20.12" width="3.18" height="14.88"/><path class="cls-2" d="M31.68,27.36v2h-8.6a2.43,2.43,0,0,0-2.43,2.43V47.38h-2v-20Z"/><path class="cls-2" d="M31.67,52.51a2.52,2.52,0,0,1-2.52,2.38H14.94v-40H28a3.68,3.68,0,0,1,3.51,2.58H20.24a2.71,2.71,0,0,0-2.71,2.72V50.61a1.9,1.9,0,0,0,1.9,1.9Z"/><path class="cls-2" d="M14.94,19.9v35H13V24.53a2.38,2.38,0,0,0-2.38-2.38H5.31v-.8A1.45,1.45,0,0,1,6.76,19.9Z"/><circle class="cls-3" cx="9.68" cy="25.33" r="0.95"/><circle class="cls-3" cx="9.68" cy="27.5" r="0.95"/><rect class="cls-4" x="18.63" y="44.79" width="13.05" height="2.85"/><line class="cls-5" x1="8.45" y1="47.07" x2="8.45" y2="40.13"/><line class="cls-5" x1="10.12" y1="47.07" x2="10.12" y2="40.13"/><line class="cls-5" x1="11.79" y1="47.07" x2="11.79" y2="40.13"/><path class="cls-6" d="M31.68,18.56v33.8a.76.76,0,0,1,0,.15,2.52,2.52,0,0,1-2.52,2.38H14.94v-40H28a3.68,3.68,0,0,1,3.51,2.58A4,4,0,0,1,31.68,18.56Z"/><rect class="cls-6" x="18.63" y="27.36" width="13.05" height="20.02"/><polyline class="cls-6" points="20.12 0 20.12 1.73 20.12 3.63 20.12 5.53 20.12 7.44 20.12 9.34 20.12 11.25 20.12 13.15 20.12 14.88 26.5 14.88 26.5 13.15 26.5 11.25 26.5 9.34 26.5 7.44 26.5 5.53 26.5 3.63 26.5 1.73 26.5 0"/><line class="cls-6" x1="26.5" y1="1.73" x2="20.12" y2="1.73"/><line class="cls-6" x1="20.12" y1="3.63" x2="26.49" y2="3.63"/><line class="cls-6" x1="20.12" y1="5.53" x2="26.49" y2="5.53"/><line class="cls-6" x1="20.12" y1="7.44" x2="26.49" y2="7.44"/><line class="cls-6" x1="20.12" y1="9.34" x2="26.49" y2="9.34"/><line class="cls-6" x1="20.12" y1="11.25" x2="26.49" y2="11.25"/><line class="cls-6" x1="20.12" y1="13.15" x2="26.49" y2="13.15"/><path class="cls-6" d="M14.94,19.9v35H6.47a1.16,1.16,0,0,1-1.16-1.16V21.35A1.45,1.45,0,0,1,6.76,19.9Z"/><rect class="cls-3" x="7.25" y="46.56" width="5.74" height="6.35" rx="0.71"/><rect class="cls-6" x="7.25" y="46.56" width="5.74" height="6.35" rx="0.71"/><path class="cls-5" d="M9.68,25.33H3.76a.94.94,0,0,1-.94-.94V15.77"/><path class="cls-5" d="M9.68,27.5H3.4A2.9,2.9,0,0,1,.5,24.6V15.77"/><circle class="cls-1" cx="10.12" cy="49.73" r="0.97"/><line class="cls-5" x1="10.07" y1="49.73" x2="20.65" y2="49.73"/><path class="cls-7" d="M23.36,34.18c2.75,0,4.39,3.42,4.48,6.12a3,3,0,0,0-.12-2.7,3.55,3.55,0,0,1-2.57,6h-.22a3.54,3.54,0,0,1-2.34-6,2.85,2.85,0,0,0-.4,1.48,3.06,3.06,0,0,0,.09.74c.64-2,3.28-3.4,1-5.63h.12m-.77,3.42h0m.77-3.8h-.13a.36.36,0,0,0-.34.24.35.35,0,0,0,.08.4c1.4,1.35.78,2.25-.07,3.5l-.18.26a3.52,3.52,0,0,1,.18-.4.37.37,0,0,0-.31-.59h0a.42.42,0,0,0-.2.05l-.06,0h0l0,0A3.92,3.92,0,0,0,24.91,44h.24A3.93,3.93,0,0,0,28,37.34a.36.36,0,0,0-.27-.12.45.45,0,0,0-.16,0c-.8-1.93-2.28-3.45-4.2-3.45Z"/><path class="cls-2" d="M28.7,40.05a3.55,3.55,0,0,1-3.55,3.55h-.22a3.54,3.54,0,0,1-2.34-6,2.85,2.85,0,0,0-.4,1.48,3.06,3.06,0,0,0,.09.74c.64-2,3.28-3.4,1-5.63h0c2.82-.11,4.51,3.37,4.6,6.11a3,3,0,0,0-.12-2.7A3.58,3.58,0,0,1,28.7,40.05Z"/><path class="cls-2" d="M28.7,40.05a3.55,3.55,0,0,1-3.55,3.55h-.22a3.54,3.54,0,0,1-2.34-6,2.85,2.85,0,0,0-.4,1.48,3.06,3.06,0,0,0,.09.74c.64-2,3.28-3.4,1-5.63h0c2.82-.11,4.51,3.37,4.6,6.11a3,3,0,0,0-.12-2.7A3.58,3.58,0,0,1,28.7,40.05Z"/><path class="cls-1" d="M25.15,43.22H25a3.19,3.19,0,0,1-3-3l.26,1,.4-1.25a6.75,6.75,0,0,1,.88-1.56c.74-1.07,1.56-2.27.62-3.71,2.07.6,3.25,3.49,3.32,5.64l0,.89c.05-.11.8-1,.84-1.08A3.18,3.18,0,0,1,25.15,43.22Z"/><path class="cls-3" d="M26.63,40.15a1.71,1.71,0,0,1,.22.85,1.63,1.63,0,0,1-.15.7A5,5,0,0,0,24.88,38c.27,1.59-1,2.3-1.38,3.42a1.93,1.93,0,0,1-.06-.42,1.75,1.75,0,0,1,.23-.86,2,2,0,1,0,3.52,1.42A2,2,0,0,0,26.63,40.15Z"/></g></g></svg>