<svg xmlns="http://www.w3.org/2000/svg" viewBox="0 0 41.27 47.43"><defs><style>.cls-1{fill:#fff;}.cls-2{fill:#bbf9f6;}.cls-3{fill:#1c3157;}.cls-10,.cls-11,.cls-4,.cls-6,.cls-7,.cls-8,.cls-9{fill:none;}.cls-10,.cls-11,.cls-4,.cls-6,.cls-7,.cls-8{stroke:#29b2b8;}.cls-10,.cls-11,.cls-4,.cls-6,.cls-7,.cls-9{stroke-miterlimit:10;}.cls-4{stroke-width:0.63px;}.cls-5{fill:#29b2b8;}.cls-6{stroke-width:0.48px;}.cls-7,.cls-8{stroke-width:0.65px;}.cls-8{stroke-linecap:round;stroke-linejoin:round;}.cls-9{stroke:#cd1318;}.cls-10,.cls-9{stroke-width:0.68px;}.cls-11{stroke-width:0.52px;}.cls-12{fill:#cd1318;}</style></defs><g id="Layer_2" data-name="Layer 2"><g id="Layer_2-2" data-name="Layer 2"><path class="cls-1" d="M37.15,8.78v2.41H33.61a.59.59,0,0,0-.59.6v1.33H30.6V11.79a3,3,0,0,1,3-3Z"/><path class="cls-2" d="M37.15,8.78v.74H34A2.45,2.45,0,0,0,31.53,12v1.15H30.6V11.79a3,3,0,0,1,3-3Z"/><path class="cls-1" d="M41,16.38V39.76a1,1,0,0,1,0,.18,1.69,1.69,0,0,1,0,.33,2.65,2.65,0,0,1-.06.3,3.17,3.17,0,0,1-.35.85c0,.09-.11.17-.17.26a3.2,3.2,0,0,1-.81.79l-.27.16a3.15,3.15,0,0,1-1,.35,3.81,3.81,0,0,1-.59.05h-11l-.39,0-.13,0-.09,0-.31-.07-.29-.1-.2-.1a.31.31,0,0,1-.13-.06l-.26-.16a3.08,3.08,0,0,1-.82-.79l-.17-.26a2.24,2.24,0,0,1-.13-.27,1.39,1.39,0,0,1-.12-.28c0-.1-.06-.2-.09-.3a2.64,2.64,0,0,1-.07-.3,1.69,1.69,0,0,1,0-.33,1,1,0,0,1,0-.18V16.38a1.09,1.09,0,0,1,0-.18,3.27,3.27,0,0,1,2.84-3.06l.4,0h11a3.24,3.24,0,0,1,3.25,3.08A1.09,1.09,0,0,1,41,16.38Z"/><path class="cls-2" d="M26.27,13.14V43l-.13,0-.09,0-.31-.07-.29-.1-.2-.1a.31.31,0,0,1-.13-.06l-.26-.16a3.08,3.08,0,0,1-.82-.79l-.17-.26a2.24,2.24,0,0,1-.13-.27,1.39,1.39,0,0,1-.12-.28c0-.1-.06-.2-.09-.3a2.64,2.64,0,0,1-.07-.3,1.69,1.69,0,0,1,0-.33,1,1,0,0,1,0-.18V16.38a1.09,1.09,0,0,1,0-.18A3.27,3.27,0,0,1,26.27,13.14Z"/><rect class="cls-1" x="27.91" y="43.03" width="1.32" height="4.4"/><rect class="cls-1" x="35.13" y="43.03" width="1.42" height="4.4"/><rect class="cls-2" x="36.88" y="14.42" width="1.3" height="27.07"/><path class="cls-3" d="M40.94,16.2H23.43a3.26,3.26,0,0,1,3.24-3.08h11A3.24,3.24,0,0,1,40.94,16.2Z"/><path class="cls-3" d="M40.94,39.94a1.69,1.69,0,0,1,0,.33,2.65,2.65,0,0,1-.06.3,3.17,3.17,0,0,1-.35.85c0,.09-.11.17-.17.26a3.2,3.2,0,0,1-.81.79l-.27.16a3.15,3.15,0,0,1-1,.35,3.81,3.81,0,0,1-.59.05h-11a4.38,4.38,0,0,1-.52,0l-.09,0-.31-.07-.29-.1-.2-.1a.31.31,0,0,1-.13-.06l-.26-.16a3.08,3.08,0,0,1-.82-.79l-.17-.26a2.24,2.24,0,0,1-.13-.27,1.39,1.39,0,0,1-.12-.28c0-.1-.06-.2-.09-.3a2.64,2.64,0,0,1-.07-.3,1.69,1.69,0,0,1,0-.33Z"/><path class="cls-4" d="M41,16.38V39.76a1,1,0,0,1,0,.18,1.69,1.69,0,0,1,0,.33,2.65,2.65,0,0,1-.06.3,3.17,3.17,0,0,1-.35.85c0,.09-.11.17-.17.26a3.2,3.2,0,0,1-.81.79l-.27.16a3.15,3.15,0,0,1-1,.35,3.81,3.81,0,0,1-.59.05h-11a3,3,0,0,1-.52,0l-.09,0-.31-.07-.29-.1-.2-.1a.31.31,0,0,1-.13-.06l-.26-.16a3.08,3.08,0,0,1-.82-.79l-.17-.26a2.24,2.24,0,0,1-.13-.27,1.39,1.39,0,0,1-.12-.28c0-.1-.06-.2-.09-.3a2.64,2.64,0,0,1-.07-.3,1.69,1.69,0,0,1,0-.33,1,1,0,0,1,0-.18V16.38a1.09,1.09,0,0,1,0-.18,3.26,3.26,0,0,1,3.24-3.08h11a3.24,3.24,0,0,1,3.25,3.08A1.09,1.09,0,0,1,41,16.38Z"/><circle class="cls-4" cx="31.92" cy="25.74" r="2.33"/><path class="cls-4" d="M33.28,25.74a1.36,1.36,0,1,1-2.71,0"/><path class="cls-5" d="M31.47,25.17a.53.53,0,0,0-.07.26.46.46,0,0,0,.05.21c0-.48.31-1.09.81-1.07-.41.39.06.64.17,1a.59.59,0,0,0,0-.13.53.53,0,0,0-.07-.26.64.64,0,0,1,.17.43.63.63,0,0,1-1.25,0A.64.64,0,0,1,31.47,25.17Z"/><path class="cls-6" d="M37.15,11.19H33.61a.59.59,0,0,0-.59.6v1.33H30.6V11.79a3,3,0,0,1,3-3h3.54"/><polyline class="cls-4" points="29.24 47.42 29.24 43.03 27.9 43.03 27.9 47.42"/><polyline class="cls-4" points="36.47 47.42 36.47 43.03 35.13 43.03 35.13 47.42"/><path class="cls-1" d="M23.42.33V6.85A4.09,4.09,0,0,1,19.33,11H7.4a4.11,4.11,0,0,1-4.1-4.1V5.35a.46.46,0,0,1-.47.47h-1a.48.48,0,0,1-.47-.47V3.51A.47.47,0,0,1,1.8,3h1a.46.46,0,0,1,.47.47V.33Z"/><path class="cls-2" d="M22.47,9.48A4.08,4.08,0,0,1,19.33,11H7.4a4.09,4.09,0,0,1-4.1-4.1V5.35a.46.46,0,0,1-.47.47h-1a.47.47,0,0,1-.47-.47V3.51A.47.47,0,0,1,1.8,3h1a.46.46,0,0,1,.47.47V.33H5.58V6.87A2.61,2.61,0,0,0,8.19,9.48Z"/><path class="cls-3" d="M3.3,3.51V5.35a.46.46,0,0,1-.47.47h-1a.48.48,0,0,1-.47-.47V3.51A.47.47,0,0,1,1.8,3h1A.46.46,0,0,1,3.3,3.51Z"/><path class="cls-7" d="M23.42.33V6.85A4.1,4.1,0,0,1,19.33,11H7.4a4.11,4.11,0,0,1-4.1-4.1V.33Z"/><path class="cls-8" d="M23.42,4.12H24.8a2,2,0,0,1,2,2v5.11"/><path class="cls-8" d="M9.58,11v1.17a1.21,1.21,0,0,0,1.2,1.21H22.92"/><path class="cls-8" d="M4.85,2.93C6.56,2.93,6.56,4,8.27,4S10,2.93,11.7,2.93,13.41,4,15.12,4s1.71-1.06,3.43-1.06S20.26,4,22,4"/><path class="cls-8" d="M4.85,6.41c1.71,0,1.71,1.06,3.42,1.06S10,6.41,11.7,6.41s1.71,1.06,3.42,1.06,1.71-1.06,3.43-1.06S20.26,7.47,22,7.47"/><path class="cls-7" d="M2.32,3V2.29a.78.78,0,0,0-.78-.78H0"/><path class="cls-1" d="M21.3,22.26V40.68a2,2,0,0,1-2,2H16.35v4.19H10.17V42.7H7.6a2,2,0,0,1-2-2V22.26a2,2,0,0,1,2-2h4.15V18.81a3.18,3.18,0,0,1,1-2.33h6v1.71H15a.63.63,0,0,0-.64.62v1.44h4.94A2,2,0,0,1,21.3,22.26Z"/><path class="cls-2" d="M8.33,20.25V42.7H7.6a2,2,0,0,1-2-2V22.26a2,2,0,0,1,2-2Z"/><path class="cls-1" d="M18.77,15.59v2.59H15a.64.64,0,0,0-.64.63v1.44H11.75V18.81A3.22,3.22,0,0,1,15,15.59Z"/><rect class="cls-1" x="14.32" y="42.7" width="2.03" height="4.73"/><rect class="cls-1" x="10.26" y="42.7" width="2.03" height="4.72"/><rect class="cls-2" x="10.18" y="42.7" width="1.1" height="4.73"/><rect class="cls-2" x="14.32" y="42.7" width="1.1" height="4.72"/><path class="cls-2" d="M18.77,15.59v1.06H15a2.27,2.27,0,0,0-2.27,2.26v1.34h-1V18.81A3.22,3.22,0,0,1,15,15.59Z"/><line class="cls-9" x1="5.58" y1="35.44" x2="21.3" y2="35.44"/><path class="cls-3" d="M21.3,36.73v4a2,2,0,0,1-2,2H7.6a2,2,0,0,1-2-2v-4Z"/><path class="cls-10" d="M21.3,22.27V40.69a2,2,0,0,1-2,2H7.6a2,2,0,0,1-2-2V22.27a2,2,0,0,1,2-2H19.28A2,2,0,0,1,21.3,22.27Z"/><path class="cls-11" d="M18.77,18.18H15a.64.64,0,0,0-.64.63v1.44H11.75V18.81A3.22,3.22,0,0,1,15,15.59h3.79"/><polyline class="cls-10" points="10.26 47.42 10.26 42.7 12.29 42.7 12.29 47.42"/><polyline class="cls-10" points="16.35 47.43 16.35 46.9 16.35 42.7 15.42 42.7 14.32 42.7 14.32 46.9 14.32 47.43"/><circle class="cls-1" cx="18.48" cy="39.46" r="1.17"/><rect class="cls-12" x="7.9" y="38.61" width="0.85" height="0.85" rx="0.43"/><rect class="cls-5" x="9.13" y="38.61" width="0.85" height="0.85" rx="0.43"/><path class="cls-5" d="M12,25.83c2.25,0,3.6,2.8,3.68,5a2.38,2.38,0,0,0-.11-2.21,2.91,2.91,0,0,1-2.1,4.92h-.18a2.92,2.92,0,0,1-1.93-4.92,2.45,2.45,0,0,0-.24,1.83c.51-1.61,2.68-2.79.78-4.62H12m-.64,2.8h0M12,25.52h-.11a.32.32,0,0,0-.28.2.29.29,0,0,0,.07.33c1.15,1.11.64,1.85-.06,2.87l-.15.22a2.41,2.41,0,0,1,.15-.33.28.28,0,0,0,.06-.18.31.31,0,0,0-.31-.31h0a.33.33,0,0,0-.15,0h0l-.07.06a3.19,3.19,0,0,0-.9,2.23,3.24,3.24,0,0,0,3,3.22h.2a3.23,3.23,0,0,0,2.33-5.45.33.33,0,0,0-.23-.1.27.27,0,0,0-.12,0c-.66-1.59-1.88-2.83-3.45-2.83Z"/><path class="cls-2" d="M16.35,30.65a2.91,2.91,0,0,1-2.91,2.91h-.18a2.92,2.92,0,0,1-1.93-4.92,2.45,2.45,0,0,0-.24,1.83c.51-1.61,2.68-2.79.78-4.62h0c2.31-.08,3.7,2.77,3.78,5a2.38,2.38,0,0,0-.11-2.21A2.89,2.89,0,0,1,16.35,30.65Z"/><path class="cls-2" d="M16.35,30.65a2.91,2.91,0,0,1-2.91,2.91h-.18a2.92,2.92,0,0,1-1.93-4.92,2.45,2.45,0,0,0-.24,1.83c.51-1.61,2.68-2.79.78-4.62h0c2.31-.08,3.7,2.77,3.78,5a2.38,2.38,0,0,0-.11-2.21A2.89,2.89,0,0,1,16.35,30.65Z"/><path class="cls-1" d="M13.44,33.25h-.17a2.59,2.59,0,0,1-2.43-2.49l.21.83.33-1a5.47,5.47,0,0,1,.72-1.28c.6-.88,1.28-1.85.51-3,1.69.49,2.66,2.87,2.73,4.63v.73c0-.09.66-.79.69-.88A2.61,2.61,0,0,1,13.44,33.25Z"/><path class="cls-3" d="M14.65,30.73a1.35,1.35,0,0,1,.19.69,1.37,1.37,0,0,1-.13.58,4.11,4.11,0,0,0-1.5-3c.23,1.31-.83,1.89-1.13,2.81a1.29,1.29,0,0,1,0-.35,1.41,1.41,0,0,1,.19-.7,1.68,1.68,0,1,0,2.88,1.16A1.63,1.63,0,0,0,14.65,30.73Z"/></g></g></svg>