<svg xmlns="http://www.w3.org/2000/svg" viewBox="0 0 44.41 47.39"><defs><style>.cls-1{fill:#fff;}.cls-2{fill:#bbf9f6;}.cls-3{fill:#1c3157;}.cls-4,.cls-6,.cls-7,.cls-8,.cls-9{fill:none;stroke-miterlimit:10;}.cls-4,.cls-6,.cls-8,.cls-9{stroke:#29b2b8;}.cls-4{stroke-width:0.77px;}.cls-5{fill:#29b2b8;}.cls-6{stroke-width:0.59px;}.cls-7{stroke:#cd1318;}.cls-7,.cls-8{stroke-width:0.82px;}.cls-9{stroke-width:0.63px;}.cls-10{fill:#cd1318;}</style></defs><g id="Layer_2" data-name="Layer 2"><g id="Layer_2-2" data-name="Layer 2"><path class="cls-1" d="M39.4.29v3H35.09a.73.73,0,0,0-.73.72V5.58H31.42V4A3.67,3.67,0,0,1,35.09.29Z"/><path class="cls-2" d="M39.4.29V1.2H35.54a3,3,0,0,0-3,3v1.4H31.42V4A3.67,3.67,0,0,1,35.09.29Z"/><path class="cls-1" d="M44,9.56v28.5a1.55,1.55,0,0,1,0,.22,1.75,1.75,0,0,1,0,.4c0,.12,0,.24-.08.36a3.78,3.78,0,0,1-.42,1l-.21.31a3.62,3.62,0,0,1-1,1l-.32.2a4,4,0,0,1-1.17.42,4.28,4.28,0,0,1-.72.07H26.62c-.17,0-.33,0-.48,0L26,42l-.12,0a3.35,3.35,0,0,1-.37-.09,3.82,3.82,0,0,1-.36-.13,1.42,1.42,0,0,1-.25-.12.51.51,0,0,1-.15-.07,2.49,2.49,0,0,1-.32-.2,3.65,3.65,0,0,1-1-1l-.2-.31a1.8,1.8,0,0,1-.17-.34,2.52,2.52,0,0,1-.14-.33c-.05-.13-.08-.24-.12-.37s-.05-.24-.07-.36a1.75,1.75,0,0,1,0-.4,1.55,1.55,0,0,1,0-.22V9.56a1.62,1.62,0,0,1,0-.22,4,4,0,0,1,3.46-3.73c.15,0,.32,0,.49,0H40.05a4,4,0,0,1,4,3.76A1.62,1.62,0,0,1,44,9.56Z"/><path class="cls-2" d="M26.14,5.61V42L26,42l-.12,0a3.35,3.35,0,0,1-.37-.09,3.82,3.82,0,0,1-.36-.13,1.42,1.42,0,0,1-.25-.12.51.51,0,0,1-.15-.07,2.49,2.49,0,0,1-.32-.2,3.65,3.65,0,0,1-1-1l-.2-.31a1.8,1.8,0,0,1-.17-.34,2.52,2.52,0,0,1-.14-.33c-.05-.13-.08-.24-.12-.37s-.05-.24-.07-.36a1.75,1.75,0,0,1,0-.4,1.55,1.55,0,0,1,0-.22V9.56a1.62,1.62,0,0,1,0-.22A4,4,0,0,1,26.14,5.61Z"/><rect class="cls-1" x="28.14" y="42.04" width="1.61" height="5.36"/><rect class="cls-1" x="36.94" y="42.04" width="1.74" height="5.36"/><rect class="cls-2" x="39.07" y="7.17" width="1.58" height="32.98"/><path class="cls-3" d="M44,9.34H22.68a4,4,0,0,1,3.95-3.76H40.05A4,4,0,0,1,44,9.34Z"/><path class="cls-3" d="M44,38.28a1.75,1.75,0,0,1,0,.4c0,.12,0,.24-.08.36a3.78,3.78,0,0,1-.42,1l-.21.31a3.62,3.62,0,0,1-1,1l-.32.2a4,4,0,0,1-1.17.42,4.28,4.28,0,0,1-.72.07H26.62A4.21,4.21,0,0,1,26,42l-.12,0a3.35,3.35,0,0,1-.37-.09,3.82,3.82,0,0,1-.36-.13,1.42,1.42,0,0,1-.25-.12.51.51,0,0,1-.15-.07,2.49,2.49,0,0,1-.32-.2,3.65,3.65,0,0,1-1-1l-.2-.31a1.8,1.8,0,0,1-.17-.34,2.52,2.52,0,0,1-.14-.33c-.05-.13-.08-.24-.12-.37s-.05-.24-.07-.36a1.75,1.75,0,0,1,0-.4Z"/><path class="cls-4" d="M44,9.56v28.5a1.55,1.55,0,0,1,0,.22,1.75,1.75,0,0,1,0,.4c0,.12,0,.24-.08.36a3.78,3.78,0,0,1-.42,1l-.21.31a3.62,3.62,0,0,1-1,1l-.32.2a4,4,0,0,1-1.17.42,4.28,4.28,0,0,1-.72.07H26.62A3.21,3.21,0,0,1,26,42l-.12,0a3.35,3.35,0,0,1-.37-.09,3.82,3.82,0,0,1-.36-.13,1.42,1.42,0,0,1-.25-.12.51.51,0,0,1-.15-.07,2.49,2.49,0,0,1-.32-.2,3.65,3.65,0,0,1-1-1l-.2-.31a1.8,1.8,0,0,1-.17-.34,2.52,2.52,0,0,1-.14-.33c-.05-.13-.08-.24-.12-.37s-.05-.24-.07-.36a1.75,1.75,0,0,1,0-.4,1.55,1.55,0,0,1,0-.22V9.56a1.62,1.62,0,0,1,0-.22,4,4,0,0,1,3.95-3.76H40.05a4,4,0,0,1,4,3.76A1.62,1.62,0,0,1,44,9.56Z"/><circle class="cls-4" cx="33.03" cy="20.97" r="2.84"/><path class="cls-4" d="M34.68,21a1.65,1.65,0,1,1-3.3,0"/><path class="cls-5" d="M32.48,20.27a.66.66,0,0,0-.08.32.75.75,0,0,0,.05.26c0-.59.38-1.33,1-1.31-.5.48.07.79.2,1.21a.44.44,0,0,0,0-.16.66.66,0,0,0-.08-.32.76.76,0,1,1-1.1,0Z"/><path class="cls-6" d="M39.4,3.24H35.09a.73.73,0,0,0-.73.72V5.58H31.42V4A3.67,3.67,0,0,1,35.09.29H39.4"/><polyline class="cls-4" points="29.76 47.39 29.76 42.03 28.12 42.03 28.12 47.39"/><polyline class="cls-4" points="38.57 47.39 38.57 42.03 36.94 42.03 36.94 47.39"/><path class="cls-1" d="M19.56,16.73V39.18a2.45,2.45,0,0,1-2.46,2.46H13.54v5.11H6V41.64H2.87A2.46,2.46,0,0,1,.41,39.18V16.73a2.46,2.46,0,0,1,2.46-2.46H7.93V12.52A3.87,3.87,0,0,1,9.16,9.68h7.33v2.08H11.87a.78.78,0,0,0-.79.76v1.75h6A2.46,2.46,0,0,1,19.56,16.73Z"/><path class="cls-2" d="M3.76,14.27V41.64H2.87A2.46,2.46,0,0,1,.41,39.18V16.73a2.46,2.46,0,0,1,2.46-2.46Z"/><path class="cls-1" d="M16.48,8.6v3.16H11.86a.77.77,0,0,0-.77.77v1.74H7.92V12.53A4,4,0,0,1,11.86,8.6Z"/><rect class="cls-1" x="11.06" y="41.64" width="2.47" height="5.76"/><rect class="cls-1" x="6.12" y="41.64" width="2.47" height="5.76"/><rect class="cls-2" x="6.01" y="41.64" width="1.33" height="5.76"/><rect class="cls-2" x="11.06" y="41.64" width="1.34" height="5.76"/><path class="cls-2" d="M16.48,8.6V9.89H11.94a2.76,2.76,0,0,0-2.76,2.76v1.62H7.92V12.53A4,4,0,0,1,11.86,8.6Z"/><line class="cls-7" x1="0.41" y1="32.79" x2="19.56" y2="32.79"/><path class="cls-3" d="M19.56,34.36v4.82a2.45,2.45,0,0,1-2.45,2.46H2.87A2.46,2.46,0,0,1,.41,39.18V34.36Z"/><path class="cls-8" d="M19.56,16.73V39.18a2.45,2.45,0,0,1-2.45,2.46H2.87A2.46,2.46,0,0,1,.41,39.18V16.73a2.46,2.46,0,0,1,2.46-2.46H17.11A2.46,2.46,0,0,1,19.56,16.73Z"/><path class="cls-9" d="M16.48,11.76H11.86a.77.77,0,0,0-.77.77v1.74H7.92V12.53A4,4,0,0,1,11.86,8.6h4.62"/><polyline class="cls-8" points="6.12 47.39 6.12 41.64 8.59 41.64 8.59 47.39"/><polyline class="cls-8" points="13.53 47.4 13.53 46.75 13.53 41.64 12.4 41.64 11.06 41.64 11.06 46.75 11.06 47.4"/><circle class="cls-1" cx="16.13" cy="37.68" r="1.42"/><rect class="cls-10" x="3.24" y="36.65" width="1.04" height="1.04" rx="0.52"/><rect class="cls-5" x="4.73" y="36.65" width="1.04" height="1.04" rx="0.52"/><path class="cls-5" d="M8.2,21.08c2.74,0,4.38,3.41,4.48,6.12a2.92,2.92,0,0,0-.13-2.7,3.55,3.55,0,0,1-2.57,6H9.76a3.56,3.56,0,0,1-2.34-6A3,3,0,0,0,7,26a3.08,3.08,0,0,0,.1.75c.63-2,3.27-3.4,1-5.63H8.2m-.78,3.41h0M8.2,20.7H8.06a.38.38,0,0,0-.25.65c1.39,1.35.78,2.25-.08,3.49l-.18.27a2.87,2.87,0,0,1,.18-.4.34.34,0,0,0,.07-.22.37.37,0,0,0-.37-.38h0a.31.31,0,0,0-.19.06l-.06,0h0l0,0A3.89,3.89,0,0,0,6.06,27a3.94,3.94,0,0,0,3.68,3.92H10A3.94,3.94,0,0,0,13.91,27a3.89,3.89,0,0,0-1.08-2.71.39.39,0,0,0-.28-.12.4.4,0,0,0-.15,0c-.8-1.94-2.28-3.45-4.2-3.45Z"/><path class="cls-2" d="M13.53,27A3.54,3.54,0,0,1,10,30.5H9.76a3.56,3.56,0,0,1-2.34-6A3,3,0,0,0,7,26a3.08,3.08,0,0,0,.1.75c.63-2,3.27-3.4,1-5.63h0c2.82-.1,4.51,3.37,4.61,6.12a2.92,2.92,0,0,0-.13-2.7A3.51,3.51,0,0,1,13.53,27Z"/><path class="cls-2" d="M13.53,27A3.54,3.54,0,0,1,10,30.5H9.76a3.56,3.56,0,0,1-2.34-6A3,3,0,0,0,7,26a3.08,3.08,0,0,0,.1.75c.63-2,3.27-3.4,1-5.63h0c2.82-.1,4.51,3.37,4.61,6.12a2.92,2.92,0,0,0-.13-2.7A3.51,3.51,0,0,1,13.53,27Z"/><path class="cls-1" d="M10,30.12h-.2a3.16,3.16,0,0,1-3-3l.26,1,.4-1.25a6.44,6.44,0,0,1,.88-1.56C9.09,24.2,9.91,23,9,21.57c2.06.59,3.24,3.49,3.32,5.64v.89c0-.11.81-1,.84-1.08A3.16,3.16,0,0,1,10,30.12Z"/><path class="cls-3" d="M11.46,27a1.64,1.64,0,0,1,.23.85,1.84,1.84,0,0,1-.15.71,5,5,0,0,0-1.83-3.7c.27,1.59-1,2.29-1.37,3.42a1.54,1.54,0,0,1-.06-.43A1.64,1.64,0,0,1,8.51,27a2,2,0,1,0,3,0Z"/></g></g></svg>