<svg xmlns="http://www.w3.org/2000/svg" viewBox="0 0 71.64 38.05"><defs><style>.cls-1{fill:#fff;}.cls-2{fill:#bbf9f6;}.cls-3,.cls-5,.cls-6,.cls-7,.cls-8{fill:none;}.cls-3,.cls-5{stroke:#1c3157;}.cls-3,.cls-6{stroke-miterlimit:10;}.cls-3,.cls-5,.cls-6{stroke-width:0.81px;}.cls-4{fill:#29b2b8;}.cls-5,.cls-7,.cls-8{stroke-linecap:round;stroke-linejoin:round;}.cls-6,.cls-7,.cls-8{stroke:#cd1318;}.cls-7,.cls-8{stroke-width:0.41px;}.cls-8{stroke-dasharray:1.58 1.58;}.cls-9{font-size:4.01px;fill:#cd1318;font-family:Roboto-Bold, Roboto;font-weight:700;}</style></defs><g id="Layer_2" data-name="Layer 2"><g id="Layer_2-2" data-name="Layer 2"><rect class="cls-1" y="0.41" width="71.23" height="37.65"/><polygon class="cls-2" points="71.44 9.92 58.64 9.92 58.64 38.05 56.48 38.05 56.48 8.06 71.44 8.06 71.44 9.92"/><polygon class="cls-2" points="54.01 0.41 54.01 8.06 56.37 8.06 56.37 3.31 71.42 3.43 71.42 0.52 54.01 0.41"/><polygon class="cls-2" points="0 9.92 12.79 9.92 12.79 38.05 14.96 38.05 14.96 8.06 0 8.06 0 9.92"/><polygon class="cls-2" points="17.43 0.41 17.43 8.06 15.07 8.06 15.07 3.31 0.02 3.42 0.02 0.52 17.43 0.41"/><polyline class="cls-3" points="3.67 8.06 14.96 8.06 14.96 38.05"/><polyline class="cls-3" points="0 8.06 3.67 8.06 14.96 8.06 15.07 8.06 17.43 8.06 17.43 0.41 0 0.41"/><rect class="cls-4" x="0.41" y="12.88" width="6.99" height="22.5"/><polyline class="cls-5" points="9.31 35.38 7.41 35.38 6.95 35.38 0.41 35.38"/><polyline class="cls-5" points="0.41 35.38 6.95 35.38 6.95 24.13 6.95 12.88 0.41 12.88"/><line class="cls-5" x1="6.95" y1="24.13" x2="0.41" y2="24.13"/><path class="cls-3" d="M15,13.83h1.81a.67.67,0,0,1,.67.67v6.38a.74.74,0,0,1-.74.74H15a0,0,0,0,1,0,0V13.83A0,0,0,0,1,15,13.83Z"/><rect class="cls-3" x="17.43" y="14.98" width="2.48" height="5.49"/><rect class="cls-3" x="19.91" y="16.1" width="3.04" height="3.44"/><polyline class="cls-3" points="67.98 8.06 56.69 8.06 56.69 38.05"/><polyline class="cls-3" points="71.23 0.41 54.21 0.41 54.21 8.06 71.23 8.06"/><rect class="cls-4" x="64.24" y="12.88" width="6.99" height="22.5"/><polyline class="cls-5" points="71.23 35.38 64.69 35.38 64.24 35.38 62.33 35.38"/><polyline class="cls-5" points="71.23 12.88 64.69 12.88 64.69 24.13 64.69 35.38 71.23 35.38"/><line class="cls-5" x1="71.23" y1="24.13" x2="64.69" y2="24.13"/><line class="cls-6" x1="54.21" y1="13.77" x2="54.21" y2="21.87"/><line class="cls-6" x1="25.53" y1="13.77" x2="25.53" y2="21.87"/><line class="cls-7" x1="54.21" y1="17.73" x2="53.4" y2="17.73"/><line class="cls-8" x1="51.82" y1="17.73" x2="27.32" y2="17.73"/><line class="cls-7" x1="26.53" y1="17.73" x2="25.72" y2="17.73"/><text class="cls-9" transform="translate(36.54 16.22)">2m</text></g></g></svg>