<svg xmlns="http://www.w3.org/2000/svg" viewBox="0 0 81.86 79.83"><defs><style>.cls-1{fill:#fff;}.cls-2{fill:#bbf9f6;}.cls-3,.cls-6,.cls-7{fill:none;stroke-width:1.26px;}.cls-3{stroke:#28b1b7;}.cls-3,.cls-7{stroke-linecap:round;stroke-linejoin:round;}.cls-4{fill:#1c3157;}.cls-5{fill:#29b2b8;}.cls-6{stroke:#1c3157;stroke-miterlimit:10;}.cls-7{stroke:#29b2b8;}</style></defs><g id="Layer_2" data-name="Layer 2"><g id="Layer_2-2" data-name="Layer 2"><path class="cls-1" d="M77.07,47a8.74,8.74,0,0,1-.25,2.06,8.9,8.9,0,0,1-8.67,6.85,8.77,8.77,0,0,1-2.52-.36,8.89,8.89,0,0,1-13.89-.24,8.95,8.95,0,0,1-7.85-.69,8.9,8.9,0,0,1-14.43-.39,11.49,11.49,0,0,1-4.11.76,11.38,11.38,0,0,1-6.11-1.77A9.05,9.05,0,0,1,5,48a8.11,8.11,0,0,1-.24-2.05,9.07,9.07,0,0,1,9.07-9.07,9.33,9.33,0,0,1,2,.21,11.48,11.48,0,0,1,20.5,3.26l.46,0a8.85,8.85,0,0,1,4.62,1.3,8.88,8.88,0,0,1,14.11,0A8.87,8.87,0,0,1,58.77,41a8.68,8.68,0,0,1,2.52.38A8.91,8.91,0,0,1,77.07,47Z"/><path class="cls-2" d="M76.82,49.08a8.9,8.9,0,0,1-8.67,6.85,8.77,8.77,0,0,1-2.52-.36,8.89,8.89,0,0,1-13.89-.24,8.95,8.95,0,0,1-7.85-.69,8.9,8.9,0,0,1-14.43-.39,11.49,11.49,0,0,1-4.11.76,11.38,11.38,0,0,1-6.11-1.77A9.05,9.05,0,0,1,5,48a9.05,9.05,0,0,1,8.83-7,8.73,8.73,0,0,1,2,.22,11.46,11.46,0,0,1,20.5,3.25l.46,0a8.85,8.85,0,0,1,4.62,1.3,8.88,8.88,0,0,1,14.11,0,8.87,8.87,0,0,1,3.22-.62,8.68,8.68,0,0,1,2.52.38,8.91,8.91,0,0,1,15.53,3.63Z"/><path class="cls-3" d="M68.15,38.12a8.9,8.9,0,0,0-6.85,3.21A9.15,9.15,0,0,0,58.77,41a8.86,8.86,0,0,0-3.22.61,8.89,8.89,0,0,0-14.11,0,8.85,8.85,0,0,0-4.62-1.3l-.46,0a11.46,11.46,0,0,0-20.5-3.25,8.74,8.74,0,0,0-2-.23,9.08,9.08,0,1,0,5.37,16.38,11.38,11.38,0,0,0,10.21,1,8.9,8.9,0,0,0,14.44.4,8.84,8.84,0,0,0,7.84.69,8.9,8.9,0,0,0,13.9.24,8.73,8.73,0,0,0,2.52.37,8.91,8.91,0,0,0,0-17.82Z"/><path class="cls-1" d="M77.07,48.6v8.78A17.72,17.72,0,0,1,59.34,75.1H22.53l-.72,0a17.7,17.7,0,0,1-17-17.7V48.6Z"/><path class="cls-2" d="M14.11,53.36a4,4,0,0,0-4,4v5.4A12.37,12.37,0,0,0,21.81,75.08a17.7,17.7,0,0,1-17-17.7V48.6H77.07v4.76Z"/><path class="cls-3" d="M4.8,48.59H77.06a0,0,0,0,1,0,0v8.78A17.73,17.73,0,0,1,59.33,75.11H22.53A17.73,17.73,0,0,1,4.8,57.38V48.59A0,0,0,0,1,4.8,48.59Z"/><path class="cls-4" d="M29.9,11.76l-3.1,1.16-10.75,4a7.37,7.37,0,0,1,3.68-9.21l.67-.29A7.38,7.38,0,0,1,29.9,11.76Z"/><path class="cls-2" d="M29.9,11.76l-3.1,1.16c-2.65-4-5.33-5-7.07-5.2l.67-.29A7.38,7.38,0,0,1,29.9,11.76Z"/><rect class="cls-3" x="0.63" y="44.38" width="80.6" height="4.22" rx="2.11"/><rect class="cls-4" x="64.66" y="67.85" width="4.4" height="11.61" rx="2.2" transform="translate(-22.75 30.46) rotate(-22.03)"/><rect class="cls-4" x="12.8" y="67.85" width="4.4" height="11.61" rx="2.2" transform="translate(1.27 147.56) rotate(-157.97)"/><rect class="cls-1" x="0.63" y="44.38" width="80.6" height="4.22" rx="2.11"/><rect class="cls-3" x="0.63" y="44.38" width="80.6" height="4.22" rx="2.11"/><rect class="cls-3" x="64.66" y="67.85" width="4.4" height="11.61" rx="2.2" transform="translate(-22.75 30.46) rotate(-22.03)"/><rect class="cls-3" x="12.8" y="67.85" width="4.4" height="11.61" rx="2.2" transform="translate(1.27 147.56) rotate(-157.97)"/><line class="cls-3" x1="0.63" y1="79.15" x2="81.23" y2="79.15"/><path class="cls-3" d="M4.8,44.38V8.2A7.57,7.57,0,0,1,12.37.63h0a7.56,7.56,0,0,1,6.91,4.49l1,2.17"/><path class="cls-3" d="M16.05,16.94A7.39,7.39,0,0,1,29.9,11.77Z"/><line class="cls-3" x1="3.49" y1="26.24" x2="6.28" y2="29.03"/><line class="cls-3" x1="3.49" y1="26.24" x2="6.28" y2="29.03"/><line class="cls-3" x1="3.49" y1="26.24" x2="6.28" y2="29.03"/><line class="cls-3" x1="6.28" y1="26.24" x2="3.49" y2="29.03"/><path class="cls-2" d="M28,17.53a1.09,1.09,0,0,1-.47,1.3.7.7,0,0,1-.21.11,1.11,1.11,0,0,1-1.41-.68,8.27,8.27,0,0,1,.28-2.56l.35.29A5.93,5.93,0,0,1,28,17.53Z"/><path class="cls-5" d="M26.19,15.7l.35.29A5.93,5.93,0,0,1,28,17.53a1.09,1.09,0,0,1-.47,1.3.7.7,0,0,1-.21.11A1.19,1.19,0,0,1,27,19a1.12,1.12,0,0,1-1-.74,8.27,8.27,0,0,1,.28-2.56m0-1.26a1.54,1.54,0,0,0-.42.07,1.29,1.29,0,0,0-.81.9,6.62,6.62,0,0,0-.24,3.26A2.37,2.37,0,0,0,27,20.26a2.28,2.28,0,0,0,.78-.13,1.8,1.8,0,0,0,.48-.24,2.37,2.37,0,0,0,1-2.78c-.14-.39-.47-.94-1.85-2.09-.22-.19-.38-.31-.38-.31a1.23,1.23,0,0,0-.77-.27Z"/><path class="cls-4" d="M28,17.53a1.09,1.09,0,0,1-.47,1.3,1.09,1.09,0,0,1-1.17-.73A6,6,0,0,1,26.54,16,5.93,5.93,0,0,1,28,17.53Z"/><path class="cls-2" d="M23.82,19a1.11,1.11,0,0,1-.47,1.3,1.06,1.06,0,0,1-.21.11,1.11,1.11,0,0,1-1.41-.68A8.27,8.27,0,0,1,22,17.16l.35.29A6.09,6.09,0,0,1,23.82,19Z"/><path class="cls-5" d="M22,17.16l.35.29A6.09,6.09,0,0,1,23.82,19a1.11,1.11,0,0,1-.47,1.3,1.06,1.06,0,0,1-.21.11,1.19,1.19,0,0,1-.37.06,1.12,1.12,0,0,1-1-.74A8.27,8.27,0,0,1,22,17.16m0-1.26a1.3,1.3,0,0,0-1.23,1,6.62,6.62,0,0,0-.24,3.26,2.37,2.37,0,0,0,2.23,1.59,2.28,2.28,0,0,0,.78-.13,2.37,2.37,0,0,0,1.46-3c-.14-.39-.47-.94-1.85-2.09-.22-.19-.38-.31-.38-.31A1.29,1.29,0,0,0,22,15.9Z"/><path class="cls-4" d="M23.82,19a1.11,1.11,0,0,1-.47,1.3,1.09,1.09,0,0,1-1.17-.73,6,6,0,0,1,.18-2.11A6.09,6.09,0,0,1,23.82,19Z"/><path class="cls-2" d="M31.28,20.22a1.1,1.1,0,0,1-.46,1.31.88.88,0,0,1-.22.1A1.09,1.09,0,0,1,29.2,21a8,8,0,0,1,.27-2.55l.35.28A6.07,6.07,0,0,1,31.28,20.22Z"/><path class="cls-5" d="M29.47,18.4l.35.28a6.07,6.07,0,0,1,1.46,1.54,1.1,1.1,0,0,1-.46,1.31,1.19,1.19,0,0,1-.58.17,1.09,1.09,0,0,1-1-.75,8,8,0,0,1,.27-2.55m0-1.26a1.18,1.18,0,0,0-.41.07,1.27,1.27,0,0,0-.81.89A6.53,6.53,0,0,0,28,21.37,2.37,2.37,0,0,0,30.24,23a2.29,2.29,0,0,0,.78-.14,1.93,1.93,0,0,0,.48-.23,2.35,2.35,0,0,0,1-2.78c-.13-.39-.46-.95-1.84-2.1l-.38-.31a1.31,1.31,0,0,0-.78-.26Z"/><path class="cls-4" d="M31.28,20.22a1.1,1.1,0,0,1-.46,1.31,1.11,1.11,0,0,1-1.18-.73,6.26,6.26,0,0,1,.18-2.12A6.07,6.07,0,0,1,31.28,20.22Z"/><path class="cls-2" d="M22.93,23.15a1.11,1.11,0,0,1-.47,1.3,1.06,1.06,0,0,1-.21.11,1.11,1.11,0,0,1-1.41-.68,8,8,0,0,1,.28-2.56l.34.28A6.17,6.17,0,0,1,22.93,23.15Z"/><path class="cls-5" d="M21.12,21.32l.34.28a5.94,5.94,0,0,1,1.46,1.55,1.09,1.09,0,0,1-.46,1.3,1.06,1.06,0,0,1-.21.11,1.19,1.19,0,0,1-.37.06,1.1,1.1,0,0,1-1-.74,8,8,0,0,1,.28-2.56m0-1.26a1.2,1.2,0,0,0-.42.07,1.27,1.27,0,0,0-.81.89,6.54,6.54,0,0,0-.24,3.27,2.37,2.37,0,0,0,2.23,1.59,2.29,2.29,0,0,0,.78-.14,1.93,1.93,0,0,0,.48-.23,2.35,2.35,0,0,0,1-2.78c-.13-.39-.46-.95-1.84-2.1l-.38-.31a1.3,1.3,0,0,0-.77-.26Z"/><path class="cls-4" d="M22.93,23.15a1.11,1.11,0,0,1-.47,1.3,1.12,1.12,0,0,1-1.18-.73,6.28,6.28,0,0,1,.18-2.12A6.17,6.17,0,0,1,22.93,23.15Z"/><path class="cls-2" d="M27.1,21.68A1.1,1.1,0,0,1,26.64,23a1,1,0,0,1-.21.1A1.1,1.1,0,0,1,25,22.41a7.94,7.94,0,0,1,.28-2.55l.34.28A6.07,6.07,0,0,1,27.1,21.68Z"/><path class="cls-5" d="M25.3,19.86l.34.28a6.07,6.07,0,0,1,1.46,1.54A1.1,1.1,0,0,1,26.64,23a1.19,1.19,0,0,1-.58.17,1.09,1.09,0,0,1-1-.75,7.94,7.94,0,0,1,.28-2.55m0-1.26a1.2,1.2,0,0,0-.42.07,1.27,1.27,0,0,0-.81.89,6.54,6.54,0,0,0-.24,3.27,2.37,2.37,0,0,0,2.23,1.59,2.29,2.29,0,0,0,.78-.14,1.93,1.93,0,0,0,.48-.23,2.35,2.35,0,0,0,1-2.78c-.13-.39-.46-.95-1.84-2.1l-.38-.31a1.3,1.3,0,0,0-.77-.26Z"/><path class="cls-4" d="M27.1,21.68A1.1,1.1,0,0,1,26.64,23a1.12,1.12,0,0,1-1.18-.73,6.26,6.26,0,0,1,.18-2.12A6.07,6.07,0,0,1,27.1,21.68Z"/><path class="cls-2" d="M22.09,27.47a1.08,1.08,0,0,1-.47,1.3.7.7,0,0,1-.21.11A1.11,1.11,0,0,1,20,28.2a8.27,8.27,0,0,1,.28-2.56l.35.29A5.92,5.92,0,0,1,22.09,27.47Z"/><path class="cls-5" d="M20.28,25.64l.35.29a5.92,5.92,0,0,1,1.46,1.54,1.09,1.09,0,0,1-.46,1.3.91.91,0,0,1-.22.11,1.13,1.13,0,0,1-.36.06A1.12,1.12,0,0,1,20,28.2a8.27,8.27,0,0,1,.28-2.56m0-1.26a1.15,1.15,0,0,0-.41.08,1.23,1.23,0,0,0-.81.89,6.66,6.66,0,0,0-.25,3.26,2.37,2.37,0,0,0,2.24,1.59,2.32,2.32,0,0,0,.78-.13,2.28,2.28,0,0,0,.47-.23,2.39,2.39,0,0,0,1-2.79c-.14-.39-.46-.94-1.84-2.09l-.39-.31a1.26,1.26,0,0,0-.77-.27Z"/><path class="cls-4" d="M22.09,27.47a1.08,1.08,0,0,1-.47,1.3A1.09,1.09,0,0,1,20.45,28a6,6,0,0,1,.18-2.11A5.92,5.92,0,0,1,22.09,27.47Z"/><path class="cls-2" d="M26.27,26a1.09,1.09,0,0,1-.47,1.3.7.7,0,0,1-.21.11,1.1,1.1,0,0,1-1.41-.68,8.27,8.27,0,0,1,.28-2.56l.35.29A5.92,5.92,0,0,1,26.27,26Z"/><path class="cls-5" d="M24.46,24.18l.35.29A5.92,5.92,0,0,1,26.27,26a1.09,1.09,0,0,1-.47,1.3.7.7,0,0,1-.21.11,1.13,1.13,0,0,1-.36.06,1.12,1.12,0,0,1-1.05-.74,8.27,8.27,0,0,1,.28-2.56m0-1.26a1.29,1.29,0,0,0-1.22,1A6.66,6.66,0,0,0,23,27.15a2.38,2.38,0,0,0,3,1.46,2.28,2.28,0,0,0,.47-.23,2.39,2.39,0,0,0,1-2.79c-.14-.39-.46-.94-1.85-2.09-.22-.19-.38-.31-.38-.31a1.26,1.26,0,0,0-.77-.27Z"/><path class="cls-4" d="M26.27,26a1.09,1.09,0,0,1-.47,1.3,1.09,1.09,0,0,1-1.17-.73,6,6,0,0,1,.18-2.11A5.92,5.92,0,0,1,26.27,26Z"/><path class="cls-2" d="M30.45,24.55a1.08,1.08,0,0,1-.47,1.3.7.7,0,0,1-.21.11,1.12,1.12,0,0,1-1.41-.68,8.27,8.27,0,0,1,.28-2.56L29,23A5.76,5.76,0,0,1,30.45,24.55Z"/><path class="cls-5" d="M28.64,22.72,29,23a5.76,5.76,0,0,1,1.46,1.54,1.08,1.08,0,0,1-.47,1.3.7.7,0,0,1-.21.11,1.13,1.13,0,0,1-.36.06,1.12,1.12,0,0,1-1.05-.74,8.27,8.27,0,0,1,.28-2.56m0-1.26a1.54,1.54,0,0,0-.42.07,1.27,1.27,0,0,0-.8.9,6.66,6.66,0,0,0-.25,3.26,2.37,2.37,0,0,0,2.24,1.59,2.32,2.32,0,0,0,.78-.13,1.89,1.89,0,0,0,.47-.24,2.37,2.37,0,0,0,1-2.78c-.14-.39-.46-.95-1.84-2.09l-.39-.31a1.21,1.21,0,0,0-.77-.27Z"/><path class="cls-4" d="M30.45,24.55a1.08,1.08,0,0,1-.47,1.3,1.09,1.09,0,0,1-1.17-.73A6,6,0,0,1,29,23,5.76,5.76,0,0,1,30.45,24.55Z"/><path class="cls-2" d="M34.57,22.92a1.11,1.11,0,0,1-.46,1.31l-.22.1a1.11,1.11,0,0,1-1.41-.68,8.2,8.2,0,0,1,.28-2.55l.35.28A5.92,5.92,0,0,1,34.57,22.92Z"/><path class="cls-5" d="M32.76,21.1l.35.28a5.92,5.92,0,0,1,1.46,1.54,1.11,1.11,0,0,1-.46,1.31l-.22.1a1.13,1.13,0,0,1-.36.06,1.1,1.1,0,0,1-1.05-.74,8.2,8.2,0,0,1,.28-2.55m0-1.26a1.14,1.14,0,0,0-.41.07,1.23,1.23,0,0,0-.81.89,6.69,6.69,0,0,0-.25,3.27,2.36,2.36,0,0,0,2.24,1.58,2.32,2.32,0,0,0,.78-.13,2.28,2.28,0,0,0,.47-.23,2.39,2.39,0,0,0,1-2.79c-.14-.39-.46-.94-1.84-2.09l-.39-.31a1.26,1.26,0,0,0-.77-.26Z"/><path class="cls-4" d="M34.57,22.92a1.11,1.11,0,0,1-.46,1.31,1.12,1.12,0,0,1-1.18-.74,6,6,0,0,1,.18-2.11A5.92,5.92,0,0,1,34.57,22.92Z"/><rect class="cls-1" x="50.3" y="44.38" width="11.39" height="16.93"/><rect class="cls-3" x="50.3" y="44.38" width="11.39" height="16.93"/><path class="cls-2" d="M67.82,17.19a14.71,14.71,0,1,1-20-13.72,14.48,14.48,0,0,1,5.28-1A14.7,14.7,0,0,1,67.82,17.19Z"/><path class="cls-1" d="M67.82,17.19a14.64,14.64,0,0,1-6.58,12.25,14.49,14.49,0,0,1-5.25,1A14.7,14.7,0,0,1,47.83,3.47a14.48,14.48,0,0,1,5.28-1A14.7,14.7,0,0,1,67.82,17.19Z"/><circle class="cls-6" cx="53.11" cy="17.19" r="14.71"/><polyline class="cls-7" points="44.64 17.48 50.1 22.94 61.59 11.45"/></g></g></svg>