<svg xmlns="http://www.w3.org/2000/svg" viewBox="0 0 69.36 52.84"><defs><style>.cls-1{fill:#fff;}.cls-2{fill:#bbf9f6;}.cls-3,.cls-5,.cls-7{fill:none;stroke:#1c3157;stroke-linejoin:round;}.cls-3{stroke-width:2px;}.cls-4{fill:#29b2b8;}.cls-5,.cls-7{stroke-linecap:round;}.cls-5{stroke-width:0.71px;}.cls-6{fill:#1c3157;}</style></defs><g id="Layer_2" data-name="Layer 2"><g id="Layer_2-2" data-name="Layer 2"><rect class="cls-1" x="0.5" y="0.5" width="68.86" height="51.84"/><polygon class="cls-2" points="68.73 19.64 51.43 19.64 51.43 52.34 45.83 52.34 45.83 12.66 68.73 12.66 68.73 19.64"/><path class="cls-3" d="M46.07,52.34V12.66H68.73"/><line class="cls-3" x1="46.07" y1="25.8" x2="68.73" y2="25.8"/><rect class="cls-4" x="16.13" y="16.55" width="16.77" height="16.77" rx="1.75"/><rect class="cls-5" x="16.13" y="16.55" width="16.77" height="16.77" rx="1.75"/><rect class="cls-2" x="19.1" y="19.51" width="10.83" height="10.83" rx="0.96"/><rect class="cls-6" x="19.09" y="17.74" width="4.73" height="0.73"/><rect class="cls-6" x="25.19" y="17.74" width="4.73" height="0.73"/><rect class="cls-6" x="19.09" y="31.39" width="4.73" height="0.73"/><rect class="cls-6" x="25.19" y="31.39" width="4.73" height="0.73"/><rect class="cls-6" x="28.87" y="21.51" width="4.73" height="0.73" transform="translate(53.11 -9.36) rotate(90)"/><rect class="cls-6" x="28.87" y="27.62" width="4.73" height="0.73" transform="translate(59.22 -3.25) rotate(90)"/><rect class="cls-6" x="15.43" y="21.51" width="4.73" height="0.73" transform="translate(39.67 4.08) rotate(90)"/><rect class="cls-6" x="15.43" y="27.62" width="4.73" height="0.73" transform="translate(45.78 10.19) rotate(90)"/><rect class="cls-5" x="20.51" y="21.1" width="8" height="7.66" rx="1.05"/><polyline class="cls-7" points="4.36 52.34 4.36 45.57 14.08 45.57 14.08 52.34"/><polyline class="cls-7" points="10.22 0.5 10.22 7.28 0.5 7.28 0.5 0.5"/></g></g></svg>