<svg xmlns="http://www.w3.org/2000/svg" viewBox="0 0 71.44 57.21"><defs><style>.cls-1,.cls-10,.cls-6,.cls-7,.cls-9{fill:#fff;}.cls-2{fill:#bbf9f6;}.cls-3,.cls-5{fill:none;}.cls-10,.cls-3,.cls-5,.cls-6,.cls-7,.cls-9{stroke:#1c3157;}.cls-10,.cls-3{stroke-linecap:round;stroke-linejoin:round;}.cls-10,.cls-3,.cls-5,.cls-9{stroke-width:0.94px;}.cls-4{fill:#29b2b8;}.cls-5,.cls-6,.cls-7,.cls-9{stroke-miterlimit:10;}.cls-6{stroke-width:0.89px;}.cls-7{stroke-width:0.8px;}.cls-8{fill:#1c3157;}</style></defs><g id="Layer_2" data-name="Layer 2"><g id="Layer_2-2" data-name="Layer 2"><rect class="cls-1" x="1.24" y="0.47" width="69.73" height="56.27"/><rect class="cls-2" x="18.59" y="12.07" width="50.34" height="2.89"/><path class="cls-2" d="M71,5.64V8.28c-8-.14-47.59.07-47.59.07v3.72H17.5V9.44h4V5.64Z"/><polygon class="cls-2" points="1.22 11.59 16.08 11.59 16.08 56.74 18.59 56.74 18.59 9.43 1.22 9.43 1.22 11.59"/><polygon class="cls-2" points="21.47 0.54 21.47 9.44 18.73 9.44 18.73 3.92 1.24 4.05 1.24 0.68 21.47 0.54"/><polyline class="cls-3" points="5.48 9.36 18.59 9.36 18.59 56.74"/><polyline class="cls-3" points="1.7 0.47 21.47 0.47 21.47 9.36 1.7 9.36"/><rect class="cls-4" x="1.7" y="14.96" width="8.12" height="26.13"/><polyline class="cls-3" points="12.03 41.09 9.82 41.09 9.29 41.09 1.7 41.09"/><polyline class="cls-3" points="1.7 41.09 9.29 41.09 9.29 28.03 9.29 14.96 1.7 14.96"/><line class="cls-3" x1="9.29" y1="28.03" x2="1.7" y2="28.03"/><path class="cls-3" d="M18.59,16.06h2.1a.78.78,0,0,1,.78.78v7.41a.86.86,0,0,1-.86.86h-2a0,0,0,0,1,0,0v-9A0,0,0,0,1,18.59,16.06Z"/><rect class="cls-3" x="21.47" y="17.4" width="2.88" height="6.37"/><rect class="cls-3" x="24.35" y="18.7" width="3.53" height="3.99"/><polyline class="cls-5" points="18.59 12.07 23.38 12.07 70.97 12.07 70.97 8.28 70.97 5.64 21.46 5.64"/><line class="cls-5" x1="68.93" y1="12.07" x2="68.93" y2="56.74"/><line class="cls-3" x1="0.47" y1="56.74" x2="70.97" y2="56.74"/><rect class="cls-6" x="26.48" y="44.26" width="7.66" height="12.48" rx="1.21"/><rect class="cls-6" x="54.41" y="44.26" width="7.66" height="12.48" rx="1.21"/><rect class="cls-7" x="56.34" y="37.37" width="4.93" height="2.5" rx="1.25"/><rect class="cls-7" x="27.28" y="37.37" width="4.93" height="2.5" rx="1.25"/><path class="cls-1" d="M29.64,40.54,33,34a6.55,6.55,0,0,1,5.85-3.57h10.8a6.54,6.54,0,0,1,5.1,2.42A6,6,0,0,1,55.52,34l3.38,6.59Z"/><path class="cls-8" d="M49.67,30.78a6.18,6.18,0,0,1,4.79,2.27,5.55,5.55,0,0,1,.7,1.08l3.08,6H30.3l3.08-6a6.17,6.17,0,0,1,5.49-3.35h10.8m0-.81H38.87a6.93,6.93,0,0,0-6.2,3.8l-3.08,6L29,41H59.56L59,39.78l-3.08-6a6.66,6.66,0,0,0-.8-1.23A7,7,0,0,0,49.67,30Z"/><path class="cls-2" d="M54.46,33.05H37.27l-4,7.09H30.3l3.08-6a6.17,6.17,0,0,1,5.49-3.35h10.8A6.18,6.18,0,0,1,54.46,33.05Z"/><path class="cls-7" d="M34.25,39.5a3.41,3.41,0,0,1,6.82,0"/><path class="cls-1" d="M28.42,51.93a2.6,2.6,0,0,1-2.62-2.56v-3A6.91,6.91,0,0,1,26,44.55a7.34,7.34,0,0,1,1.28-2.73,7.61,7.61,0,0,1,6.05-3H55.18a7.6,7.6,0,0,1,6.06,3,7.33,7.33,0,0,1,1.29,2.74,7.17,7.17,0,0,1,.22,1.78v3a2.65,2.65,0,0,1-2.63,2.57Z"/><path class="cls-8" d="M55.18,39.26a7.08,7.08,0,0,1,5.68,2.84,6.87,6.87,0,0,1,1.21,2.56,6.73,6.73,0,0,1,.21,1.68v3a2.17,2.17,0,0,1-2.16,2.1H28.42a2.16,2.16,0,0,1-2.15-2.1v-3a6.73,6.73,0,0,1,.21-1.68,6.85,6.85,0,0,1,1.2-2.56,7.09,7.09,0,0,1,5.67-2.84H55.18m0-.94H33.35a8.05,8.05,0,0,0-6.42,3.22,7.7,7.7,0,0,0-1.37,2.91,7.59,7.59,0,0,0-.23,1.89v3a3.08,3.08,0,0,0,3.09,3h31.7a3.12,3.12,0,0,0,3.1-3v-3a8.12,8.12,0,0,0-1.6-4.8,8.08,8.08,0,0,0-6.44-3.22Z"/><rect class="cls-2" x="26.27" y="46.63" width="36.01" height="2.72"/><rect class="cls-9" x="24.97" y="48.74" width="38.6" height="4.84" rx="1.68"/><path class="cls-1" d="M25.88,45.13l.14-.57a7.31,7.31,0,0,1,1.28-2.74l.15-.19H32a3,3,0,0,1,3,3v.47Z"/><path class="cls-8" d="M32,42.1a2.56,2.56,0,0,1,2.56,2.56h-8a6.78,6.78,0,0,1,1.2-2.56H32m0-.94H27.21l-.28.38a7.7,7.7,0,0,0-1.37,2.91l-.27,1.16H35.45v-1a3.5,3.5,0,0,0-3.5-3.5Z"/><path class="cls-1" d="M53.56,45.13v-.47a3,3,0,0,1,3-3H61.1l.14.19a7.33,7.33,0,0,1,1.29,2.74l.13.57Z"/><path class="cls-8" d="M60.86,42.1a6.8,6.8,0,0,1,1.21,2.56H54a2.56,2.56,0,0,1,2.56-2.56h4.27m.47-.94H56.59a3.5,3.5,0,0,0-3.5,3.5v1H63.25L63,44.45a7.7,7.7,0,0,0-1.37-2.91l-.29-.38Z"/><path class="cls-10" d="M36.43,42.1H52.12a0,0,0,0,1,0,0v0a2.56,2.56,0,0,1-2.56,2.56H39a2.56,2.56,0,0,1-2.56-2.56v0A0,0,0,0,1,36.43,42.1Z"/><rect class="cls-10" x="37.78" y="49.88" width="12.99" height="2.57"/><circle class="cls-9" cx="28.86" cy="51.16" r="1.21"/><circle class="cls-9" cx="59.68" cy="51.16" r="1.21"/></g></g></svg>