<svg xmlns="http://www.w3.org/2000/svg" viewBox="0 0 71.44 57.21"><defs><style>.cls-1{fill:#fff;}.cls-2{fill:#bbf9f6;}.cls-3{fill:none;stroke:#1c3157;stroke-linecap:round;stroke-linejoin:round;stroke-width:0.94px;}.cls-4{fill:#29b2b8;}</style></defs><g id="Layer_2" data-name="Layer 2"><g id="Layer_2-2" data-name="Layer 2"><rect class="cls-1" x="1.7" y="0.47" width="69.27" height="56.27"/><polygon class="cls-2" points="1.46 11.56 16.32 11.56 16.32 56.71 18.83 56.71 18.83 9.4 1.46 9.4 1.46 11.56"/><polygon class="cls-2" points="21.71 0.51 21.71 9.4 18.96 9.4 18.96 3.88 1.48 4.01 1.48 0.64 21.71 0.51"/><polyline class="cls-3" points="5.48 9.36 18.59 9.36 18.59 56.74"/><polyline class="cls-3" points="1.7 0.47 21.47 0.47 21.47 9.36 1.7 9.36"/><rect class="cls-4" x="1.7" y="14.96" width="8.12" height="26.13"/><polyline class="cls-3" points="12.03 41.09 9.82 41.09 9.29 41.09 1.7 41.09"/><polyline class="cls-3" points="1.7 41.09 9.29 41.09 9.29 28.03 9.29 14.96 1.7 14.96"/><line class="cls-3" x1="9.29" y1="28.03" x2="1.7" y2="28.03"/><path class="cls-3" d="M18.59,16.06h2.1a.78.78,0,0,1,.78.78v7.41a.86.86,0,0,1-.86.86h-2a0,0,0,0,1,0,0v-9A0,0,0,0,1,18.59,16.06Z"/><rect class="cls-3" x="21.47" y="17.4" width="2.88" height="6.37"/><rect class="cls-3" x="24.35" y="18.7" width="3.53" height="3.99"/><line class="cls-3" x1="0.47" y1="56.74" x2="70.97" y2="56.74"/></g></g></svg>