<svg xmlns="http://www.w3.org/2000/svg" xmlns:xlink="http://www.w3.org/1999/xlink" viewBox="0 0 15.6 21.13"><defs><style>.cls-1,.cls-2,.cls-3{fill:none;}.cls-2{stroke:#29b2b8;}.cls-3{stroke:#1c3157;}.cls-4{fill:#bbf9f6;}.cls-5{clip-path:url(#clip-path);}.cls-6{fill:#30b5bb;}.cls-7{fill:#31b6bb;}.cls-8{fill:#32b6bc;}.cls-9{fill:#33b7bc;}.cls-10{fill:#34b7bd;}.cls-11{fill:#35b8bd;}.cls-12{fill:#36b8be;}.cls-13{fill:#37b9be;}.cls-14{fill:#38b9be;}.cls-15{fill:#39babf;}.cls-16{fill:#3ababf;}.cls-17{fill:#3bbbc0;}.cls-18{fill:#3cbbc0;}.cls-19{fill:#3dbcc1;}.cls-20{fill:#3ebcc1;}.cls-21{fill:#3fbdc1;}.cls-22{fill:#40bdc2;}.cls-23{fill:#41bec2;}.cls-24{fill:#42bec3;}.cls-25{fill:#43bfc3;}.cls-26{fill:#44bfc4;}.cls-27{fill:#45c0c4;}.cls-28{fill:#46c0c4;}.cls-29{fill:#47c1c5;}.cls-30{fill:#48c1c5;}.cls-31{fill:#49c2c6;}.cls-32{fill:#4ac2c6;}.cls-33{fill:#4bc3c7;}.cls-34{fill:#4cc3c7;}.cls-35{fill:#4dc4c7;}.cls-36{fill:#4ec4c8;}.cls-37{fill:#4fc5c8;}.cls-38{fill:#50c5c9;}.cls-39{fill:#51c6c9;}.cls-40{fill:#52c6ca;}.cls-41{fill:#53c7ca;}.cls-42{fill:#54c7ca;}.cls-43{fill:#55c8cb;}.cls-44{fill:#56c8cb;}.cls-45{fill:#57c9cc;}.cls-46{fill:#58c9cc;}.cls-47{fill:#59cacd;}.cls-48{fill:#5acacd;}.cls-49{fill:#5bcacd;}.cls-50{fill:#5ccbce;}.cls-51{fill:#5dcbce;}.cls-52{fill:#5ecccf;}.cls-53{fill:#5fcccf;}.cls-54{fill:#60cdd0;}.cls-55{fill:#61cdd0;}.cls-56{fill:#62ced0;}.cls-57{fill:#63ced1;}.cls-58{fill:#64cfd1;}.cls-59{fill:#65cfd2;}.cls-60{fill:#66d0d2;}.cls-61{fill:#67d0d3;}.cls-62{fill:#68d1d3;}.cls-63{fill:#69d1d3;}.cls-64{fill:#6ad2d4;}.cls-65{fill:#6bd2d4;}.cls-66{fill:#6cd3d5;}.cls-67{fill:#6dd3d5;}.cls-68{fill:#6ed4d6;}.cls-69{fill:#6fd4d6;}.cls-70{fill:#70d5d6;}.cls-71{fill:#71d5d7;}.cls-72{fill:#73d6d7;}.cls-73{fill:#74d6d8;}.cls-74{fill:#75d7d8;}.cls-75{fill:#76d7d8;}.cls-76{fill:#77d8d9;}.cls-77{fill:#78d8d9;}.cls-78{fill:#79d9da;}.cls-79{fill:#7ad9da;}.cls-80{fill:#7bdadb;}.cls-81{fill:#7cdadb;}.cls-82{fill:#7ddbdb;}.cls-83{fill:#7edbdc;}.cls-84{fill:#7fdcdc;}.cls-85{fill:#80dcdd;}.cls-86{fill:#81dddd;}.cls-87{fill:#82ddde;}.cls-88{fill:#83dede;}.cls-89{fill:#84dede;}.cls-90{fill:#85dfdf;}.cls-91{fill:#86dfdf;}.cls-92{fill:#87e0e0;}.cls-93{fill:#88e0e0;}.cls-94{fill:#89e1e1;}.cls-95{fill:#8ae1e1;}.cls-96{fill:#8be1e1;}.cls-97{fill:#8ce2e2;}.cls-98{fill:#8de2e2;}.cls-99{fill:#8ee3e3;}.cls-100{fill:#8fe3e3;}.cls-101{fill:#90e4e4;}.cls-102{fill:#91e4e4;}.cls-103{fill:#92e5e4;}.cls-104{fill:#93e5e5;}.cls-105{fill:#94e6e5;}.cls-106{fill:#95e6e6;}.cls-107{fill:#96e7e6;}.cls-108{fill:#97e7e7;}.cls-109{fill:#98e8e7;}.cls-110{fill:#99e8e7;}.cls-111{fill:#9ae9e8;}.cls-112{fill:#9be9e8;}.cls-113{fill:#9ceae9;}.cls-114{fill:#9deae9;}.cls-115{fill:#9eebea;}.cls-116{fill:#9febea;}.cls-117{fill:#a0ecea;}.cls-118{fill:#a1eceb;}.cls-119{fill:#a2edeb;}.cls-120{fill:#a3edec;}.cls-121{fill:#a4eeec;}.cls-122{fill:#a5eeed;}.cls-123{fill:#a6efed;}.cls-124{fill:#a7efed;}.cls-125{fill:#a8f0ee;}.cls-126{fill:#a9f0ee;}.cls-127{fill:#aaf1ef;}.cls-128{fill:#abf1ef;}.cls-129{fill:#acf2f0;}</style><clipPath id="clip-path"><path class="cls-1" d="M4.93,8.84H7A2.94,2.94,0,0,0,9.19,8.1a2.68,2.68,0,0,0,.71-2,2.41,2.41,0,0,0-.7-1.85,2.74,2.74,0,0,0-1.95-.66,2.87,2.87,0,0,0-1.87.62,2,2,0,0,0-.75,1.59H.74a4.79,4.79,0,0,1,.83-2.75,5.45,5.45,0,0,1,2.31-1.9A7.71,7.71,0,0,1,7.16.5,7.34,7.34,0,0,1,12,2a5.07,5.07,0,0,1,1.76,4.09A4.1,4.1,0,0,1,13,8.56a5.32,5.32,0,0,1-2.15,1.73,5,5,0,0,1,2.47,1.78,4.83,4.83,0,0,1,.81,2.8,5.14,5.14,0,0,1-1.9,4.18,7.66,7.66,0,0,1-5,1.58,7.26,7.26,0,0,1-4.8-1.55A5.06,5.06,0,0,1,.5,15H4.39a2.24,2.24,0,0,0,.82,1.8,3.06,3.06,0,0,0,2,.7,3.07,3.07,0,0,0,2.18-.73,2.55,2.55,0,0,0,.78-2c0-2-1.07-2.93-3.23-2.93H4.93Z"/></clipPath></defs><g id="Layer_2" data-name="Layer 2"><g id="Layer_2-2" data-name="Layer 2"><path d="M4.93,8.84H7A2.94,2.94,0,0,0,9.19,8.1a2.68,2.68,0,0,0,.71-2,2.41,2.41,0,0,0-.7-1.85,2.74,2.74,0,0,0-1.95-.66,2.87,2.87,0,0,0-1.87.62,2,2,0,0,0-.75,1.59H.74a4.79,4.79,0,0,1,.83-2.75,5.45,5.45,0,0,1,2.31-1.9A7.71,7.71,0,0,1,7.16.5,7.34,7.34,0,0,1,12,2a5.07,5.07,0,0,1,1.76,4.09A4.1,4.1,0,0,1,13,8.56a5.32,5.32,0,0,1-2.15,1.73,5,5,0,0,1,2.47,1.78,4.83,4.83,0,0,1,.81,2.8,5.14,5.14,0,0,1-1.9,4.18,7.66,7.66,0,0,1-5,1.58,7.26,7.26,0,0,1-4.8-1.55A5.06,5.06,0,0,1,.5,15H4.39a2.24,2.24,0,0,0,.82,1.8,3.06,3.06,0,0,0,2,.7,3.07,3.07,0,0,0,2.18-.73,2.55,2.55,0,0,0,.78-2c0-2-1.07-2.93-3.23-2.93H4.93Z"/><path class="cls-2" d="M5.93,8.84H8a2.94,2.94,0,0,0,2.19-.74,2.68,2.68,0,0,0,.71-2,2.41,2.41,0,0,0-.7-1.85,2.74,2.74,0,0,0-1.95-.66,2.87,2.87,0,0,0-1.87.62,2,2,0,0,0-.75,1.59H1.74a4.79,4.79,0,0,1,.83-2.75,5.45,5.45,0,0,1,2.31-1.9A7.71,7.71,0,0,1,8.16.5,7.34,7.34,0,0,1,13,2a5.07,5.07,0,0,1,1.76,4.09A4.1,4.1,0,0,1,14,8.56a5.32,5.32,0,0,1-2.15,1.73,5,5,0,0,1,2.47,1.78,4.83,4.83,0,0,1,.81,2.8,5.14,5.14,0,0,1-1.9,4.18,7.66,7.66,0,0,1-5,1.58,7.26,7.26,0,0,1-4.8-1.55A5.06,5.06,0,0,1,1.5,15H5.39a2.24,2.24,0,0,0,.82,1.8,3.06,3.06,0,0,0,2,.7,3.07,3.07,0,0,0,2.18-.73,2.55,2.55,0,0,0,.78-2c0-2-1.07-2.93-3.23-2.93H5.93Z"/><path class="cls-3" d="M4.93,8.84H7A2.94,2.94,0,0,0,9.19,8.1a2.68,2.68,0,0,0,.71-2,2.41,2.41,0,0,0-.7-1.85,2.74,2.74,0,0,0-1.95-.66,2.87,2.87,0,0,0-1.87.62,2,2,0,0,0-.75,1.59H.74a4.79,4.79,0,0,1,.83-2.75,5.45,5.45,0,0,1,2.31-1.9A7.71,7.71,0,0,1,7.16.5,7.34,7.34,0,0,1,12,2a5.07,5.07,0,0,1,1.76,4.09A4.1,4.1,0,0,1,13,8.56a5.32,5.32,0,0,1-2.15,1.73,5,5,0,0,1,2.47,1.78,4.83,4.83,0,0,1,.81,2.8,5.14,5.14,0,0,1-1.9,4.18,7.66,7.66,0,0,1-5,1.58,7.26,7.26,0,0,1-4.8-1.55A5.06,5.06,0,0,1,.5,15H4.39a2.24,2.24,0,0,0,.82,1.8,3.06,3.06,0,0,0,2,.7,3.07,3.07,0,0,0,2.18-.73,2.55,2.55,0,0,0,.78-2c0-2-1.07-2.93-3.23-2.93H4.93Z"/><path class="cls-4" d="M4.93,8.84H7A2.94,2.94,0,0,0,9.19,8.1a2.68,2.68,0,0,0,.71-2,2.41,2.41,0,0,0-.7-1.85,2.74,2.74,0,0,0-1.95-.66,2.87,2.87,0,0,0-1.87.62,2,2,0,0,0-.75,1.59H.74a4.79,4.79,0,0,1,.83-2.75,5.45,5.45,0,0,1,2.31-1.9A7.71,7.71,0,0,1,7.16.5,7.34,7.34,0,0,1,12,2a5.07,5.07,0,0,1,1.76,4.09A4.1,4.1,0,0,1,13,8.56a5.32,5.32,0,0,1-2.15,1.73,5,5,0,0,1,2.47,1.78,4.83,4.83,0,0,1,.81,2.8,5.14,5.14,0,0,1-1.9,4.18,7.66,7.66,0,0,1-5,1.58,7.26,7.26,0,0,1-4.8-1.55A5.06,5.06,0,0,1,.5,15H4.39a2.24,2.24,0,0,0,.82,1.8,3.06,3.06,0,0,0,2,.7,3.07,3.07,0,0,0,2.18-.73,2.55,2.55,0,0,0,.78-2c0-2-1.07-2.93-3.23-2.93H4.93Z"/><g class="cls-5"><rect class="cls-6" x="0.5" y="0.5" width="0.11" height="20.13"/><rect class="cls-7" x="0.61" y="0.5" width="0.11" height="20.13"/><rect class="cls-8" x="0.72" y="0.5" width="0.11" height="20.13"/><rect class="cls-9" x="0.83" y="0.5" width="0.11" height="20.13"/><rect class="cls-10" x="0.94" y="0.5" width="0.11" height="20.13"/><rect class="cls-11" x="1.05" y="0.5" width="0.11" height="20.13"/><rect class="cls-12" x="1.16" y="0.5" width="0.11" height="20.13"/><rect class="cls-13" x="1.27" y="0.5" width="0.11" height="20.13"/><rect class="cls-14" x="1.38" y="0.5" width="0.11" height="20.13"/><rect class="cls-15" x="1.49" y="0.5" width="0.11" height="20.13"/><rect class="cls-16" x="1.6" y="0.5" width="0.11" height="20.13"/><rect class="cls-17" x="1.71" y="0.5" width="0.11" height="20.13"/><rect class="cls-18" x="1.82" y="0.5" width="0.11" height="20.13"/><rect class="cls-19" x="1.93" y="0.5" width="0.11" height="20.13"/><rect class="cls-20" x="2.05" y="0.5" width="0.11" height="20.13"/><rect class="cls-21" x="2.16" y="0.5" width="0.11" height="20.13"/><rect class="cls-22" x="2.27" y="0.5" width="0.11" height="20.13"/><rect class="cls-23" x="2.38" y="0.5" width="0.11" height="20.13"/><rect class="cls-24" x="2.49" y="0.5" width="0.11" height="20.13"/><rect class="cls-25" x="2.6" y="0.5" width="0.11" height="20.13"/><rect class="cls-26" x="2.71" y="0.5" width="0.11" height="20.13"/><rect class="cls-27" x="2.82" y="0.5" width="0.11" height="20.13"/><rect class="cls-28" x="2.93" y="0.5" width="0.11" height="20.13"/><rect class="cls-29" x="3.04" y="0.5" width="0.11" height="20.13"/><rect class="cls-30" x="3.15" y="0.5" width="0.11" height="20.13"/><rect class="cls-31" x="3.26" y="0.5" width="0.11" height="20.13"/><rect class="cls-32" x="3.37" y="0.5" width="0.11" height="20.13"/><rect class="cls-33" x="3.48" y="0.5" width="0.11" height="20.13"/><rect class="cls-34" x="3.59" y="0.5" width="0.11" height="20.13"/><rect class="cls-35" x="3.7" y="0.5" width="0.11" height="20.13"/><rect class="cls-36" x="3.81" y="0.5" width="0.11" height="20.13"/><rect class="cls-37" x="3.92" y="0.5" width="0.11" height="20.13"/><rect class="cls-38" x="4.03" y="0.5" width="0.11" height="20.13"/><rect class="cls-39" x="4.14" y="0.5" width="0.11" height="20.13"/><rect class="cls-40" x="4.25" y="0.5" width="0.11" height="20.13"/><rect class="cls-41" x="4.36" y="0.5" width="0.11" height="20.13"/><rect class="cls-42" x="4.47" y="0.5" width="0.11" height="20.13"/><rect class="cls-43" x="4.58" y="0.5" width="0.11" height="20.13"/><rect class="cls-44" x="4.7" y="0.5" width="0.11" height="20.13"/><rect class="cls-45" x="4.81" y="0.5" width="0.11" height="20.13"/><rect class="cls-46" x="4.92" y="0.5" width="0.11" height="20.13"/><rect class="cls-47" x="5.03" y="0.5" width="0.11" height="20.13"/><rect class="cls-48" x="5.14" y="0.5" width="0.11" height="20.13"/><rect class="cls-49" x="5.25" y="0.5" width="0.11" height="20.13"/><rect class="cls-50" x="5.36" y="0.5" width="0.11" height="20.13"/><rect class="cls-51" x="5.47" y="0.5" width="0.11" height="20.13"/><rect class="cls-52" x="5.58" y="0.5" width="0.11" height="20.13"/><rect class="cls-53" x="5.69" y="0.5" width="0.11" height="20.13"/><rect class="cls-54" x="5.8" y="0.5" width="0.11" height="20.13"/><rect class="cls-55" x="5.91" y="0.5" width="0.11" height="20.13"/><rect class="cls-56" x="6.02" y="0.5" width="0.11" height="20.13"/><rect class="cls-57" x="6.13" y="0.5" width="0.11" height="20.13"/><rect class="cls-58" x="6.24" y="0.5" width="0.11" height="20.13"/><rect class="cls-59" x="6.35" y="0.5" width="0.11" height="20.13"/><rect class="cls-60" x="6.46" y="0.5" width="0.11" height="20.13"/><rect class="cls-61" x="6.57" y="0.5" width="0.11" height="20.13"/><rect class="cls-62" x="6.68" y="0.5" width="0.11" height="20.13"/><rect class="cls-63" x="6.79" y="0.5" width="0.11" height="20.13"/><rect class="cls-64" x="6.9" y="0.5" width="0.11" height="20.13"/><rect class="cls-65" x="7.01" y="0.5" width="0.11" height="20.13"/><rect class="cls-66" x="7.12" y="0.5" width="0.11" height="20.13"/><rect class="cls-67" x="7.23" y="0.5" width="0.11" height="20.13"/><rect class="cls-68" x="7.34" y="0.5" width="0.11" height="20.13"/><rect class="cls-69" x="7.46" y="0.5" width="0.11" height="20.13"/><rect class="cls-70" x="7.57" y="0.5" width="0.11" height="20.13"/><rect class="cls-71" x="7.68" y="0.5" width="0.11" height="20.13"/><rect class="cls-72" x="7.79" y="0.5" width="0.11" height="20.13"/><rect class="cls-73" x="7.9" y="0.5" width="0.11" height="20.13"/><rect class="cls-74" x="8.01" y="0.5" width="0.11" height="20.13"/><rect class="cls-75" x="8.12" y="0.5" width="0.11" height="20.13"/><rect class="cls-76" x="8.23" y="0.5" width="0.11" height="20.13"/><rect class="cls-77" x="8.34" y="0.5" width="0.11" height="20.13"/><rect class="cls-78" x="8.45" y="0.5" width="0.11" height="20.13"/><rect class="cls-79" x="8.56" y="0.5" width="0.11" height="20.13"/><rect class="cls-80" x="8.67" y="0.5" width="0.11" height="20.13"/><rect class="cls-81" x="8.78" y="0.5" width="0.11" height="20.13"/><rect class="cls-82" x="8.89" y="0.5" width="0.11" height="20.13"/><rect class="cls-83" x="9" y="0.5" width="0.11" height="20.13"/><rect class="cls-84" x="9.11" y="0.5" width="0.11" height="20.13"/><rect class="cls-85" x="9.22" y="0.5" width="0.11" height="20.13"/><rect class="cls-86" x="9.33" y="0.5" width="0.11" height="20.13"/><rect class="cls-87" x="9.44" y="0.5" width="0.11" height="20.13"/><rect class="cls-88" x="9.55" y="0.5" width="0.11" height="20.13"/><rect class="cls-89" x="9.66" y="0.5" width="0.11" height="20.13"/><rect class="cls-90" x="9.77" y="0.5" width="0.11" height="20.13"/><rect class="cls-91" x="9.88" y="0.5" width="0.11" height="20.13"/><rect class="cls-92" x="9.99" y="0.5" width="0.11" height="20.13"/><rect class="cls-93" x="10.1" y="0.5" width="0.11" height="20.13"/><rect class="cls-94" x="10.22" y="0.5" width="0.11" height="20.13"/><rect class="cls-95" x="10.33" y="0.5" width="0.11" height="20.13"/><rect class="cls-96" x="10.44" y="0.5" width="0.11" height="20.13"/><rect class="cls-97" x="10.55" y="0.5" width="0.11" height="20.13"/><rect class="cls-98" x="10.66" y="0.5" width="0.11" height="20.13"/><rect class="cls-99" x="10.77" y="0.5" width="0.11" height="20.13"/><rect class="cls-100" x="10.88" y="0.5" width="0.11" height="20.13"/><rect class="cls-101" x="10.99" y="0.5" width="0.11" height="20.13"/><rect class="cls-102" x="11.1" y="0.5" width="0.11" height="20.13"/><rect class="cls-103" x="11.21" y="0.5" width="0.11" height="20.13"/><rect class="cls-104" x="11.32" y="0.5" width="0.11" height="20.13"/><rect class="cls-105" x="11.43" y="0.5" width="0.11" height="20.13"/><rect class="cls-106" x="11.54" y="0.5" width="0.11" height="20.13"/><rect class="cls-107" x="11.65" y="0.5" width="0.11" height="20.13"/><rect class="cls-108" x="11.76" y="0.5" width="0.11" height="20.13"/><rect class="cls-109" x="11.87" y="0.5" width="0.11" height="20.13"/><rect class="cls-110" x="11.98" y="0.5" width="0.11" height="20.13"/><rect class="cls-111" x="12.09" y="0.5" width="0.11" height="20.13"/><rect class="cls-112" x="12.2" y="0.5" width="0.11" height="20.13"/><rect class="cls-113" x="12.31" y="0.5" width="0.11" height="20.13"/><rect class="cls-114" x="12.42" y="0.5" width="0.11" height="20.13"/><rect class="cls-115" x="12.53" y="0.5" width="0.11" height="20.13"/><rect class="cls-116" x="12.64" y="0.5" width="0.11" height="20.13"/><rect class="cls-117" x="12.75" y="0.5" width="0.11" height="20.13"/><rect class="cls-118" x="12.86" y="0.5" width="0.11" height="20.13"/><rect class="cls-119" x="12.98" y="0.5" width="0.11" height="20.13"/><rect class="cls-120" x="13.09" y="0.5" width="0.11" height="20.13"/><rect class="cls-121" x="13.2" y="0.5" width="0.11" height="20.13"/><rect class="cls-122" x="13.31" y="0.5" width="0.11" height="20.13"/><rect class="cls-123" x="13.42" y="0.5" width="0.11" height="20.13"/><rect class="cls-124" x="13.53" y="0.5" width="0.11" height="20.13"/><rect class="cls-125" x="13.64" y="0.5" width="0.11" height="20.13"/><rect class="cls-126" x="13.75" y="0.5" width="0.11" height="20.13"/><rect class="cls-127" x="13.86" y="0.5" width="0.11" height="20.13"/><rect class="cls-128" x="13.97" y="0.5" width="0.11" height="20.13"/><rect class="cls-129" x="14.08" y="0.5" width="0.02" height="20.13"/></g></g></g></svg>