<svg xmlns="http://www.w3.org/2000/svg" xmlns:xlink="http://www.w3.org/1999/xlink" viewBox="0 0 16.32 20.59"><defs><style>.cls-1,.cls-2,.cls-3{fill:none;}.cls-2{stroke:#29b2b8;}.cls-3{stroke:#1c3157;}.cls-4{fill:#bbf9f6;}.cls-5{clip-path:url(#clip-path);}.cls-6{fill:#51c6c9;}.cls-7{fill:#52c6ca;}.cls-8{fill:#53c7ca;}.cls-9{fill:#54c7ca;}.cls-10{fill:#55c8cb;}.cls-11{fill:#56c8cb;}.cls-12{fill:#57c9cc;}.cls-13{fill:#58c9cc;}.cls-14{fill:#59cacd;}.cls-15{fill:#5acacd;}.cls-16{fill:#5bcacd;}.cls-17{fill:#5ccbce;}.cls-18{fill:#5dcbce;}.cls-19{fill:#5ecccf;}.cls-20{fill:#5fcccf;}.cls-21{fill:#60cdd0;}.cls-22{fill:#61cdd0;}.cls-23{fill:#62ced0;}.cls-24{fill:#63ced1;}.cls-25{fill:#64cfd1;}.cls-26{fill:#65cfd2;}.cls-27{fill:#66d0d2;}.cls-28{fill:#67d0d3;}.cls-29{fill:#68d1d3;}.cls-30{fill:#69d1d3;}.cls-31{fill:#6ad2d4;}.cls-32{fill:#6bd2d4;}.cls-33{fill:#6cd3d5;}.cls-34{fill:#6dd3d5;}.cls-35{fill:#6ed4d6;}.cls-36{fill:#6fd4d6;}.cls-37{fill:#70d5d6;}.cls-38{fill:#71d5d7;}.cls-39{fill:#73d6d7;}.cls-40{fill:#74d6d8;}.cls-41{fill:#75d7d8;}.cls-42{fill:#76d7d8;}.cls-43{fill:#77d8d9;}.cls-44{fill:#30b5bb;}.cls-45{fill:#31b6bb;}.cls-46{fill:#32b6bc;}.cls-47{fill:#33b7bc;}.cls-48{fill:#34b7bd;}.cls-49{fill:#35b8bd;}.cls-50{fill:#36b8be;}.cls-51{fill:#37b9be;}.cls-52{fill:#38b9be;}.cls-53{fill:#39babf;}.cls-54{fill:#3ababf;}.cls-55{fill:#3bbbc0;}.cls-56{fill:#3cbbc0;}.cls-57{fill:#3dbcc1;}.cls-58{fill:#3ebcc1;}.cls-59{fill:#3fbdc1;}.cls-60{fill:#40bdc2;}.cls-61{fill:#41bec2;}.cls-62{fill:#42bec3;}.cls-63{fill:#43bfc3;}.cls-64{fill:#44bfc4;}.cls-65{fill:#45c0c4;}.cls-66{fill:#46c0c4;}.cls-67{fill:#47c1c5;}.cls-68{fill:#48c1c5;}.cls-69{fill:#49c2c6;}.cls-70{fill:#4ac2c6;}.cls-71{fill:#4bc3c7;}.cls-72{fill:#4cc3c7;}.cls-73{fill:#4dc4c7;}.cls-74{fill:#4ec4c8;}.cls-75{fill:#4fc5c8;}.cls-76{fill:#50c5c9;}.cls-77{fill:#78d8d9;}.cls-78{fill:#79d9da;}.cls-79{fill:#7ad9da;}.cls-80{fill:#7bdadb;}.cls-81{fill:#7cdadb;}.cls-82{fill:#7ddbdb;}.cls-83{fill:#7edbdc;}.cls-84{fill:#7fdcdc;}.cls-85{fill:#80dcdd;}.cls-86{fill:#81dddd;}.cls-87{fill:#82ddde;}.cls-88{fill:#83dede;}.cls-89{fill:#84dede;}.cls-90{fill:#85dfdf;}.cls-91{fill:#86dfdf;}.cls-92{fill:#87e0e0;}.cls-93{fill:#88e0e0;}.cls-94{fill:#89e1e1;}.cls-95{fill:#8ae1e1;}.cls-96{fill:#8be1e1;}.cls-97{fill:#8ce2e2;}.cls-98{fill:#8de2e2;}.cls-99{fill:#8ee3e3;}.cls-100{fill:#8fe3e3;}.cls-101{fill:#90e4e4;}.cls-102{fill:#91e4e4;}.cls-103{fill:#92e5e4;}.cls-104{fill:#93e5e5;}.cls-105{fill:#94e6e5;}.cls-106{fill:#95e6e6;}.cls-107{fill:#96e7e6;}.cls-108{fill:#97e7e7;}.cls-109{fill:#98e8e7;}.cls-110{fill:#99e8e7;}.cls-111{fill:#9ae9e8;}.cls-112{fill:#9be9e8;}.cls-113{fill:#9ceae9;}.cls-114{fill:#9deae9;}.cls-115{fill:#9eebea;}.cls-116{fill:#9febea;}.cls-117{fill:#a0ecea;}.cls-118{fill:#a1eceb;}.cls-119{fill:#a2edeb;}.cls-120{fill:#a3edec;}.cls-121{fill:#a4eeec;}.cls-122{fill:#a5eeed;}.cls-123{fill:#a6efed;}.cls-124{fill:#a7efed;}.cls-125{fill:#a8f0ee;}.cls-126{fill:#a9f0ee;}.cls-127{fill:#aaf1ef;}.cls-128{fill:#abf1ef;}.cls-129{fill:#acf2f0;}</style><clipPath id="clip-path"><path class="cls-1" d="M12.6,12.71h2.22v3.14H12.6v4.24H8.72V15.85h-8L.51,13.4,8.68.5H12.6Zm-8.22,0H8.72V5.8l-.26.44Z"/></clipPath></defs><g id="Layer_2" data-name="Layer 2"><g id="Layer_2-2" data-name="Layer 2"><path d="M12.6,12.71h2.22v3.14H12.6v4.24H8.72V15.85h-8L.51,13.4,8.68.5H12.6Zm-8.22,0H8.72V5.8l-.26.44Z"/><path class="cls-2" d="M13.6,12.71h2.22v3.14H13.6v4.24H9.72V15.85h-8L1.51,13.4,9.68.5H13.6Zm-8.22,0H9.72V5.8l-.26.44Z"/><path class="cls-3" d="M12.6,12.71h2.22v3.14H12.6v4.24H8.72V15.85h-8L.51,13.4,8.68.5H12.6Zm-8.22,0H8.72V5.8l-.26.44Z"/><path class="cls-4" d="M12.6,12.71h2.22v3.14H12.6v4.24H8.72V15.85h-8L.51,13.4,8.68.5H12.6Zm-8.22,0H8.72V5.8l-.26.44Z"/><g class="cls-5"><rect class="cls-6" x="4.38" y="5.8" width="0.08" height="6.91"/><rect class="cls-7" x="4.46" y="5.8" width="0.12" height="6.91"/><rect class="cls-8" x="4.58" y="5.8" width="0.12" height="6.91"/><rect class="cls-9" x="4.69" y="5.8" width="0.12" height="6.91"/><rect class="cls-10" x="4.81" y="5.8" width="0.12" height="6.91"/><rect class="cls-11" x="4.93" y="5.8" width="0.12" height="6.91"/><rect class="cls-12" x="5.04" y="5.8" width="0.12" height="6.91"/><rect class="cls-13" x="5.16" y="5.8" width="0.12" height="6.91"/><rect class="cls-14" x="5.27" y="5.8" width="0.12" height="6.91"/><rect class="cls-15" x="5.39" y="5.8" width="0.12" height="6.91"/><rect class="cls-16" x="5.51" y="5.8" width="0.12" height="6.91"/><rect class="cls-17" x="5.62" y="5.8" width="0.12" height="6.91"/><rect class="cls-18" x="5.74" y="5.8" width="0.12" height="6.91"/><rect class="cls-19" x="5.85" y="5.8" width="0.12" height="6.91"/><rect class="cls-20" x="5.97" y="5.8" width="0.12" height="6.91"/><rect class="cls-21" x="6.09" y="5.8" width="0.12" height="6.91"/><rect class="cls-22" x="6.2" y="5.8" width="0.12" height="6.91"/><rect class="cls-23" x="6.32" y="5.8" width="0.12" height="6.91"/><rect class="cls-24" x="6.44" y="5.8" width="0.12" height="6.91"/><rect class="cls-25" x="6.55" y="5.8" width="0.12" height="6.91"/><rect class="cls-26" x="6.67" y="5.8" width="0.12" height="6.91"/><rect class="cls-27" x="6.78" y="5.8" width="0.12" height="6.91"/><rect class="cls-28" x="6.9" y="5.8" width="0.12" height="6.91"/><rect class="cls-29" x="7.02" y="5.8" width="0.12" height="6.91"/><rect class="cls-30" x="7.13" y="5.8" width="0.12" height="6.91"/><rect class="cls-31" x="7.25" y="5.8" width="0.12" height="6.91"/><rect class="cls-32" x="7.37" y="5.8" width="0.12" height="6.91"/><rect class="cls-33" x="7.48" y="5.8" width="0.12" height="6.91"/><rect class="cls-34" x="7.6" y="5.8" width="0.12" height="6.91"/><rect class="cls-35" x="7.71" y="5.8" width="0.12" height="6.91"/><rect class="cls-36" x="7.83" y="5.8" width="0.12" height="6.91"/><rect class="cls-37" x="7.95" y="5.8" width="0.12" height="6.91"/><rect class="cls-38" x="8.06" y="5.8" width="0.12" height="6.91"/><rect class="cls-39" x="8.18" y="5.8" width="0.12" height="6.91"/><rect class="cls-40" x="8.29" y="5.8" width="0.12" height="6.91"/><rect class="cls-41" x="8.41" y="5.8" width="0.12" height="6.91"/><rect class="cls-42" x="8.53" y="5.8" width="0.12" height="6.91"/><rect class="cls-43" x="8.64" y="5.8" width="0.07" height="6.91"/><rect class="cls-44" x="0.51" y="0.5" width="0.12" height="19.59"/><rect class="cls-45" x="0.63" y="0.5" width="0.12" height="19.59"/><rect class="cls-46" x="0.74" y="0.5" width="0.12" height="19.59"/><rect class="cls-47" x="0.86" y="0.5" width="0.12" height="19.59"/><rect class="cls-48" x="0.97" y="0.5" width="0.12" height="19.59"/><rect class="cls-49" x="1.09" y="0.5" width="0.12" height="19.59"/><rect class="cls-50" x="1.21" y="0.5" width="0.12" height="19.59"/><rect class="cls-51" x="1.32" y="0.5" width="0.12" height="19.59"/><rect class="cls-52" x="1.44" y="0.5" width="0.12" height="19.59"/><rect class="cls-53" x="1.56" y="0.5" width="0.12" height="19.59"/><rect class="cls-54" x="1.67" y="0.5" width="0.12" height="19.59"/><rect class="cls-55" x="1.79" y="0.5" width="0.12" height="19.59"/><rect class="cls-56" x="1.9" y="0.5" width="0.12" height="19.59"/><rect class="cls-57" x="2.02" y="0.5" width="0.12" height="19.59"/><rect class="cls-58" x="2.14" y="0.5" width="0.12" height="19.59"/><rect class="cls-59" x="2.25" y="0.5" width="0.12" height="19.59"/><rect class="cls-60" x="2.37" y="0.5" width="0.12" height="19.59"/><rect class="cls-61" x="2.49" y="0.5" width="0.12" height="19.59"/><rect class="cls-62" x="2.6" y="0.5" width="0.12" height="19.59"/><rect class="cls-63" x="2.72" y="0.5" width="0.12" height="19.59"/><rect class="cls-64" x="2.83" y="0.5" width="0.12" height="19.59"/><rect class="cls-65" x="2.95" y="0.5" width="0.12" height="19.59"/><rect class="cls-66" x="3.07" y="0.5" width="0.12" height="19.59"/><rect class="cls-67" x="3.18" y="0.5" width="0.12" height="19.59"/><rect class="cls-68" x="3.3" y="0.5" width="0.12" height="19.59"/><rect class="cls-69" x="3.41" y="0.5" width="0.12" height="19.59"/><rect class="cls-70" x="3.53" y="0.5" width="0.12" height="19.59"/><rect class="cls-71" x="3.65" y="0.5" width="0.12" height="19.59"/><rect class="cls-72" x="3.76" y="0.5" width="0.12" height="19.59"/><rect class="cls-73" x="3.88" y="0.5" width="0.12" height="19.59"/><rect class="cls-74" x="4" y="0.5" width="0.12" height="19.59"/><rect class="cls-75" x="4.11" y="0.5" width="0.12" height="19.59"/><rect class="cls-76" x="4.23" y="0.5" width="0.12" height="19.59"/><rect class="cls-6" x="4.34" y="0.5" width="0.12" height="19.59"/><rect class="cls-7" x="4.46" y="0.5" width="0.12" height="19.59"/><rect class="cls-8" x="4.58" y="0.5" width="0.12" height="19.59"/><rect class="cls-9" x="4.69" y="0.5" width="0.12" height="19.59"/><rect class="cls-10" x="4.81" y="0.5" width="0.12" height="19.59"/><rect class="cls-11" x="4.93" y="0.5" width="0.12" height="19.59"/><rect class="cls-12" x="5.04" y="0.5" width="0.12" height="19.59"/><rect class="cls-13" x="5.16" y="0.5" width="0.12" height="19.59"/><rect class="cls-14" x="5.27" y="0.5" width="0.12" height="19.59"/><rect class="cls-15" x="5.39" y="0.5" width="0.12" height="19.59"/><rect class="cls-16" x="5.51" y="0.5" width="0.12" height="19.59"/><rect class="cls-17" x="5.62" y="0.5" width="0.12" height="19.59"/><rect class="cls-18" x="5.74" y="0.5" width="0.12" height="19.59"/><rect class="cls-19" x="5.85" y="0.5" width="0.12" height="19.59"/><rect class="cls-20" x="5.97" y="0.5" width="0.12" height="19.59"/><rect class="cls-21" x="6.09" y="0.5" width="0.12" height="19.59"/><rect class="cls-22" x="6.2" y="0.5" width="0.12" height="19.59"/><rect class="cls-23" x="6.32" y="0.5" width="0.12" height="19.59"/><rect class="cls-24" x="6.44" y="0.5" width="0.12" height="19.59"/><rect class="cls-25" x="6.55" y="0.5" width="0.12" height="19.59"/><rect class="cls-26" x="6.67" y="0.5" width="0.12" height="19.59"/><rect class="cls-27" x="6.78" y="0.5" width="0.12" height="19.59"/><rect class="cls-28" x="6.9" y="0.5" width="0.12" height="19.59"/><rect class="cls-29" x="7.02" y="0.5" width="0.12" height="19.59"/><rect class="cls-30" x="7.13" y="0.5" width="0.12" height="19.59"/><rect class="cls-31" x="7.25" y="0.5" width="0.12" height="19.59"/><rect class="cls-32" x="7.37" y="0.5" width="0.12" height="19.59"/><rect class="cls-33" x="7.48" y="0.5" width="0.12" height="19.59"/><rect class="cls-34" x="7.6" y="0.5" width="0.12" height="19.59"/><rect class="cls-35" x="7.71" y="0.5" width="0.12" height="19.59"/><rect class="cls-36" x="7.83" y="0.5" width="0.12" height="19.59"/><rect class="cls-37" x="7.95" y="0.5" width="0.12" height="19.59"/><rect class="cls-38" x="8.06" y="0.5" width="0.12" height="19.59"/><rect class="cls-39" x="8.18" y="0.5" width="0.12" height="19.59"/><rect class="cls-40" x="8.29" y="0.5" width="0.12" height="19.59"/><rect class="cls-41" x="8.41" y="0.5" width="0.12" height="19.59"/><rect class="cls-42" x="8.53" y="0.5" width="0.12" height="19.59"/><rect class="cls-43" x="8.64" y="0.5" width="0.12" height="19.59"/><rect class="cls-77" x="8.76" y="0.5" width="0.12" height="19.59"/><rect class="cls-78" x="8.88" y="0.5" width="0.12" height="19.59"/><rect class="cls-79" x="8.99" y="0.5" width="0.12" height="19.59"/><rect class="cls-80" x="9.11" y="0.5" width="0.12" height="19.59"/><rect class="cls-81" x="9.22" y="0.5" width="0.12" height="19.59"/><rect class="cls-82" x="9.34" y="0.5" width="0.12" height="19.59"/><rect class="cls-83" x="9.46" y="0.5" width="0.12" height="19.59"/><rect class="cls-84" x="9.57" y="0.5" width="0.12" height="19.59"/><rect class="cls-85" x="9.69" y="0.5" width="0.12" height="19.59"/><rect class="cls-86" x="9.81" y="0.5" width="0.12" height="19.59"/><rect class="cls-87" x="9.92" y="0.5" width="0.12" height="19.59"/><rect class="cls-88" x="10.04" y="0.5" width="0.12" height="19.59"/><rect class="cls-89" x="10.15" y="0.5" width="0.12" height="19.59"/><rect class="cls-90" x="10.27" y="0.5" width="0.12" height="19.59"/><rect class="cls-91" x="10.39" y="0.5" width="0.12" height="19.59"/><rect class="cls-92" x="10.5" y="0.5" width="0.12" height="19.59"/><rect class="cls-93" x="10.62" y="0.5" width="0.12" height="19.59"/><rect class="cls-94" x="10.73" y="0.5" width="0.12" height="19.59"/><rect class="cls-95" x="10.85" y="0.5" width="0.12" height="19.59"/><rect class="cls-96" x="10.97" y="0.5" width="0.12" height="19.59"/><rect class="cls-97" x="11.08" y="0.5" width="0.12" height="19.59"/><rect class="cls-98" x="11.2" y="0.5" width="0.12" height="19.59"/><rect class="cls-99" x="11.32" y="0.5" width="0.12" height="19.59"/><rect class="cls-100" x="11.43" y="0.5" width="0.12" height="19.59"/><rect class="cls-101" x="11.55" y="0.5" width="0.12" height="19.59"/><rect class="cls-102" x="11.66" y="0.5" width="0.12" height="19.59"/><rect class="cls-103" x="11.78" y="0.5" width="0.12" height="19.59"/><rect class="cls-104" x="11.9" y="0.5" width="0.12" height="19.59"/><rect class="cls-105" x="12.01" y="0.5" width="0.12" height="19.59"/><rect class="cls-106" x="12.13" y="0.5" width="0.12" height="19.59"/><rect class="cls-107" x="12.25" y="0.5" width="0.12" height="19.59"/><rect class="cls-108" x="12.36" y="0.5" width="0.12" height="19.59"/><rect class="cls-109" x="12.48" y="0.5" width="0.12" height="19.59"/><rect class="cls-110" x="12.59" y="0.5" width="0.12" height="19.59"/><rect class="cls-111" x="12.71" y="0.5" width="0.12" height="19.59"/><rect class="cls-112" x="12.83" y="0.5" width="0.12" height="19.59"/><rect class="cls-113" x="12.94" y="0.5" width="0.12" height="19.59"/><rect class="cls-114" x="13.06" y="0.5" width="0.12" height="19.59"/><rect class="cls-115" x="13.17" y="0.5" width="0.12" height="19.59"/><rect class="cls-116" x="13.29" y="0.5" width="0.12" height="19.59"/><rect class="cls-117" x="13.41" y="0.5" width="0.12" height="19.59"/><rect class="cls-118" x="13.52" y="0.5" width="0.12" height="19.59"/><rect class="cls-119" x="13.64" y="0.5" width="0.12" height="19.59"/><rect class="cls-120" x="13.76" y="0.5" width="0.12" height="19.59"/><rect class="cls-121" x="13.87" y="0.5" width="0.12" height="19.59"/><rect class="cls-122" x="13.99" y="0.5" width="0.12" height="19.59"/><rect class="cls-123" x="14.1" y="0.5" width="0.12" height="19.59"/><rect class="cls-124" x="14.22" y="0.5" width="0.12" height="19.59"/><rect class="cls-125" x="14.34" y="0.5" width="0.12" height="19.59"/><rect class="cls-126" x="14.45" y="0.5" width="0.12" height="19.59"/><rect class="cls-127" x="14.57" y="0.5" width="0.12" height="19.59"/><rect class="cls-128" x="14.69" y="0.5" width="0.12" height="19.59"/><rect class="cls-129" x="14.8" y="0.5" width="0.02" height="19.59"/></g></g></g></svg>