<svg xmlns="http://www.w3.org/2000/svg" xmlns:xlink="http://www.w3.org/1999/xlink" viewBox="0 0 15.27 20.86"><defs><style>.cls-1,.cls-2,.cls-3{fill:none;}.cls-2{stroke:#29b2b8;}.cls-3{stroke:#1c3157;}.cls-4{fill:#bbf9f6;}.cls-5{clip-path:url(#clip-path);}.cls-6{fill:#30b5bb;}.cls-7{fill:#31b6bb;}.cls-8{fill:#32b6bc;}.cls-9{fill:#33b7bc;}.cls-10{fill:#34b7bd;}.cls-11{fill:#35b8bd;}.cls-12{fill:#36b8be;}.cls-13{fill:#37b9be;}.cls-14{fill:#38b9be;}.cls-15{fill:#39babf;}.cls-16{fill:#3ababf;}.cls-17{fill:#3bbbc0;}.cls-18{fill:#3cbbc0;}.cls-19{fill:#3dbcc1;}.cls-20{fill:#3ebcc1;}.cls-21{fill:#3fbdc1;}.cls-22{fill:#40bdc2;}.cls-23{fill:#41bec2;}.cls-24{fill:#42bec3;}.cls-25{fill:#43bfc3;}.cls-26{fill:#44bfc4;}.cls-27{fill:#45c0c4;}.cls-28{fill:#46c0c4;}.cls-29{fill:#47c1c5;}.cls-30{fill:#48c1c5;}.cls-31{fill:#49c2c6;}.cls-32{fill:#4ac2c6;}.cls-33{fill:#4bc3c7;}.cls-34{fill:#4cc3c7;}.cls-35{fill:#4dc4c7;}.cls-36{fill:#4ec4c8;}.cls-37{fill:#4fc5c8;}.cls-38{fill:#50c5c9;}.cls-39{fill:#51c6c9;}.cls-40{fill:#52c6ca;}.cls-41{fill:#53c7ca;}.cls-42{fill:#54c7ca;}.cls-43{fill:#55c8cb;}.cls-44{fill:#56c8cb;}.cls-45{fill:#57c9cc;}.cls-46{fill:#58c9cc;}.cls-47{fill:#59cacd;}.cls-48{fill:#5acacd;}.cls-49{fill:#5bcacd;}.cls-50{fill:#5ccbce;}.cls-51{fill:#5dcbce;}.cls-52{fill:#5ecccf;}.cls-53{fill:#5fcccf;}.cls-54{fill:#60cdd0;}.cls-55{fill:#61cdd0;}.cls-56{fill:#62ced0;}.cls-57{fill:#63ced1;}.cls-58{fill:#64cfd1;}.cls-59{fill:#65cfd2;}.cls-60{fill:#66d0d2;}.cls-61{fill:#67d0d3;}.cls-62{fill:#68d1d3;}.cls-63{fill:#69d1d3;}.cls-64{fill:#6ad2d4;}.cls-65{fill:#6bd2d4;}.cls-66{fill:#6cd3d5;}.cls-67{fill:#6dd3d5;}.cls-68{fill:#6ed4d6;}.cls-69{fill:#6fd4d6;}.cls-70{fill:#70d5d6;}.cls-71{fill:#71d5d7;}.cls-72{fill:#73d6d7;}.cls-73{fill:#74d6d8;}.cls-74{fill:#75d7d8;}.cls-75{fill:#76d7d8;}.cls-76{fill:#77d8d9;}.cls-77{fill:#78d8d9;}.cls-78{fill:#79d9da;}.cls-79{fill:#7ad9da;}.cls-80{fill:#7bdadb;}.cls-81{fill:#7cdadb;}.cls-82{fill:#7ddbdb;}.cls-83{fill:#7edbdc;}.cls-84{fill:#7fdcdc;}.cls-85{fill:#80dcdd;}.cls-86{fill:#81dddd;}.cls-87{fill:#82ddde;}.cls-88{fill:#83dede;}.cls-89{fill:#84dede;}.cls-90{fill:#85dfdf;}.cls-91{fill:#86dfdf;}.cls-92{fill:#87e0e0;}.cls-93{fill:#88e0e0;}.cls-94{fill:#89e1e1;}.cls-95{fill:#8ae1e1;}.cls-96{fill:#8be1e1;}.cls-97{fill:#8ce2e2;}.cls-98{fill:#8de2e2;}.cls-99{fill:#8ee3e3;}.cls-100{fill:#8fe3e3;}.cls-101{fill:#90e4e4;}.cls-102{fill:#91e4e4;}.cls-103{fill:#92e5e4;}.cls-104{fill:#93e5e5;}.cls-105{fill:#94e6e5;}.cls-106{fill:#95e6e6;}.cls-107{fill:#96e7e6;}.cls-108{fill:#97e7e7;}.cls-109{fill:#98e8e7;}.cls-110{fill:#99e8e7;}.cls-111{fill:#9ae9e8;}.cls-112{fill:#9be9e8;}.cls-113{fill:#9ceae9;}.cls-114{fill:#9deae9;}.cls-115{fill:#9eebea;}.cls-116{fill:#9febea;}.cls-117{fill:#a0ecea;}.cls-118{fill:#a1eceb;}.cls-119{fill:#a2edeb;}.cls-120{fill:#a3edec;}.cls-121{fill:#a4eeec;}.cls-122{fill:#a5eeed;}.cls-123{fill:#a6efed;}.cls-124{fill:#a7efed;}.cls-125{fill:#a8f0ee;}.cls-126{fill:#a9f0ee;}.cls-127{fill:#aaf1ef;}.cls-128{fill:#abf1ef;}.cls-129{fill:#acf2f0;}</style><clipPath id="clip-path"><path class="cls-1" d="M1,10.46,2.14.5h11V3.74H5.33L4.85,8a6.17,6.17,0,0,1,2.94-.74A5.64,5.64,0,0,1,12.18,9a6.91,6.91,0,0,1,1.59,4.85,7.14,7.14,0,0,1-.8,3.4,5.67,5.67,0,0,1-2.3,2.33,7.16,7.16,0,0,1-3.52.83,7.62,7.62,0,0,1-3.3-.72,5.89,5.89,0,0,1-2.4-2,5.44,5.44,0,0,1-.93-3H4.36a2.89,2.89,0,0,0,.86,1.9,2.69,2.69,0,0,0,1.92.68,2.39,2.39,0,0,0,2-.95,4.41,4.41,0,0,0,.71-2.68A3.65,3.65,0,0,0,9.06,11a3,3,0,0,0-2.33-.88,3.37,3.37,0,0,0-2.24.72l-.38.35Z"/></clipPath></defs><g id="Layer_2" data-name="Layer 2"><g id="Layer_2-2" data-name="Layer 2"><path d="M1,10.46,2.14.5h11V3.74H5.33L4.85,8a6.17,6.17,0,0,1,2.94-.74A5.64,5.64,0,0,1,12.18,9a6.91,6.91,0,0,1,1.59,4.85,7.14,7.14,0,0,1-.8,3.4,5.67,5.67,0,0,1-2.3,2.33,7.16,7.16,0,0,1-3.52.83,7.62,7.62,0,0,1-3.3-.72,5.89,5.89,0,0,1-2.4-2,5.44,5.44,0,0,1-.93-3H4.36a2.89,2.89,0,0,0,.86,1.9,2.69,2.69,0,0,0,1.92.68,2.39,2.39,0,0,0,2-.95,4.41,4.41,0,0,0,.71-2.68A3.65,3.65,0,0,0,9.06,11a3,3,0,0,0-2.33-.88,3.37,3.37,0,0,0-2.24.72l-.38.35Z"/><path class="cls-2" d="M2,10.46,3.14.5h11V3.74H6.33L5.85,8a6.17,6.17,0,0,1,2.94-.74A5.64,5.64,0,0,1,13.18,9a6.91,6.91,0,0,1,1.59,4.85,7.14,7.14,0,0,1-.8,3.4,5.67,5.67,0,0,1-2.3,2.33,7.16,7.16,0,0,1-3.52.83,7.62,7.62,0,0,1-3.3-.72,5.89,5.89,0,0,1-2.4-2,5.44,5.44,0,0,1-.93-3H5.36a2.89,2.89,0,0,0,.86,1.9,2.69,2.69,0,0,0,1.92.68,2.39,2.39,0,0,0,2-.95,4.41,4.41,0,0,0,.71-2.68A3.65,3.65,0,0,0,10.06,11a3,3,0,0,0-2.33-.88,3.37,3.37,0,0,0-2.24.72l-.38.35Z"/><path class="cls-3" d="M1,10.46,2.14.5h11V3.74H5.33L4.85,8a6.17,6.17,0,0,1,2.94-.74A5.64,5.64,0,0,1,12.18,9a6.91,6.91,0,0,1,1.59,4.85,7.14,7.14,0,0,1-.8,3.4,5.67,5.67,0,0,1-2.3,2.33,7.16,7.16,0,0,1-3.52.83,7.62,7.62,0,0,1-3.3-.72,5.89,5.89,0,0,1-2.4-2,5.44,5.44,0,0,1-.93-3H4.36a2.89,2.89,0,0,0,.86,1.9,2.69,2.69,0,0,0,1.92.68,2.39,2.39,0,0,0,2-.95,4.41,4.41,0,0,0,.71-2.68A3.65,3.65,0,0,0,9.06,11a3,3,0,0,0-2.33-.88,3.37,3.37,0,0,0-2.24.72l-.38.35Z"/><path class="cls-4" d="M1,10.46,2.14.5h11V3.74H5.33L4.85,8a6.17,6.17,0,0,1,2.94-.74A5.64,5.64,0,0,1,12.18,9a6.91,6.91,0,0,1,1.59,4.85,7.14,7.14,0,0,1-.8,3.4,5.67,5.67,0,0,1-2.3,2.33,7.16,7.16,0,0,1-3.52.83,7.62,7.62,0,0,1-3.3-.72,5.89,5.89,0,0,1-2.4-2,5.44,5.44,0,0,1-.93-3H4.36a2.89,2.89,0,0,0,.86,1.9,2.69,2.69,0,0,0,1.92.68,2.39,2.39,0,0,0,2-.95,4.41,4.41,0,0,0,.71-2.68A3.65,3.65,0,0,0,9.06,11a3,3,0,0,0-2.33-.88,3.37,3.37,0,0,0-2.24.72l-.38.35Z"/><g class="cls-5"><rect class="cls-6" x="0.52" y="0.5" width="0.11" height="19.86"/><rect class="cls-7" x="0.62" y="0.5" width="0.11" height="19.86"/><rect class="cls-8" x="0.73" y="0.5" width="0.11" height="19.86"/><rect class="cls-9" x="0.84" y="0.5" width="0.11" height="19.86"/><rect class="cls-10" x="0.95" y="0.5" width="0.11" height="19.86"/><rect class="cls-11" x="1.05" y="0.5" width="0.11" height="19.86"/><rect class="cls-12" x="1.16" y="0.5" width="0.11" height="19.86"/><rect class="cls-13" x="1.27" y="0.5" width="0.11" height="19.86"/><rect class="cls-14" x="1.38" y="0.5" width="0.11" height="19.86"/><rect class="cls-15" x="1.48" y="0.5" width="0.11" height="19.86"/><rect class="cls-16" x="1.59" y="0.5" width="0.11" height="19.86"/><rect class="cls-17" x="1.7" y="0.5" width="0.11" height="19.86"/><rect class="cls-18" x="1.81" y="0.5" width="0.11" height="19.86"/><rect class="cls-19" x="1.91" y="0.5" width="0.11" height="19.86"/><rect class="cls-20" x="2.02" y="0.5" width="0.11" height="19.86"/><rect class="cls-21" x="2.13" y="0.5" width="0.11" height="19.86"/><rect class="cls-22" x="2.24" y="0.5" width="0.11" height="19.86"/><rect class="cls-23" x="2.34" y="0.5" width="0.11" height="19.86"/><rect class="cls-24" x="2.45" y="0.5" width="0.11" height="19.86"/><rect class="cls-25" x="2.56" y="0.5" width="0.11" height="19.86"/><rect class="cls-26" x="2.67" y="0.5" width="0.11" height="19.86"/><rect class="cls-27" x="2.78" y="0.5" width="0.11" height="19.86"/><rect class="cls-28" x="2.88" y="0.5" width="0.11" height="19.86"/><rect class="cls-29" x="2.99" y="0.5" width="0.11" height="19.86"/><rect class="cls-30" x="3.1" y="0.5" width="0.11" height="19.86"/><rect class="cls-31" x="3.21" y="0.5" width="0.11" height="19.86"/><rect class="cls-32" x="3.31" y="0.5" width="0.11" height="19.86"/><rect class="cls-33" x="3.42" y="0.5" width="0.11" height="19.86"/><rect class="cls-34" x="3.53" y="0.5" width="0.11" height="19.86"/><rect class="cls-35" x="3.64" y="0.5" width="0.11" height="19.86"/><rect class="cls-36" x="3.74" y="0.5" width="0.11" height="19.86"/><rect class="cls-37" x="3.85" y="0.5" width="0.11" height="19.86"/><rect class="cls-38" x="3.96" y="0.5" width="0.11" height="19.86"/><rect class="cls-39" x="4.07" y="0.5" width="0.11" height="19.86"/><rect class="cls-40" x="4.17" y="0.5" width="0.11" height="19.86"/><rect class="cls-41" x="4.28" y="0.5" width="0.11" height="19.86"/><rect class="cls-42" x="4.39" y="0.5" width="0.11" height="19.86"/><rect class="cls-43" x="4.5" y="0.5" width="0.11" height="19.86"/><rect class="cls-44" x="4.6" y="0.5" width="0.11" height="19.86"/><rect class="cls-45" x="4.71" y="0.5" width="0.11" height="19.86"/><rect class="cls-46" x="4.82" y="0.5" width="0.11" height="19.86"/><rect class="cls-47" x="4.93" y="0.5" width="0.11" height="19.86"/><rect class="cls-48" x="5.03" y="0.5" width="0.11" height="19.86"/><rect class="cls-49" x="5.14" y="0.5" width="0.11" height="19.86"/><rect class="cls-50" x="5.25" y="0.5" width="0.11" height="19.86"/><rect class="cls-51" x="5.36" y="0.5" width="0.11" height="19.86"/><rect class="cls-52" x="5.46" y="0.5" width="0.11" height="19.86"/><rect class="cls-53" x="5.57" y="0.5" width="0.11" height="19.86"/><rect class="cls-54" x="5.68" y="0.5" width="0.11" height="19.86"/><rect class="cls-55" x="5.79" y="0.5" width="0.11" height="19.86"/><rect class="cls-56" x="5.89" y="0.5" width="0.11" height="19.86"/><rect class="cls-57" x="6" y="0.5" width="0.11" height="19.86"/><rect class="cls-58" x="6.11" y="0.5" width="0.11" height="19.86"/><rect class="cls-59" x="6.22" y="0.5" width="0.11" height="19.86"/><rect class="cls-60" x="6.32" y="0.5" width="0.11" height="19.86"/><rect class="cls-61" x="6.43" y="0.5" width="0.11" height="19.86"/><rect class="cls-62" x="6.54" y="0.5" width="0.11" height="19.86"/><rect class="cls-63" x="6.65" y="0.5" width="0.11" height="19.86"/><rect class="cls-64" x="6.75" y="0.5" width="0.11" height="19.86"/><rect class="cls-65" x="6.86" y="0.5" width="0.11" height="19.86"/><rect class="cls-66" x="6.97" y="0.5" width="0.11" height="19.86"/><rect class="cls-67" x="7.08" y="0.5" width="0.11" height="19.86"/><rect class="cls-68" x="7.19" y="0.5" width="0.11" height="19.86"/><rect class="cls-69" x="7.29" y="0.5" width="0.11" height="19.86"/><rect class="cls-70" x="7.4" y="0.5" width="0.11" height="19.86"/><rect class="cls-71" x="7.51" y="0.5" width="0.11" height="19.86"/><rect class="cls-72" x="7.62" y="0.5" width="0.11" height="19.86"/><rect class="cls-73" x="7.72" y="0.5" width="0.11" height="19.86"/><rect class="cls-74" x="7.83" y="0.5" width="0.11" height="19.86"/><rect class="cls-75" x="7.94" y="0.5" width="0.11" height="19.86"/><rect class="cls-76" x="8.05" y="0.5" width="0.11" height="19.86"/><rect class="cls-77" x="8.15" y="0.5" width="0.11" height="19.86"/><rect class="cls-78" x="8.26" y="0.5" width="0.11" height="19.86"/><rect class="cls-79" x="8.37" y="0.5" width="0.11" height="19.86"/><rect class="cls-80" x="8.48" y="0.5" width="0.11" height="19.86"/><rect class="cls-81" x="8.58" y="0.5" width="0.11" height="19.86"/><rect class="cls-82" x="8.69" y="0.5" width="0.11" height="19.86"/><rect class="cls-83" x="8.8" y="0.5" width="0.11" height="19.86"/><rect class="cls-84" x="8.91" y="0.5" width="0.11" height="19.86"/><rect class="cls-85" x="9.01" y="0.5" width="0.11" height="19.86"/><rect class="cls-86" x="9.12" y="0.5" width="0.11" height="19.86"/><rect class="cls-87" x="9.23" y="0.5" width="0.11" height="19.86"/><rect class="cls-88" x="9.34" y="0.5" width="0.11" height="19.86"/><rect class="cls-89" x="9.44" y="0.5" width="0.11" height="19.86"/><rect class="cls-90" x="9.55" y="0.5" width="0.11" height="19.86"/><rect class="cls-91" x="9.66" y="0.5" width="0.11" height="19.86"/><rect class="cls-92" x="9.77" y="0.5" width="0.11" height="19.86"/><rect class="cls-93" x="9.87" y="0.5" width="0.11" height="19.86"/><rect class="cls-94" x="9.98" y="0.5" width="0.11" height="19.86"/><rect class="cls-95" x="10.09" y="0.5" width="0.11" height="19.86"/><rect class="cls-96" x="10.2" y="0.5" width="0.11" height="19.86"/><rect class="cls-97" x="10.3" y="0.5" width="0.11" height="19.86"/><rect class="cls-98" x="10.41" y="0.5" width="0.11" height="19.86"/><rect class="cls-99" x="10.52" y="0.5" width="0.11" height="19.86"/><rect class="cls-100" x="10.63" y="0.5" width="0.11" height="19.86"/><rect class="cls-101" x="10.73" y="0.5" width="0.11" height="19.86"/><rect class="cls-102" x="10.84" y="0.5" width="0.11" height="19.86"/><rect class="cls-103" x="10.95" y="0.5" width="0.11" height="19.86"/><rect class="cls-104" x="11.06" y="0.5" width="0.11" height="19.86"/><rect class="cls-105" x="11.17" y="0.5" width="0.11" height="19.86"/><rect class="cls-106" x="11.27" y="0.5" width="0.11" height="19.86"/><rect class="cls-107" x="11.38" y="0.5" width="0.11" height="19.86"/><rect class="cls-108" x="11.49" y="0.5" width="0.11" height="19.86"/><rect class="cls-109" x="11.6" y="0.5" width="0.11" height="19.86"/><rect class="cls-110" x="11.7" y="0.5" width="0.11" height="19.86"/><rect class="cls-111" x="11.81" y="0.5" width="0.11" height="19.86"/><rect class="cls-112" x="11.92" y="0.5" width="0.11" height="19.86"/><rect class="cls-113" x="12.03" y="0.5" width="0.11" height="19.86"/><rect class="cls-114" x="12.13" y="0.5" width="0.11" height="19.86"/><rect class="cls-115" x="12.24" y="0.5" width="0.11" height="19.86"/><rect class="cls-116" x="12.35" y="0.5" width="0.11" height="19.86"/><rect class="cls-117" x="12.46" y="0.5" width="0.11" height="19.86"/><rect class="cls-118" x="12.56" y="0.5" width="0.11" height="19.86"/><rect class="cls-119" x="12.67" y="0.5" width="0.11" height="19.86"/><rect class="cls-120" x="12.78" y="0.5" width="0.11" height="19.86"/><rect class="cls-121" x="12.89" y="0.5" width="0.11" height="19.86"/><rect class="cls-122" x="12.99" y="0.5" width="0.11" height="19.86"/><rect class="cls-123" x="13.1" y="0.5" width="0.11" height="19.86"/><rect class="cls-124" x="13.21" y="0.5" width="0.11" height="19.86"/><rect class="cls-125" x="13.32" y="0.5" width="0.11" height="19.86"/><rect class="cls-126" x="13.42" y="0.5" width="0.11" height="19.86"/><rect class="cls-127" x="13.53" y="0.5" width="0.11" height="19.86"/><rect class="cls-128" x="13.64" y="0.5" width="0.11" height="19.86"/><rect class="cls-129" x="13.75" y="0.5" width="0.02" height="19.86"/></g></g></g></svg>