<svg xmlns="http://www.w3.org/2000/svg" xmlns:xlink="http://www.w3.org/1999/xlink" viewBox="0 0 15.49 21.06"><defs><style>.cls-1,.cls-2,.cls-3{fill:none;}.cls-2{stroke:#29b2b8;}.cls-3{stroke:#1c3157;}.cls-4{fill:#bbf9f6;}.cls-5{clip-path:url(#clip-path);}.cls-6{fill:#53c7ca;}.cls-7{fill:#54c7ca;}.cls-8{fill:#55c8cb;}.cls-9{fill:#56c8cb;}.cls-10{fill:#57c9cc;}.cls-11{fill:#58c9cc;}.cls-12{fill:#59cacd;}.cls-13{fill:#5acacd;}.cls-14{fill:#5bcacd;}.cls-15{fill:#5ccbce;}.cls-16{fill:#5dcbce;}.cls-17{fill:#5ecccf;}.cls-18{fill:#5fcccf;}.cls-19{fill:#60cdd0;}.cls-20{fill:#61cdd0;}.cls-21{fill:#62ced0;}.cls-22{fill:#63ced1;}.cls-23{fill:#64cfd1;}.cls-24{fill:#65cfd2;}.cls-25{fill:#66d0d2;}.cls-26{fill:#67d0d3;}.cls-27{fill:#68d1d3;}.cls-28{fill:#69d1d3;}.cls-29{fill:#6ad2d4;}.cls-30{fill:#6bd2d4;}.cls-31{fill:#6cd3d5;}.cls-32{fill:#6dd3d5;}.cls-33{fill:#6ed4d6;}.cls-34{fill:#6fd4d6;}.cls-35{fill:#70d5d6;}.cls-36{fill:#71d5d7;}.cls-37{fill:#73d6d7;}.cls-38{fill:#74d6d8;}.cls-39{fill:#75d7d8;}.cls-40{fill:#76d7d8;}.cls-41{fill:#77d8d9;}.cls-42{fill:#78d8d9;}.cls-43{fill:#79d9da;}.cls-44{fill:#7ad9da;}.cls-45{fill:#7bdadb;}.cls-46{fill:#7cdadb;}.cls-47{fill:#7ddbdb;}.cls-48{fill:#7edbdc;}.cls-49{fill:#7fdcdc;}.cls-50{fill:#80dcdd;}.cls-51{fill:#81dddd;}.cls-52{fill:#82ddde;}.cls-53{fill:#83dede;}.cls-54{fill:#84dede;}.cls-55{fill:#85dfdf;}.cls-56{fill:#86dfdf;}.cls-57{fill:#87e0e0;}.cls-58{fill:#88e0e0;}.cls-59{fill:#30b5bb;}.cls-60{fill:#31b6bb;}.cls-61{fill:#32b6bc;}.cls-62{fill:#33b7bc;}.cls-63{fill:#34b7bd;}.cls-64{fill:#35b8bd;}.cls-65{fill:#36b8be;}.cls-66{fill:#37b9be;}.cls-67{fill:#38b9be;}.cls-68{fill:#39babf;}.cls-69{fill:#3ababf;}.cls-70{fill:#3bbbc0;}.cls-71{fill:#3cbbc0;}.cls-72{fill:#3dbcc1;}.cls-73{fill:#3ebcc1;}.cls-74{fill:#3fbdc1;}.cls-75{fill:#40bdc2;}.cls-76{fill:#41bec2;}.cls-77{fill:#42bec3;}.cls-78{fill:#43bfc3;}.cls-79{fill:#44bfc4;}.cls-80{fill:#45c0c4;}.cls-81{fill:#46c0c4;}.cls-82{fill:#47c1c5;}.cls-83{fill:#48c1c5;}.cls-84{fill:#49c2c6;}.cls-85{fill:#4ac2c6;}.cls-86{fill:#4bc3c7;}.cls-87{fill:#4cc3c7;}.cls-88{fill:#4dc4c7;}.cls-89{fill:#4ec4c8;}.cls-90{fill:#4fc5c8;}.cls-91{fill:#50c5c9;}.cls-92{fill:#51c6c9;}.cls-93{fill:#52c6ca;}.cls-94{fill:#89e1e1;}.cls-95{fill:#8ae1e1;}.cls-96{fill:#8be1e1;}.cls-97{fill:#8ce2e2;}.cls-98{fill:#8de2e2;}.cls-99{fill:#8ee3e3;}.cls-100{fill:#8fe3e3;}.cls-101{fill:#90e4e4;}.cls-102{fill:#91e4e4;}.cls-103{fill:#92e5e4;}.cls-104{fill:#93e5e5;}.cls-105{fill:#94e6e5;}.cls-106{fill:#95e6e6;}.cls-107{fill:#96e7e6;}.cls-108{fill:#97e7e7;}.cls-109{fill:#98e8e7;}.cls-110{fill:#99e8e7;}.cls-111{fill:#9ae9e8;}.cls-112{fill:#9be9e8;}.cls-113{fill:#9ceae9;}.cls-114{fill:#9deae9;}.cls-115{fill:#9eebea;}.cls-116{fill:#9febea;}.cls-117{fill:#a0ecea;}.cls-118{fill:#a1eceb;}.cls-119{fill:#a2edeb;}.cls-120{fill:#a3edec;}.cls-121{fill:#a4eeec;}.cls-122{fill:#a5eeed;}.cls-123{fill:#a6efed;}.cls-124{fill:#a7efed;}.cls-125{fill:#a8f0ee;}.cls-126{fill:#a9f0ee;}.cls-127{fill:#aaf1ef;}.cls-128{fill:#abf1ef;}.cls-129{fill:#acf2f0;}</style><clipPath id="clip-path"><path class="cls-1" d="M11,.5V3.7h-.37A6.68,6.68,0,0,0,6.41,5.07a5.63,5.63,0,0,0-1.93,3.7A5.33,5.33,0,0,1,8.42,7.19,5,5,0,0,1,12.49,9,7.34,7.34,0,0,1,14,13.83a7.22,7.22,0,0,1-.82,3.46,6.05,6.05,0,0,1-2.35,2.41,6.81,6.81,0,0,1-3.42.86,6.38,6.38,0,0,1-5-2.15A8.36,8.36,0,0,1,.5,12.66v-1.4A12.63,12.63,0,0,1,1.7,5.63,8.92,8.92,0,0,1,5.16,1.85,10.18,10.18,0,0,1,10.39.5ZM7.24,10.32a3.08,3.08,0,0,0-1.71.49,3,3,0,0,0-1.13,1.3v1.18a5.24,5.24,0,0,0,.77,3,2.47,2.47,0,0,0,2.15,1.09,2.46,2.46,0,0,0,2-1,4,4,0,0,0,.78-2.56,4,4,0,0,0-.78-2.58A2.55,2.55,0,0,0,7.24,10.32Z"/></clipPath></defs><g id="Layer_2" data-name="Layer 2"><g id="Layer_2-2" data-name="Layer 2"><path d="M11,.5V3.7h-.37A6.68,6.68,0,0,0,6.41,5.07a5.63,5.63,0,0,0-1.93,3.7A5.33,5.33,0,0,1,8.42,7.19,5,5,0,0,1,12.49,9,7.34,7.34,0,0,1,14,13.83a7.22,7.22,0,0,1-.82,3.46,6.05,6.05,0,0,1-2.35,2.41,6.81,6.81,0,0,1-3.42.86,6.38,6.38,0,0,1-5-2.15A8.36,8.36,0,0,1,.5,12.66v-1.4A12.63,12.63,0,0,1,1.7,5.63,8.92,8.92,0,0,1,5.16,1.85,10.18,10.18,0,0,1,10.39.5ZM7.24,10.32a3.08,3.08,0,0,0-1.71.49,3,3,0,0,0-1.13,1.3v1.18a5.24,5.24,0,0,0,.77,3,2.47,2.47,0,0,0,2.15,1.09,2.46,2.46,0,0,0,2-1,4,4,0,0,0,.78-2.56,4,4,0,0,0-.78-2.58A2.55,2.55,0,0,0,7.24,10.32Z"/><path class="cls-2" d="M12,.5V3.7h-.37A6.68,6.68,0,0,0,7.41,5.07a5.63,5.63,0,0,0-1.93,3.7A5.33,5.33,0,0,1,9.42,7.19,5,5,0,0,1,13.49,9,7.34,7.34,0,0,1,15,13.83a7.22,7.22,0,0,1-.82,3.46,6.05,6.05,0,0,1-2.35,2.41,6.81,6.81,0,0,1-3.42.86,6.38,6.38,0,0,1-5-2.15,8.36,8.36,0,0,1-1.9-5.75v-1.4A12.63,12.63,0,0,1,2.7,5.63,8.92,8.92,0,0,1,6.16,1.85,10.18,10.18,0,0,1,11.39.5ZM8.24,10.32a3.08,3.08,0,0,0-1.71.49,3,3,0,0,0-1.13,1.3v1.18a5.24,5.24,0,0,0,.77,3,2.47,2.47,0,0,0,2.15,1.09,2.46,2.46,0,0,0,2-1,4,4,0,0,0,.78-2.56,4,4,0,0,0-.78-2.58A2.55,2.55,0,0,0,8.24,10.32Z"/><path class="cls-3" d="M11,.5V3.7h-.37A6.68,6.68,0,0,0,6.41,5.07a5.63,5.63,0,0,0-1.93,3.7A5.33,5.33,0,0,1,8.42,7.19,5,5,0,0,1,12.49,9,7.34,7.34,0,0,1,14,13.83a7.22,7.22,0,0,1-.82,3.46,6.05,6.05,0,0,1-2.35,2.41,6.81,6.81,0,0,1-3.42.86,6.38,6.38,0,0,1-5-2.15A8.36,8.36,0,0,1,.5,12.66v-1.4A12.63,12.63,0,0,1,1.7,5.63,8.92,8.92,0,0,1,5.16,1.85,10.18,10.18,0,0,1,10.39.5ZM7.24,10.32a3.08,3.08,0,0,0-1.71.49,3,3,0,0,0-1.13,1.3v1.18a5.24,5.24,0,0,0,.77,3,2.47,2.47,0,0,0,2.15,1.09,2.46,2.46,0,0,0,2-1,4,4,0,0,0,.78-2.56,4,4,0,0,0-.78-2.58A2.55,2.55,0,0,0,7.24,10.32Z"/><path class="cls-4" d="M11,.5V3.7h-.37A6.68,6.68,0,0,0,6.41,5.07a5.63,5.63,0,0,0-1.93,3.7A5.33,5.33,0,0,1,8.42,7.19,5,5,0,0,1,12.49,9,7.34,7.34,0,0,1,14,13.83a7.22,7.22,0,0,1-.82,3.46,6.05,6.05,0,0,1-2.35,2.41,6.81,6.81,0,0,1-3.42.86,6.38,6.38,0,0,1-5-2.15A8.36,8.36,0,0,1,.5,12.66v-1.4A12.63,12.63,0,0,1,1.7,5.63,8.92,8.92,0,0,1,5.16,1.85,10.18,10.18,0,0,1,10.39.5ZM7.24,10.32a3.08,3.08,0,0,0-1.71.49,3,3,0,0,0-1.13,1.3v1.18a5.24,5.24,0,0,0,.77,3,2.47,2.47,0,0,0,2.15,1.09,2.46,2.46,0,0,0,2-1,4,4,0,0,0,.78-2.56,4,4,0,0,0-.78-2.58A2.55,2.55,0,0,0,7.24,10.32Z"/><g class="cls-5"><rect class="cls-6" x="4.4" y="10.32" width="0.04" height="7.1"/><rect class="cls-7" x="4.44" y="10.32" width="0.11" height="7.1"/><rect class="cls-8" x="4.55" y="10.32" width="0.11" height="7.1"/><rect class="cls-9" x="4.66" y="10.32" width="0.11" height="7.1"/><rect class="cls-10" x="4.77" y="10.32" width="0.11" height="7.1"/><rect class="cls-11" x="4.88" y="10.32" width="0.11" height="7.1"/><rect class="cls-12" x="4.99" y="10.32" width="0.11" height="7.1"/><rect class="cls-13" x="5.1" y="10.32" width="0.11" height="7.1"/><rect class="cls-14" x="5.21" y="10.32" width="0.11" height="7.1"/><rect class="cls-15" x="5.32" y="10.32" width="0.11" height="7.1"/><rect class="cls-16" x="5.43" y="10.32" width="0.11" height="7.1"/><rect class="cls-17" x="5.54" y="10.32" width="0.11" height="7.1"/><rect class="cls-18" x="5.65" y="10.32" width="0.11" height="7.1"/><rect class="cls-19" x="5.76" y="10.32" width="0.11" height="7.1"/><rect class="cls-20" x="5.87" y="10.32" width="0.11" height="7.1"/><rect class="cls-21" x="5.98" y="10.32" width="0.11" height="7.1"/><rect class="cls-22" x="6.09" y="10.32" width="0.11" height="7.1"/><rect class="cls-23" x="6.19" y="10.32" width="0.11" height="7.1"/><rect class="cls-24" x="6.3" y="10.32" width="0.11" height="7.1"/><rect class="cls-25" x="6.41" y="10.32" width="0.11" height="7.1"/><rect class="cls-26" x="6.52" y="10.32" width="0.11" height="7.1"/><rect class="cls-27" x="6.63" y="10.32" width="0.11" height="7.1"/><rect class="cls-28" x="6.74" y="10.32" width="0.11" height="7.1"/><rect class="cls-29" x="6.85" y="10.32" width="0.11" height="7.1"/><rect class="cls-30" x="6.96" y="10.32" width="0.11" height="7.1"/><rect class="cls-31" x="7.07" y="10.32" width="0.11" height="7.1"/><rect class="cls-32" x="7.18" y="10.32" width="0.11" height="7.1"/><rect class="cls-33" x="7.29" y="10.32" width="0.11" height="7.1"/><rect class="cls-34" x="7.4" y="10.32" width="0.11" height="7.1"/><rect class="cls-35" x="7.51" y="10.32" width="0.11" height="7.1"/><rect class="cls-36" x="7.62" y="10.32" width="0.11" height="7.1"/><rect class="cls-37" x="7.73" y="10.32" width="0.11" height="7.1"/><rect class="cls-38" x="7.84" y="10.32" width="0.11" height="7.1"/><rect class="cls-39" x="7.95" y="10.32" width="0.11" height="7.1"/><rect class="cls-40" x="8.06" y="10.32" width="0.11" height="7.1"/><rect class="cls-41" x="8.17" y="10.32" width="0.11" height="7.1"/><rect class="cls-42" x="8.28" y="10.32" width="0.11" height="7.1"/><rect class="cls-43" x="8.39" y="10.32" width="0.11" height="7.1"/><rect class="cls-44" x="8.49" y="10.32" width="0.11" height="7.1"/><rect class="cls-45" x="8.6" y="10.32" width="0.11" height="7.1"/><rect class="cls-46" x="8.71" y="10.32" width="0.11" height="7.1"/><rect class="cls-47" x="8.82" y="10.32" width="0.11" height="7.1"/><rect class="cls-48" x="8.93" y="10.32" width="0.11" height="7.1"/><rect class="cls-49" x="9.04" y="10.32" width="0.11" height="7.1"/><rect class="cls-50" x="9.15" y="10.32" width="0.11" height="7.1"/><rect class="cls-51" x="9.26" y="10.32" width="0.11" height="7.1"/><rect class="cls-52" x="9.37" y="10.32" width="0.11" height="7.1"/><rect class="cls-53" x="9.48" y="10.32" width="0.11" height="7.1"/><rect class="cls-54" x="9.59" y="10.32" width="0.11" height="7.1"/><rect class="cls-55" x="9.7" y="10.32" width="0.11" height="7.1"/><rect class="cls-56" x="9.81" y="10.32" width="0.11" height="7.1"/><rect class="cls-57" x="9.92" y="10.32" width="0.11" height="7.1"/><rect class="cls-58" x="10.03" y="10.32" width="0.09" height="7.1"/><rect class="cls-59" x="0.5" y="0.5" width="0.11" height="20.06"/><rect class="cls-60" x="0.61" y="0.5" width="0.11" height="20.06"/><rect class="cls-61" x="0.72" y="0.5" width="0.11" height="20.06"/><rect class="cls-62" x="0.83" y="0.5" width="0.11" height="20.06"/><rect class="cls-63" x="0.94" y="0.5" width="0.11" height="20.06"/><rect class="cls-64" x="1.05" y="0.5" width="0.11" height="20.06"/><rect class="cls-65" x="1.16" y="0.5" width="0.11" height="20.06"/><rect class="cls-66" x="1.27" y="0.5" width="0.11" height="20.06"/><rect class="cls-67" x="1.38" y="0.5" width="0.11" height="20.06"/><rect class="cls-68" x="1.49" y="0.5" width="0.11" height="20.06"/><rect class="cls-69" x="1.59" y="0.5" width="0.11" height="20.06"/><rect class="cls-70" x="1.7" y="0.5" width="0.11" height="20.06"/><rect class="cls-71" x="1.81" y="0.5" width="0.11" height="20.06"/><rect class="cls-72" x="1.92" y="0.5" width="0.11" height="20.06"/><rect class="cls-73" x="2.03" y="0.5" width="0.11" height="20.06"/><rect class="cls-74" x="2.14" y="0.5" width="0.11" height="20.06"/><rect class="cls-75" x="2.25" y="0.5" width="0.11" height="20.06"/><rect class="cls-76" x="2.36" y="0.5" width="0.11" height="20.06"/><rect class="cls-77" x="2.47" y="0.5" width="0.11" height="20.06"/><rect class="cls-78" x="2.58" y="0.5" width="0.11" height="20.06"/><rect class="cls-79" x="2.69" y="0.5" width="0.11" height="20.06"/><rect class="cls-80" x="2.8" y="0.5" width="0.11" height="20.06"/><rect class="cls-81" x="2.91" y="0.5" width="0.11" height="20.06"/><rect class="cls-82" x="3.02" y="0.5" width="0.11" height="20.06"/><rect class="cls-83" x="3.13" y="0.5" width="0.11" height="20.06"/><rect class="cls-84" x="3.24" y="0.5" width="0.11" height="20.06"/><rect class="cls-85" x="3.35" y="0.5" width="0.11" height="20.06"/><rect class="cls-86" x="3.46" y="0.5" width="0.11" height="20.06"/><rect class="cls-87" x="3.57" y="0.5" width="0.11" height="20.06"/><rect class="cls-88" x="3.68" y="0.5" width="0.11" height="20.06"/><rect class="cls-89" x="3.79" y="0.5" width="0.11" height="20.06"/><rect class="cls-90" x="3.89" y="0.5" width="0.11" height="20.06"/><rect class="cls-91" x="4" y="0.5" width="0.11" height="20.06"/><rect class="cls-92" x="4.11" y="0.5" width="0.11" height="20.06"/><rect class="cls-93" x="4.22" y="0.5" width="0.11" height="20.06"/><rect class="cls-6" x="4.33" y="0.5" width="0.11" height="20.06"/><rect class="cls-7" x="4.44" y="0.5" width="0.11" height="20.06"/><rect class="cls-8" x="4.55" y="0.5" width="0.11" height="20.06"/><rect class="cls-9" x="4.66" y="0.5" width="0.11" height="20.06"/><rect class="cls-10" x="4.77" y="0.5" width="0.11" height="20.06"/><rect class="cls-11" x="4.88" y="0.5" width="0.11" height="20.06"/><rect class="cls-12" x="4.99" y="0.5" width="0.11" height="20.06"/><rect class="cls-13" x="5.1" y="0.5" width="0.11" height="20.06"/><rect class="cls-14" x="5.21" y="0.5" width="0.11" height="20.06"/><rect class="cls-15" x="5.32" y="0.5" width="0.11" height="20.06"/><rect class="cls-16" x="5.43" y="0.5" width="0.11" height="20.06"/><rect class="cls-17" x="5.54" y="0.5" width="0.11" height="20.06"/><rect class="cls-18" x="5.65" y="0.5" width="0.11" height="20.06"/><rect class="cls-19" x="5.76" y="0.5" width="0.11" height="20.06"/><rect class="cls-20" x="5.87" y="0.5" width="0.11" height="20.06"/><rect class="cls-21" x="5.98" y="0.5" width="0.11" height="20.06"/><rect class="cls-22" x="6.09" y="0.5" width="0.11" height="20.06"/><rect class="cls-23" x="6.19" y="0.5" width="0.11" height="20.06"/><rect class="cls-24" x="6.3" y="0.5" width="0.11" height="20.06"/><rect class="cls-25" x="6.41" y="0.5" width="0.11" height="20.06"/><rect class="cls-26" x="6.52" y="0.5" width="0.11" height="20.06"/><rect class="cls-27" x="6.63" y="0.5" width="0.11" height="20.06"/><rect class="cls-28" x="6.74" y="0.5" width="0.11" height="20.06"/><rect class="cls-29" x="6.85" y="0.5" width="0.11" height="20.06"/><rect class="cls-30" x="6.96" y="0.5" width="0.11" height="20.06"/><rect class="cls-31" x="7.07" y="0.5" width="0.11" height="20.06"/><rect class="cls-32" x="7.18" y="0.5" width="0.11" height="20.06"/><rect class="cls-33" x="7.29" y="0.5" width="0.11" height="20.06"/><rect class="cls-34" x="7.4" y="0.5" width="0.11" height="20.06"/><rect class="cls-35" x="7.51" y="0.5" width="0.11" height="20.06"/><rect class="cls-36" x="7.62" y="0.5" width="0.11" height="20.06"/><rect class="cls-37" x="7.73" y="0.5" width="0.11" height="20.06"/><rect class="cls-38" x="7.84" y="0.5" width="0.11" height="20.06"/><rect class="cls-39" x="7.95" y="0.5" width="0.11" height="20.06"/><rect class="cls-40" x="8.06" y="0.5" width="0.11" height="20.06"/><rect class="cls-41" x="8.17" y="0.5" width="0.11" height="20.06"/><rect class="cls-42" x="8.28" y="0.5" width="0.11" height="20.06"/><rect class="cls-43" x="8.39" y="0.5" width="0.11" height="20.06"/><rect class="cls-44" x="8.49" y="0.5" width="0.11" height="20.06"/><rect class="cls-45" x="8.6" y="0.5" width="0.11" height="20.06"/><rect class="cls-46" x="8.71" y="0.5" width="0.11" height="20.06"/><rect class="cls-47" x="8.82" y="0.5" width="0.11" height="20.06"/><rect class="cls-48" x="8.93" y="0.5" width="0.11" height="20.06"/><rect class="cls-49" x="9.04" y="0.5" width="0.11" height="20.06"/><rect class="cls-50" x="9.15" y="0.5" width="0.11" height="20.06"/><rect class="cls-51" x="9.26" y="0.5" width="0.11" height="20.06"/><rect class="cls-52" x="9.37" y="0.5" width="0.11" height="20.06"/><rect class="cls-53" x="9.48" y="0.5" width="0.11" height="20.06"/><rect class="cls-54" x="9.59" y="0.5" width="0.11" height="20.06"/><rect class="cls-55" x="9.7" y="0.5" width="0.11" height="20.06"/><rect class="cls-56" x="9.81" y="0.5" width="0.11" height="20.06"/><rect class="cls-57" x="9.92" y="0.5" width="0.11" height="20.06"/><rect class="cls-58" x="10.03" y="0.5" width="0.11" height="20.06"/><rect class="cls-94" x="10.14" y="0.5" width="0.11" height="20.06"/><rect class="cls-95" x="10.25" y="0.5" width="0.11" height="20.06"/><rect class="cls-96" x="10.36" y="0.5" width="0.11" height="20.06"/><rect class="cls-97" x="10.47" y="0.5" width="0.11" height="20.06"/><rect class="cls-98" x="10.58" y="0.5" width="0.11" height="20.06"/><rect class="cls-99" x="10.69" y="0.5" width="0.11" height="20.06"/><rect class="cls-100" x="10.79" y="0.5" width="0.11" height="20.06"/><rect class="cls-101" x="10.9" y="0.5" width="0.11" height="20.06"/><rect class="cls-102" x="11.01" y="0.5" width="0.11" height="20.06"/><rect class="cls-103" x="11.12" y="0.5" width="0.11" height="20.06"/><rect class="cls-104" x="11.23" y="0.5" width="0.11" height="20.06"/><rect class="cls-105" x="11.34" y="0.5" width="0.11" height="20.06"/><rect class="cls-106" x="11.45" y="0.5" width="0.11" height="20.06"/><rect class="cls-107" x="11.56" y="0.5" width="0.11" height="20.06"/><rect class="cls-108" x="11.67" y="0.5" width="0.11" height="20.06"/><rect class="cls-109" x="11.78" y="0.5" width="0.11" height="20.06"/><rect class="cls-110" x="11.89" y="0.5" width="0.11" height="20.06"/><rect class="cls-111" x="12" y="0.5" width="0.11" height="20.06"/><rect class="cls-112" x="12.11" y="0.5" width="0.11" height="20.06"/><rect class="cls-113" x="12.22" y="0.5" width="0.11" height="20.06"/><rect class="cls-114" x="12.33" y="0.5" width="0.11" height="20.06"/><rect class="cls-115" x="12.44" y="0.5" width="0.11" height="20.06"/><rect class="cls-116" x="12.55" y="0.5" width="0.11" height="20.06"/><rect class="cls-117" x="12.66" y="0.5" width="0.11" height="20.06"/><rect class="cls-118" x="12.77" y="0.5" width="0.11" height="20.06"/><rect class="cls-119" x="12.88" y="0.5" width="0.11" height="20.06"/><rect class="cls-120" x="12.99" y="0.5" width="0.11" height="20.06"/><rect class="cls-121" x="13.09" y="0.5" width="0.11" height="20.06"/><rect class="cls-122" x="13.2" y="0.5" width="0.11" height="20.06"/><rect class="cls-123" x="13.31" y="0.5" width="0.11" height="20.06"/><rect class="cls-124" x="13.42" y="0.5" width="0.11" height="20.06"/><rect class="cls-125" x="13.53" y="0.5" width="0.11" height="20.06"/><rect class="cls-126" x="13.64" y="0.5" width="0.11" height="20.06"/><rect class="cls-127" x="13.75" y="0.5" width="0.11" height="20.06"/><rect class="cls-128" x="13.86" y="0.5" width="0.11" height="20.06"/><rect class="cls-129" x="13.97" y="0.5" width="0.02" height="20.06"/></g></g></g></svg>