<svg xmlns="http://www.w3.org/2000/svg" viewBox="0 0 57.42 51.31"><defs><style>.cls-1{fill:#fff;}.cls-2{fill:#9ac5ea;}.cls-3{fill:#bbf9f6;}.cls-4,.cls-5{fill:none;stroke-linecap:round;stroke-linejoin:round;}.cls-4{stroke:#1c3157;}.cls-5{stroke:#29b2b8;}.cls-6{fill:#1c3157;}</style></defs><g id="Layer_2" data-name="Layer 2"><g id="Layer_2-2" data-name="Layer 2"><path class="cls-1" d="M56.92,14.66V44.12a3.32,3.32,0,0,1-3.32,3.32h1.06v3.37H51.29V47.44H26.45v3.37H23.08V47.44h1.08a3.34,3.34,0,0,1-3.34-3.32V14.66a3.33,3.33,0,0,1,3.34-3.31h5.06V6.72A6.26,6.26,0,0,1,31.06,2.3L32.86.5H34.5V11.35H53.6A3.32,3.32,0,0,1,56.92,14.66Z"/><path class="cls-2" d="M45.51,29.38a6.66,6.66,0,0,1-2,4.74,7,7,0,0,1-1.16.92,6.78,6.78,0,0,1-2,.81,5.74,5.74,0,0,1-1.49.18,6.64,6.64,0,0,1-6.65-6.65,5.58,5.58,0,0,1,.18-1.49,6.64,6.64,0,0,1,6.47-5.14,6.54,6.54,0,0,1,3.48,1,6,6,0,0,1,1.15.92A6.56,6.56,0,0,1,45.51,29.38Z"/><rect class="cls-3" x="50.49" y="17.42" width="1.52" height="24.88"/><rect class="cls-3" x="20.82" y="17.09" width="4.87" height="25.21"/><path class="cls-3" d="M45.51,29.38a6.66,6.66,0,0,1-2,4.74,6.49,6.49,0,0,1-2-4.74,5.58,5.58,0,0,1,.18-1.49,6.67,6.67,0,0,1,1.82-3.23A6.56,6.56,0,0,1,45.51,29.38Z"/><path class="cls-3" d="M40.55,34.34a5.78,5.78,0,0,1-.18,1.51,5.74,5.74,0,0,1-1.49.18,6.64,6.64,0,0,1-6.65-6.65,5.58,5.58,0,0,1,.18-1.49,5.84,5.84,0,0,1,1.51-.18A6.63,6.63,0,0,1,40.55,34.34Z"/><path class="cls-3" d="M20.82,41.92v2.2a3.34,3.34,0,0,0,2.05,3.06v3.74h3.71V47.44H51.12v3.48h3.71V47.19a3.32,3.32,0,0,0,2.09-3.07v-2.2Z"/><rect class="cls-4" x="23.08" y="47.44" width="3.37" height="3.37"/><rect class="cls-4" x="51.29" y="47.44" width="3.37" height="3.37"/><path class="cls-4" d="M34.5.5V11.35H29.22V6.72A6.26,6.26,0,0,1,31.06,2.3L32.86.5Z"/><path class="cls-5" d="M56.92,14.66V44.12a3.32,3.32,0,0,1-3.32,3.32H24.16a3.34,3.34,0,0,1-3.34-3.32V14.66a3.33,3.33,0,0,1,3.34-3.31H53.6A3.32,3.32,0,0,1,56.92,14.66Z"/><rect class="cls-5" x="20.82" y="17.09" width="36.09" height="25.21"/><path class="cls-4" d="M47.82,29.39a8.95,8.95,0,1,1-9-8.95"/><path class="cls-4" d="M45.51,29.38a6.66,6.66,0,0,1-2,4.74,7,7,0,0,1-1.16.92,6.78,6.78,0,0,1-2,.81,5.74,5.74,0,0,1-1.49.18,6.64,6.64,0,0,1-6.65-6.65,5.58,5.58,0,0,1,.18-1.49,6.64,6.64,0,0,1,6.47-5.14,6.54,6.54,0,0,1,3.48,1,6,6,0,0,1,1.15.92A6.56,6.56,0,0,1,45.51,29.38Z"/><rect class="cls-6" x="24.24" y="13.38" width="4.09" height="1.94" rx="0.97"/><line class="cls-5" x1="32.06" y1="11.35" x2="32.06" y2="17.1"/><circle class="cls-6" cx="39.91" cy="14.36" r="1.29"/><circle class="cls-6" cx="43.51" cy="14.36" r="1.29"/><circle class="cls-6" cx="47.11" cy="14.36" r="1.29"/><circle class="cls-6" cx="50.72" cy="14.36" r="1.29"/><rect class="cls-5" x="30.95" y="42.3" width="15.24" height="5.14"/><path class="cls-3" d="M16.28,36.54l-2.09,10.9-.64,3.37H3.24L.5,36.54H4a2.24,2.24,0,0,1-1.73-.78,2.28,2.28,0,0,1-.61-1.57A2.33,2.33,0,0,1,4,31.87,2.34,2.34,0,1,1,4,27.2a2.33,2.33,0,1,1,0-4.65h9a2.33,2.33,0,1,1,0,4.65,2.34,2.34,0,1,1,0,4.67,2.34,2.34,0,1,1,0,4.67Z"/><polygon class="cls-1" points="16.28 36.54 13.54 50.81 3.24 50.81 0.5 36.54 16.28 36.54"/><polygon class="cls-3" points="14.19 47.44 13.54 50.81 3.24 50.81 0.5 36.54 3.96 36.54 5.96 47.44 14.19 47.44"/><path class="cls-1" d="M15.29,24.88a.31.31,0,0,1,0,.09,2.31,2.31,0,0,1-1.34.41H5a2.33,2.33,0,0,1-2.34-2.32.13.13,0,0,1,0-.09A2.26,2.26,0,0,1,4,22.55h9A2.33,2.33,0,0,1,15.29,24.88Z"/><path class="cls-1" d="M15.29,29.54a.31.31,0,0,1,0,.09,2.31,2.31,0,0,1-1.34.41H5a2.33,2.33,0,0,1-2.34-2.32.13.13,0,0,1,0-.09A2.26,2.26,0,0,1,4,27.21h9A2.33,2.33,0,0,1,15.29,29.54Z"/><path class="cls-1" d="M15.29,34.19a.25.25,0,0,1,0,.09,2.32,2.32,0,0,1-1.34.42H5a2.33,2.33,0,0,1-2.34-2.33.16.16,0,0,1,0-.09A2.26,2.26,0,0,1,4,31.87h9A2.33,2.33,0,0,1,15.29,34.19Z"/><path class="cls-5" d="M15.29,34.19A2.34,2.34,0,0,1,13,36.54H4a2.34,2.34,0,1,1,0-4.67h9A2.33,2.33,0,0,1,15.29,34.19Z"/><path class="cls-5" d="M15.29,29.55A2.33,2.33,0,0,1,13,31.87H4A2.34,2.34,0,1,1,4,27.2h9A2.34,2.34,0,0,1,15.29,29.55Z"/><path class="cls-5" d="M15.29,24.88a.31.31,0,0,1,0,.09A2.32,2.32,0,0,1,13,27.2H4a2.33,2.33,0,0,1-2.34-2.32,2.28,2.28,0,0,1,1-1.91A2.26,2.26,0,0,1,4,22.55h9A2.33,2.33,0,0,1,15.29,24.88Z"/><polygon class="cls-4" points="16.28 36.54 13.54 50.81 3.24 50.81 0.5 36.54 16.28 36.54"/><path class="cls-5" d="M11.25,39.06a2.86,2.86,0,1,1-5.71,0"/><path class="cls-4" d="M45.51,29.38a6.66,6.66,0,0,1-2,4.74,6.49,6.49,0,0,1-2-4.74,5.58,5.58,0,0,1,.18-1.49,6.67,6.67,0,0,1,1.82-3.23A6.56,6.56,0,0,1,45.51,29.38Z"/><path class="cls-4" d="M40.55,34.34a5.78,5.78,0,0,1-.18,1.51,5.74,5.74,0,0,1-1.49.18,6.64,6.64,0,0,1-6.65-6.65,5.58,5.58,0,0,1,.18-1.49,5.84,5.84,0,0,1,1.51-.18A6.63,6.63,0,0,1,40.55,34.34Z"/><path class="cls-1" d="M12.88,10.33a4.63,4.63,0,0,0,2.78,2.78.29.29,0,0,1,0,.55,4.63,4.63,0,0,0-2.78,2.78.29.29,0,0,1-.55,0,4.66,4.66,0,0,0-2.78-2.78.29.29,0,0,1,0-.55,4.66,4.66,0,0,0,2.78-2.78A.29.29,0,0,1,12.88,10.33Z"/><path class="cls-1" d="M3.68,14.67a4.18,4.18,0,0,0,2.5,2.5.26.26,0,0,1,0,.5,4.18,4.18,0,0,0-2.5,2.5.26.26,0,0,1-.5,0,4.18,4.18,0,0,0-2.5-2.5.26.26,0,0,1,0-.5,4.18,4.18,0,0,0,2.5-2.5A.26.26,0,0,1,3.68,14.67Z"/><path class="cls-5" d="M12.88,10.33a4.63,4.63,0,0,0,2.78,2.78.29.29,0,0,1,0,.55,4.63,4.63,0,0,0-2.78,2.78.29.29,0,0,1-.55,0,4.66,4.66,0,0,0-2.78-2.78.29.29,0,0,1,0-.55,4.66,4.66,0,0,0,2.78-2.78A.29.29,0,0,1,12.88,10.33Z"/><path class="cls-4" d="M3.68,14.67a4.18,4.18,0,0,0,2.5,2.5.26.26,0,0,1,0,.5,4.18,4.18,0,0,0-2.5,2.5.26.26,0,0,1-.5,0,4.18,4.18,0,0,0-2.5-2.5.26.26,0,0,1,0-.5,4.18,4.18,0,0,0,2.5-2.5A.26.26,0,0,1,3.68,14.67Z"/></g></g></svg>