<svg xmlns="http://www.w3.org/2000/svg" viewBox="0 0 60.98 69.91"><defs><style>.cls-1{fill:#fff;}.cls-2{fill:#bbf9f6;}.cls-3,.cls-5{fill:none;stroke-linecap:round;stroke-linejoin:round;}.cls-3{stroke:#1c3157;}.cls-4{fill:#1c3157;}.cls-5{stroke:#29b2b8;}.cls-6{fill:#29b2b8;}</style></defs><g id="Layer_2" data-name="Layer 2"><g id="Layer_2-2" data-name="Layer 2"><polygon class="cls-1" points="8.54 36.52 10.93 36.52 10.93 37.91 12.61 37.91 12.61 36.52 15.01 36.52 15.01 37.91 16.7 37.91 16.7 36.52 19.09 36.52 19.09 37.91 20.79 37.91 20.79 36.52 23.18 36.52 23.18 39.39 8.54 39.39 8.54 36.52"/><path class="cls-1" d="M22.84,26v8.84a1.34,1.34,0,0,1-1.35,1.35H9.87a1.34,1.34,0,0,1-1.33-1.35V26a1.35,1.35,0,0,1,1.33-1.36H21.49A1.35,1.35,0,0,1,22.84,26Z"/><path class="cls-2" d="M22.84,32.79v2.09a1.34,1.34,0,0,1-1.35,1.35H9.87a1.34,1.34,0,0,1-1.33-1.35V26a1.35,1.35,0,0,1,1.33-1.36H12v8.11Z"/><polygon class="cls-1" points="28.29 11.55 2.84 11.55 7.06 7.4 7.06 0.5 24.07 0.5 24.07 7.4 28.29 11.55"/><polygon class="cls-2" points="10.93 0.5 10.93 7.4 6.79 11.55 2.84 11.55 7.06 7.4 7.06 0.5 10.93 0.5"/><rect class="cls-1" x="0.5" y="39.42" width="59.98" height="29.98"/><rect class="cls-2" x="30.48" y="39.42" width="5.28" height="29.98"/><rect class="cls-2" x="0.5" y="39.42" width="5.28" height="29.98"/><rect class="cls-1" x="31.29" y="0.5" width="29.19" height="17.26"/><rect class="cls-2" x="31.29" y="0.5" width="4.52" height="17.26"/><rect class="cls-2" x="46.05" y="0.5" width="4.52" height="17.26"/><path class="cls-3" d="M57,39.38v-11a3.23,3.23,0,0,0-3.22-3.23h0a3.23,3.23,0,0,0-3.23,3.23v.73"/><rect class="cls-4" x="3.44" y="48.64" width="24.1" height="15.1"/><rect class="cls-5" x="0.5" y="39.42" width="29.98" height="29.98"/><rect class="cls-5" x="7.95" y="44.14" width="15.1" height="24.1" transform="translate(71.69 40.7) rotate(90)"/><rect class="cls-5" x="30.48" y="39.42" width="30" height="29.98"/><circle class="cls-4" cx="3.67" cy="41.85" r="1.02"/><circle class="cls-4" cx="7.7" cy="41.85" r="1.02"/><circle class="cls-4" cx="22.84" cy="41.85" r="1.02"/><circle class="cls-4" cx="26.88" cy="41.85" r="1.02"/><rect class="cls-4" x="10.95" y="40.83" width="9.34" height="2.04" rx="0.79"/><rect class="cls-6" x="8.54" y="37.91" width="14.65" height="1.48"/><rect class="cls-6" x="8.54" y="36.52" width="2.4" height="1.39"/><rect class="cls-6" x="12.61" y="36.52" width="2.4" height="1.39"/><rect class="cls-6" x="16.7" y="36.52" width="2.4" height="1.39"/><rect class="cls-6" x="20.79" y="36.52" width="2.4" height="1.39"/><path class="cls-3" d="M22.84,26v8.84a1.34,1.34,0,0,1-1.35,1.35H9.87a1.34,1.34,0,0,1-1.33-1.35V26a1.35,1.35,0,0,1,1.33-1.36H21.49A1.35,1.35,0,0,1,22.84,26Z"/><line class="cls-3" x1="22.84" y1="27.33" x2="26.44" y2="27.33"/><line class="cls-3" x1="4.94" y1="27.33" x2="8.53" y2="27.33"/><path class="cls-5" d="M12,15.91a2.27,2.27,0,0,0,0,3.18h0a2.28,2.28,0,0,1,0,3.19"/><path class="cls-5" d="M15,15.91a2.26,2.26,0,0,0,0,3.18h0a2.28,2.28,0,0,1,0,3.19"/><path class="cls-5" d="M18.06,15.91a2.26,2.26,0,0,0,0,3.18h0a2.28,2.28,0,0,1,0,3.19"/><polyline class="cls-5" points="60.48 44.4 30.49 44.4 0.5 44.4"/><line class="cls-5" x1="45.49" y1="44.4" x2="45.49" y2="69.41"/><line class="cls-3" x1="42.56" y1="54.59" x2="42.56" y2="58.9"/><line class="cls-3" x1="48.41" y1="54.59" x2="48.41" y2="58.9"/><line class="cls-3" x1="47.64" y1="41.92" x2="43.33" y2="41.92"/><rect class="cls-5" x="7.06" y="0.5" width="17.01" height="6.9"/><polygon class="cls-5" points="28.29 11.55 2.84 11.55 7.06 7.4 24.07 7.4 28.29 11.55"/><line class="cls-3" x1="57.03" y1="35.2" x2="54.48" y2="35.2"/><rect class="cls-3" x="31.29" y="0.5" width="29.19" height="17.26"/><line class="cls-3" x1="45.88" y1="0.5" x2="45.88" y2="17.77"/><line class="cls-3" x1="42.96" y1="6.52" x2="42.96" y2="10.84"/><line class="cls-3" x1="48.81" y1="6.52" x2="48.81" y2="10.84"/></g></g></svg>