<svg xmlns="http://www.w3.org/2000/svg" viewBox="0 0 72.21 71.81"><defs><style>.cls-1{fill:#bbf9f6;}.cls-2,.cls-5{fill:none;}.cls-2,.cls-3,.cls-5{stroke:#1c3157;}.cls-2{stroke-linecap:round;stroke-linejoin:round;}.cls-3{fill:#fff;}.cls-3,.cls-5{stroke-miterlimit:10;}.cls-4{fill:#29b2b8;}</style></defs><g id="Layer_2" data-name="Layer 2"><g id="Layer_2-2" data-name="Layer 2"><polygon class="cls-1" points="14.14 22.42 20.5 16 20.5 8.92 14.14 8.92 14.14 22.42"/><polyline class="cls-2" points="20.5 16 20.5 15.98 20.5 8.92 14.14 8.92 14.14 22.42 14.14 22.43"/><polygon class="cls-1" points="0.5 36.53 71.71 36.53 36.11 0.5 0.5 36.53"/><polyline class="cls-2" points="71.71 36.53 58.7 23.37 52.35 16.95 52.35 16.94 36.11 0.5 5.55 31.41 0.5 36.53"/><polygon class="cls-3" points="66.7 36.49 61.58 36.49 61.58 45.42 10 45.42 10 36.49 4.88 36.49 4.88 36.49 35.8 5.22 66.7 36.49"/><polyline class="cls-4" points="22.18 45.42 61.58 45.42 61.58 41.95 10 41.95 10 45.42 22.18 45.42"/><polyline class="cls-5" points="22.18 45.42 61.58 45.42 61.58 41.95 10 41.95 10 45.42 22.18 45.42"/><path class="cls-4" d="M43.39,24.89V37.14H28.19V24.89a7.6,7.6,0,0,1,12.56-5.75l.41.37A7.58,7.58,0,0,1,43.39,24.89Z"/><path class="cls-1" d="M40.75,19.14H37.24a6.63,6.63,0,0,0-6.64,6.62V36.82H28.19V24.89a7.6,7.6,0,0,1,12.56-5.75Z"/><line class="cls-2" x1="26.11" y1="37.15" x2="45.47" y2="37.15"/><path class="cls-2" d="M43.39,24.89V37.14H28.19V24.89a7.6,7.6,0,0,1,12.56-5.75l.41.37A7.58,7.58,0,0,1,43.39,24.89Z"/><line class="cls-2" x1="35.79" y1="17.29" x2="35.79" y2="37.15"/><line class="cls-2" x1="28.19" y1="27.22" x2="43.38" y2="27.22"/><line class="cls-2" x1="10" y1="71.31" x2="61.58" y2="71.31"/><rect class="cls-2" x="46.2" y="45.42" width="9.12" height="25.89"/><line class="cls-2" x1="46.2" y1="49.92" x2="55.31" y2="49.92"/><line class="cls-2" x1="46.2" y1="55.18" x2="55.31" y2="55.18"/><line class="cls-2" x1="46.2" y1="60.44" x2="55.31" y2="60.44"/><line class="cls-2" x1="46.2" y1="65.7" x2="55.31" y2="65.7"/></g></g></svg>