<svg xmlns="http://www.w3.org/2000/svg" viewBox="0 0 98.46 47.85"><defs><style>.cls-1{fill:#fff;}.cls-2{fill:#bbf9f6;}.cls-3{fill:#1c3157;}.cls-4,.cls-6{fill:none;stroke-linecap:round;stroke-linejoin:round;}.cls-4{stroke:#1c3157;}.cls-5{fill:#29b2b8;}.cls-6{stroke:#29b2b8;}</style></defs><g id="Layer_2" data-name="Layer 2"><g id="Layer_2-2" data-name="Layer 2"><polygon class="cls-1" points="25.84 12.63 13.02 12.63 13.7 8.35 14.3 4.61 14.95 0.5 23.91 0.5 24.57 4.61 25.16 8.35 25.84 12.63"/><polygon class="cls-2" points="17.62 0.5 15.9 12.63 13.02 12.63 13.7 8.35 14.3 4.61 14.95 0.5 17.62 0.5"/><polygon class="cls-3" points="25.16 8.35 13.7 8.35 14.3 4.61 24.57 4.61 25.16 8.35"/><polygon class="cls-1" points="28.85 21.04 28.85 47.34 24.84 47.34 24.84 43.33 14.04 43.33 14.04 47.34 10.02 47.34 10.02 21.04 28.85 21.04"/><rect class="cls-2" x="10.02" y="21.04" width="4.01" height="26.31"/><path class="cls-2" d="M88.44,16.76V47.34h-4v-4h-49v4h-4V16.76A3.6,3.6,0,0,1,35,13.15h2.22A13.87,13.87,0,0,0,47.76,8.44a16.06,16.06,0,0,1,24.3,0A13.87,13.87,0,0,0,82.6,13.15h2.22A3.61,3.61,0,0,1,88.44,16.76Z"/><path class="cls-1" d="M88.44,19.8V47.34h-4v-4h-49v4h-4V19.8A3.6,3.6,0,0,1,35,16.18h2.22a13.87,13.87,0,0,0,10.54-4.71,16.06,16.06,0,0,1,24.3,0A13.87,13.87,0,0,0,82.6,16.18h2.22A3.61,3.61,0,0,1,88.44,19.8Z"/><path class="cls-2" d="M88.44,31.13v2.12h-57A6.34,6.34,0,0,1,36.77,27a1.09,1.09,0,0,1,.47.21,7.58,7.58,0,0,0-1.57,3.95Z"/><path class="cls-2" d="M57.44,24v.49A2.42,2.42,0,0,1,55,26.89H42.86a2.42,2.42,0,0,1-2.42-2.42V18.71a2.41,2.41,0,0,1,2.42-2.41h.76v6.57A1.11,1.11,0,0,0,44.73,24Z"/><path class="cls-2" d="M79.38,24v.49A2.43,2.43,0,0,1,77,26.89H64.8a2.43,2.43,0,0,1-2.43-2.42V18.71A2.42,2.42,0,0,1,64.8,16.3h.53v6.21A1.47,1.47,0,0,0,66.8,24Z"/><rect class="cls-2" x="84.43" y="43.33" width="4.01" height="4.01"/><rect class="cls-2" x="31.39" y="43.33" width="4.01" height="4.01"/><rect class="cls-2" x="31.39" y="33.11" width="57.06" height="3.43"/><line class="cls-4" x1="0.5" y1="47.35" x2="97.96" y2="47.35"/><line class="cls-4" x1="19.44" y1="12.63" x2="19.44" y2="21.03"/><rect class="cls-4" x="10.02" y="21.04" width="18.83" height="22.29"/><line class="cls-4" x1="10.02" y1="28.9" x2="28.85" y2="28.9"/><line class="cls-4" x1="10.02" y1="36.17" x2="28.85" y2="36.17"/><rect class="cls-4" x="10.02" y="43.33" width="4.01" height="4.01"/><rect class="cls-4" x="24.84" y="43.33" width="4.01" height="4.01"/><circle class="cls-5" cx="19.44" cy="24.92" r="0.94"/><circle class="cls-5" cx="19.44" cy="32.53" r="0.94"/><circle class="cls-5" cx="19.44" cy="40.15" r="0.94"/><polygon class="cls-6" points="25.84 12.63 13.02 12.63 13.7 8.35 14.3 4.61 14.95 0.5 23.91 0.5 24.57 4.61 25.16 8.35 25.84 12.63"/><path class="cls-6" d="M88.44,33.25h-57A6.34,6.34,0,0,1,36.77,27a5.33,5.33,0,0,1,1-.08H82.07a6.35,6.35,0,0,1,6,4.24A6.26,6.26,0,0,1,88.44,33.25Z"/><rect class="cls-4" x="31.39" y="33.25" width="57.05" height="10.08"/><rect class="cls-4" x="31.39" y="43.33" width="4.01" height="4.01"/><rect class="cls-4" x="84.43" y="43.33" width="4.01" height="4.01"/><path class="cls-6" d="M57.44,18.71v5.76A2.41,2.41,0,0,1,55,26.89H42.86a2.42,2.42,0,0,1-2.42-2.42V18.71a2.41,2.41,0,0,1,2.42-2.41H55A2.4,2.4,0,0,1,57.44,18.71Z"/><path class="cls-6" d="M79.38,18.71v5.76A2.42,2.42,0,0,1,77,26.89H64.8a2.43,2.43,0,0,1-2.43-2.42V18.71A2.42,2.42,0,0,1,64.8,16.3H77A2.41,2.41,0,0,1,79.38,18.71Z"/><path class="cls-4" d="M88.44,16.76V43.33h-57V16.76A3.6,3.6,0,0,1,35,13.15h2.22A13.87,13.87,0,0,0,47.76,8.44a16.06,16.06,0,0,1,24.3,0A13.87,13.87,0,0,0,82.6,13.15h2.22A3.61,3.61,0,0,1,88.44,16.76Z"/></g></g></svg>