<svg xmlns="http://www.w3.org/2000/svg" viewBox="0 0 65.8 69.5"><defs><style>.cls-1,.cls-4{fill:#fff;}.cls-2{fill:#bbf9f6;}.cls-3{fill:none;}.cls-3,.cls-4{stroke:#1c3157;stroke-linecap:round;stroke-linejoin:round;stroke-width:1.09px;}.cls-5{fill:#29b2b8;}.cls-6{font-size:24.33px;fill:#1c3157;font-family:Roboto-Bold, Roboto;font-weight:700;}</style></defs><g id="Layer_2" data-name="Layer 2"><g id="Layer_2-2" data-name="Layer 2"><polygon class="cls-1" points="53.91 27.54 49.49 27.54 49.49 35.25 4.96 35.25 4.96 27.54 0.54 27.54 27.23 0.55 29.43 2.78 53.91 27.54"/><polygon class="cls-2" points="29.43 2.78 4.96 27.54 0.54 27.54 27.23 0.55 29.43 2.78"/><polyline class="cls-3" points="4.96 35.24 4.96 27.54 0.54 27.54 0.54 27.54 27.23 0.54 53.91 27.54 49.49 27.54 49.49 35.24"/><circle class="cls-4" cx="27.23" cy="30.93" r="15.83"/><path class="cls-4" d="M18,40.16a13,13,0,1,1,18.45,0A13.07,13.07,0,0,1,18,40.16Z"/><rect class="cls-1" x="37.18" y="43.13" width="8.34" height="3.86" transform="translate(43.97 -16.04) rotate(45)"/><rect class="cls-3" x="37.18" y="43.13" width="8.34" height="3.86" transform="translate(43.97 -16.04) rotate(45)"/><rect class="cls-5" x="39.16" y="54.51" width="29.5" height="6.22" rx="3.11" transform="translate(56.53 -21.25) rotate(45)"/><rect class="cls-3" x="39.16" y="54.51" width="29.5" height="6.22" rx="3.11" transform="translate(56.53 -21.25) rotate(45)"/><rect class="cls-2" x="45.16" y="54.51" width="17.5" height="6.22" transform="translate(56.53 -21.25) rotate(45)"/><rect class="cls-3" x="45.16" y="54.51" width="17.5" height="6.22" transform="translate(56.53 -21.25) rotate(45)"/><text class="cls-6" transform="translate(20.94 39.14)">?</text></g></g></svg>