<svg xmlns="http://www.w3.org/2000/svg" viewBox="0 0 130.65 82.51"><defs><style>.cls-1{fill:#29b2b8;}.cls-2,.cls-3,.cls-8{fill:none;}.cls-2{stroke:#bbf9f6;}.cls-2,.cls-3,.cls-6,.cls-8,.cls-9{stroke-linecap:round;stroke-linejoin:round;}.cls-2,.cls-3,.cls-6{stroke-width:1.01px;}.cls-3,.cls-6{stroke:#1c3157;}.cls-4,.cls-9{fill:#fff;}.cls-5,.cls-6{fill:#bbf9f6;}.cls-7{fill:#1c3157;}.cls-8,.cls-9{stroke:#29b2b8;stroke-width:0.5px;}</style></defs><g id="Layer_2" data-name="Layer 2"><g id="Layer_2-2" data-name="Layer 2"><path class="cls-1" d="M26.11,46.28A13.06,13.06,0,1,1,5.89,35.38a12.53,12.53,0,0,1,3.43-1.61,13.14,13.14,0,0,1,3.73-.54,13,13,0,0,1,7.17,2.15,13.25,13.25,0,0,1,3.26,3,13.42,13.42,0,0,1,1.71,3.05,12.15,12.15,0,0,1,.63,2.1A12.88,12.88,0,0,1,26.11,46.28Z"/><path class="cls-1" d="M23.11,28.31A10.05,10.05,0,0,1,9.32,37.67a7.63,7.63,0,0,1-1.22-.59,10.06,10.06,0,1,1,15-8.77Z"/><path class="cls-2" d="M5.58,28.32a7.48,7.48,0,0,1,7.47-7.47"/><path class="cls-2" d="M2.59,46.28A10.48,10.48,0,0,1,13.05,35.81"/><path class="cls-3" d="M19.47,46.91v.74A5.33,5.33,0,0,1,14.14,53H13.05V81.53"/><line class="cls-3" x1="13.05" y1="52.97" x2="13.05" y2="45.45"/><path class="cls-3" d="M7.35,49.91h0a5.33,5.33,0,0,0,5.33,5.33h.37"/><path class="cls-1" d="M130.65,46.28a13.06,13.06,0,1,1-20.23-10.9,12.59,12.59,0,0,1,3.44-1.61A13.12,13.12,0,0,1,128,38.41a13.85,13.85,0,0,1,1.72,3.05,13.09,13.09,0,0,1,.63,2.1A13.57,13.57,0,0,1,130.65,46.28Z"/><path class="cls-1" d="M127.65,28.31a10.05,10.05,0,0,1-13.79,9.36,7.63,7.63,0,0,1-1.22-.59,9.92,9.92,0,0,1-2.22-1.7,10.06,10.06,0,1,1,17.23-7.07Z"/><path class="cls-2" d="M110.12,28.32a7.48,7.48,0,0,1,7.47-7.47"/><path class="cls-2" d="M107.12,46.28a10.49,10.49,0,0,1,10.47-10.47"/><path class="cls-3" d="M124,46.91v.74A5.32,5.32,0,0,1,118.68,53h-1.09V81.53"/><line class="cls-3" x1="117.59" y1="52.97" x2="117.59" y2="45.45"/><path class="cls-3" d="M111.89,49.91h0a5.33,5.33,0,0,0,5.32,5.33h.38"/><polygon class="cls-4" points="111.35 36.7 111.35 41.12 20.53 41.12 20.53 36.7 20.55 36.7 32.69 6.27 99.22 6.27 111.35 36.7"/><rect class="cls-5" x="20.55" y="36.7" width="90.8" height="4.43"/><rect class="cls-4" x="23.93" y="41.12" width="84.01" height="41.18"/><rect class="cls-5" x="23.6" y="41.12" width="5.04" height="41.18"/><polygon class="cls-5" points="108.26 76.14 107.98 82.31 23.96 82.31 24.25 76.14 108.26 76.14"/><rect class="cls-3" x="23.93" y="41.12" width="84.01" height="40.88"/><rect class="cls-1" x="29.93" y="53.12" width="10.52" height="14.94"/><line class="cls-3" x1="28.49" y1="68.35" x2="41.89" y2="68.35"/><rect class="cls-3" x="29.93" y="52.78" width="10.52" height="15.57"/><line class="cls-3" x1="35.19" y1="52.78" x2="35.19" y2="68.35"/><line class="cls-3" x1="29.93" y1="60.56" x2="40.45" y2="60.56"/><rect class="cls-1" x="40.36" y="53.12" width="10.52" height="14.94"/><line class="cls-3" x1="38.91" y1="68.35" x2="52.32" y2="68.35"/><rect class="cls-3" x="40.36" y="52.78" width="10.52" height="15.57"/><line class="cls-3" x1="45.62" y1="52.78" x2="45.62" y2="68.35"/><line class="cls-3" x1="40.36" y1="60.56" x2="50.87" y2="60.56"/><rect class="cls-1" x="80.99" y="52.98" width="10.52" height="14.94"/><line class="cls-3" x1="79.55" y1="68.35" x2="92.95" y2="68.35"/><rect class="cls-3" x="80.99" y="52.78" width="10.52" height="15.57"/><line class="cls-3" x1="86.25" y1="52.78" x2="86.25" y2="68.35"/><line class="cls-3" x1="80.99" y1="60.56" x2="91.51" y2="60.56"/><rect class="cls-1" x="91.42" y="52.98" width="10.52" height="14.94"/><line class="cls-3" x1="89.97" y1="68.35" x2="103.38" y2="68.35"/><rect class="cls-3" x="91.42" y="52.78" width="10.52" height="15.57"/><line class="cls-3" x1="96.68" y1="52.78" x2="96.68" y2="68.35"/><line class="cls-3" x1="91.42" y1="60.56" x2="101.94" y2="60.56"/><rect class="cls-3" x="20.53" y="36.7" width="90.82" height="4.42"/><polygon class="cls-3" points="111.35 36.7 20.55 36.7 32.69 6.27 99.22 6.27 111.35 36.7"/><rect class="cls-6" x="41.41" y="0.5" width="6.3" height="5.77"/><line class="cls-3" x1="7.82" y1="82.01" x2="124.7" y2="82.01"/><path class="cls-4" d="M74.11,52.46V74.3H57.21A1.26,1.26,0,0,1,56,73V52.46a1.26,1.26,0,0,1,1.26-1.27H72.84A1.27,1.27,0,0,1,74.11,52.46Z"/><path class="cls-7" d="M74.11,52.46V75.2a.94.94,0,0,1-.93.94h-7.8v-25h7.46A1.27,1.27,0,0,1,74.11,52.46Z"/><path class="cls-5" d="M57.82,51.19v25h-1A.93.93,0,0,1,56,75.2V52.46a1.26,1.26,0,0,1,1.26-1.27Z"/><path class="cls-7" d="M74.11,73.45V75.2c0,.52-.28.94-.63.94H56.57c-.34,0-.62-.42-.62-.94V73.55c.12.37.31.68.58.75.69.16,16.73,0,16.73,0A1.68,1.68,0,0,0,74.11,73.45Z"/><path class="cls-8" d="M74.11,52.46V73a1.27,1.27,0,0,1-1.27,1.27H57.21A1.26,1.26,0,0,1,56,73V52.46a1.26,1.26,0,0,1,1.26-1.27H72.84A1.27,1.27,0,0,1,74.11,52.46Z"/><line class="cls-8" x1="65.38" y1="51.19" x2="65.38" y2="74.3"/><line class="cls-8" x1="64.27" y1="61.85" x2="64.27" y2="63.64"/><path class="cls-8" d="M74.11,73V75.2c0,.52-.28.94-.63.94H56.57c-.34,0-.62-.42-.62-.94V73"/><line class="cls-8" x1="65.38" y1="56.55" x2="74.11" y2="56.55"/><line class="cls-8" x1="65.38" y1="62.31" x2="74.11" y2="62.31"/><line class="cls-8" x1="65.38" y1="68.06" x2="74.11" y2="68.06"/><path class="cls-9" d="M72.42,53.66H68.76a.61.61,0,0,0,0,1.21.61.61,0,0,0,0,1.21h3.66a1.21,1.21,0,0,0,0-2.42Z"/><line class="cls-9" x1="68.76" y1="54.87" x2="72.34" y2="54.87"/><path class="cls-9" d="M72.42,65.18H68.76a.61.61,0,0,0,0,1.21.61.61,0,0,0,0,1.21h3.66a1.21,1.21,0,0,0,0-2.42Z"/><line class="cls-9" x1="68.76" y1="66.39" x2="72.34" y2="66.39"/><path class="cls-9" d="M67.07,59.42h3.66a.6.6,0,0,1,0,1.2.61.61,0,0,1,.6.61.6.6,0,0,1-.6.6H67.07a1.21,1.21,0,1,1,0-2.41Z"/><line class="cls-9" x1="70.73" y1="60.62" x2="67.14" y2="60.62"/><path class="cls-9" d="M67.07,70.14h3.65a.61.61,0,0,1,0,1.21.61.61,0,0,1,0,1.21H67.07a1.21,1.21,0,1,1,0-2.42Z"/><line class="cls-9" x1="70.72" y1="71.35" x2="67.14" y2="71.35"/></g></g></svg>