<svg xmlns="http://www.w3.org/2000/svg" viewBox="0 0 20.73 30.38"><defs><style>.cls-1{fill:#29b2b8;}.cls-2{fill:#bbf9f6;}.cls-3{fill:#fff;}.cls-4{fill:#1c3157;}</style></defs><g id="Layer_2" data-name="Layer 2"><g id="Layer_2-2" data-name="Layer 2"><path class="cls-1" d="M5.64,1c7.25,0,11.58,9,11.83,16.15A7.77,7.77,0,0,0,17.14,10a9.37,9.37,0,0,1-6.78,15.84l-.58,0A9.37,9.37,0,0,1,3.6,10a7.72,7.72,0,0,0-1.05,3.91,7.92,7.92,0,0,0,.25,2c1.67-5.16,8.64-9,2.53-14.86h.31m-2,9h0m2-10H5.28a1,1,0,0,0-.89.63,1,1,0,0,0,.22,1.07c3.69,3.57,2.06,5.94-.19,9.22l-.48.7a6.58,6.58,0,0,1,.5-1.08A1,1,0,0,0,3.61,9h0a.91.91,0,0,0-.46.13.76.76,0,0,0-.23.17A10.37,10.37,0,0,0,9.72,26.83c.21,0,.43,0,.64,0a10.37,10.37,0,0,0,7.5-17.53A1,1,0,0,0,17.14,9a1,1,0,0,0-.41.08C14.62,4,10.71,0,5.64,0Z"/><path class="cls-2" d="M19.73,16.49a9.36,9.36,0,0,1-9.37,9.37l-.58,0A9.37,9.37,0,0,1,3.6,10a7.72,7.72,0,0,0-1.05,3.91,7.92,7.92,0,0,0,.25,2c1.67-5.16,8.64-9,2.53-14.86h0c7.44-.27,11.9,8.9,12.15,16.14A7.77,7.77,0,0,0,17.14,10,9.36,9.36,0,0,1,19.73,16.49Z"/><path class="cls-2" d="M19.73,16.49a9.36,9.36,0,0,1-9.37,9.37l-.58,0A9.37,9.37,0,0,1,3.6,10a7.72,7.72,0,0,0-1.05,3.91,7.92,7.92,0,0,0,.25,2c1.67-5.16,8.64-9,2.53-14.86h0c7.44-.27,11.9,8.9,12.15,16.14A7.77,7.77,0,0,0,17.14,10,9.36,9.36,0,0,1,19.73,16.49Z"/><path class="cls-3" d="M10.36,24.86l-.53,0a8.36,8.36,0,0,1-7.82-8l.71,1.33s.49-.91,1-2a39,39,0,0,1,2.32-4.11c1.94-2.83,4.1-6,1.63-9.78,5.46,1.57,8.57,9.21,8.77,14.89l0,2.35c.13-.29,2.12-2.55,2.22-2.85A8.39,8.39,0,0,1,10.36,24.86Z"/><path class="cls-4" d="M14.26,16.74a4.46,4.46,0,0,1,.19,4.1,13.1,13.1,0,0,0-4.81-9.77c.72,4.19-2.67,6.07-3.63,9A4.67,4.67,0,0,1,5.86,19a4.41,4.41,0,0,1,.61-2.25,5.39,5.39,0,1,0,7.79,0Z"/><rect class="cls-1" x="2.45" y="28.8" width="15.83" height="1.58"/><rect class="cls-1" x="2.45" y="27.3" width="2.59" height="1.5"/><rect class="cls-1" x="6.86" y="27.3" width="2.59" height="1.5"/><rect class="cls-1" x="11.28" y="27.3" width="2.59" height="1.5"/><rect class="cls-1" x="15.69" y="27.3" width="2.59" height="1.5"/></g></g></svg>