<svg xmlns="http://www.w3.org/2000/svg" viewBox="0 0 128.53 92.62"><defs><style>.cls-1{fill:#29b2b8;}.cls-2,.cls-3,.cls-9{fill:none;}.cls-2{stroke:#bbf9f6;}.cls-2,.cls-3,.cls-6,.cls-7{stroke-linecap:round;stroke-linejoin:round;}.cls-3,.cls-6,.cls-7{stroke:#1c3157;}.cls-4,.cls-7{fill:#fff;}.cls-5,.cls-6{fill:#bbf9f6;}.cls-8{fill:#1c3157;}</style></defs><g id="Layer_2" data-name="Layer 2"><g id="Layer_2-2" data-name="Layer 2"><path class="cls-1" d="M26,56.59A13,13,0,1,1,5.85,45.75a12.44,12.44,0,0,1,3.42-1.6,13,13,0,0,1,10.84,1.6,13.11,13.11,0,0,1,3.24,3,13.41,13.41,0,0,1,1.7,3,12,12,0,0,1,.63,2.09A13.29,13.29,0,0,1,26,56.59Z"/><path class="cls-1" d="M23,38.72a10,10,0,0,1-10,10A10.16,10.16,0,0,1,9.27,48a8,8,0,0,1-1.21-.59,9.75,9.75,0,0,1-2.21-1.69A10,10,0,0,1,9.27,29.43,10.16,10.16,0,0,1,13,28.72,10,10,0,0,1,23,38.72Z"/><path class="cls-2" d="M5.55,38.73A7.44,7.44,0,0,1,13,31.3"/><path class="cls-2" d="M2.57,56.59A10.42,10.42,0,0,1,13,46.18"/><path class="cls-3" d="M19.36,57.22V58a5.3,5.3,0,0,1-5.3,5.3H13V91.64"/><line class="cls-3" x1="12.98" y1="63.25" x2="12.98" y2="55.76"/><path class="cls-3" d="M7.31,60.2h0a5.3,5.3,0,0,0,5.3,5.3H13"/><path class="cls-1" d="M128.53,56.59a13,13,0,1,1-20.11-10.84,12.38,12.38,0,0,1,3.41-1.6,13.07,13.07,0,0,1,3.72-.54,13.08,13.08,0,0,1,10.36,5.16,13,13,0,0,1,1.7,3,12,12,0,0,1,.63,2.09A13.29,13.29,0,0,1,128.53,56.59Z"/><path class="cls-1" d="M125.55,38.72a10,10,0,0,1-10,10,10.17,10.17,0,0,1-3.72-.71,9,9,0,0,1-1.21-.59,9.48,9.48,0,0,1-2.2-1.69,10,10,0,0,1,3.41-16.32,10.17,10.17,0,0,1,3.72-.71A10,10,0,0,1,125.55,38.72Z"/><path class="cls-2" d="M108.12,38.73a7.43,7.43,0,0,1,7.42-7.43"/><path class="cls-2" d="M105.14,56.59a10.42,10.42,0,0,1,10.4-10.41"/><path class="cls-3" d="M121.92,57.22V58a5.3,5.3,0,0,1-5.3,5.3h-1.08V91.64"/><line class="cls-3" x1="115.54" y1="63.25" x2="115.54" y2="55.76"/><path class="cls-3" d="M109.87,60.2h0a5.3,5.3,0,0,0,5.3,5.3h.37"/><polygon class="cls-4" points="110.73 47.06 110.73 51.46 20.41 51.46 20.41 47.06 20.44 47.06 32.51 16.8 98.67 16.8 110.73 47.06"/><rect class="cls-5" x="20.44" y="47.06" width="90.29" height="4.4"/><rect class="cls-4" x="23.79" y="51.46" width="83.55" height="40.95"/><rect class="cls-5" x="23.47" y="51.46" width="5.01" height="40.95"/><polygon class="cls-5" points="107.66 86.28 107.37 92.42 23.83 92.42 24.11 86.28 107.66 86.28"/><rect class="cls-3" x="23.79" y="51.46" width="83.55" height="40.65"/><rect class="cls-1" x="59.9" y="60.55" width="11.74" height="12.87"/><rect class="cls-3" x="59.9" y="60.55" width="11.74" height="25.73"/><rect class="cls-3" x="56.79" y="86.28" width="17.54" height="5.84"/><rect class="cls-3" x="56.79" y="89.2" width="17.54" height="2.92"/><line class="cls-3" x1="65.78" y1="60.55" x2="65.78" y2="73.14"/><line class="cls-3" x1="60.13" y1="73.41" x2="71.35" y2="73.41"/><line class="cls-3" x1="60.13" y1="67.02" x2="71.35" y2="67.02"/><rect class="cls-1" x="29.76" y="63.05" width="10.46" height="14.86"/><line class="cls-3" x1="28.33" y1="78.53" x2="41.66" y2="78.53"/><rect class="cls-3" x="29.76" y="63.05" width="10.46" height="15.48"/><line class="cls-3" x1="34.99" y1="63.05" x2="34.99" y2="78.53"/><line class="cls-3" x1="29.76" y1="70.79" x2="40.22" y2="70.79"/><rect class="cls-1" x="40.13" y="63.05" width="10.46" height="14.86"/><line class="cls-3" x1="38.7" y1="78.53" x2="52.03" y2="78.53"/><rect class="cls-3" x="40.13" y="63.05" width="10.46" height="15.48"/><line class="cls-3" x1="45.36" y1="63.05" x2="45.36" y2="78.53"/><line class="cls-3" x1="40.13" y1="70.79" x2="50.59" y2="70.79"/><rect class="cls-1" x="80.54" y="63.05" width="10.46" height="14.86"/><line class="cls-3" x1="79.1" y1="78.53" x2="92.43" y2="78.53"/><rect class="cls-3" x="80.54" y="63.05" width="10.46" height="15.48"/><line class="cls-3" x1="85.77" y1="63.05" x2="85.77" y2="78.53"/><line class="cls-3" x1="80.54" y1="70.79" x2="91" y2="70.79"/><rect class="cls-1" x="90.91" y="63.05" width="10.46" height="14.86"/><line class="cls-3" x1="89.47" y1="78.53" x2="102.8" y2="78.53"/><rect class="cls-3" x="90.91" y="63.05" width="10.46" height="15.48"/><line class="cls-3" x1="96.14" y1="63.05" x2="96.14" y2="78.53"/><line class="cls-3" x1="90.91" y1="70.79" x2="101.37" y2="70.79"/><rect class="cls-3" x="20.41" y="47.06" width="90.32" height="4.4"/><polygon class="cls-3" points="110.73 47.06 20.44 47.06 32.51 16.8 98.67 16.8 110.73 47.06"/><rect class="cls-6" x="92.4" y="11.07" width="6.26" height="5.74"/><rect class="cls-3" x="36.83" y="22.81" width="57.03" height="17.22"/><polygon class="cls-7" points="36.83 22.81 93.87 22.81 65.35 0.5 36.83 22.81"/><polygon class="cls-5" points="86.85 20.84 43.86 20.84 47.3 18.14 49.14 16.71 51.13 15.15 52.05 14.43 52.97 13.71 54.95 12.16 55.88 11.44 56.78 10.72 59.18 8.84 60.64 7.71 65.36 4.02 70.07 7.71 70.99 8.43 71.7 8.98 73.93 10.72 74.83 11.44 75.76 12.16 77.74 13.71 78.66 14.43 79.58 15.15 81.57 16.71 83.41 18.14 86.85 20.84"/><path class="cls-8" d="M65.35,5.29,83.94,19.83H46.76L65.35,5.29m0-1.27L43.86,20.83h43L65.35,4Z"/><line class="cls-9" x1="59.79" y1="8.43" x2="71.24" y2="8.43"/><path class="cls-8" d="M71.7,9a.7.7,0,0,1-.46.17H59.79a.77.77,0,0,1-.61-.31l1.46-1.12h9.43l.92.71Z"/><line class="cls-9" x1="76.6" y1="11.44" x2="54.09" y2="11.44"/><polygon class="cls-8" points="75.76 12.16 54.95 12.16 55.88 11.44 56.78 10.72 73.93 10.72 74.83 11.44 75.76 12.16"/><line class="cls-9" x1="81.13" y1="14.43" x2="49.56" y2="14.43"/><polygon class="cls-8" points="79.58 15.15 51.13 15.15 52.05 14.43 52.97 13.71 77.74 13.71 78.66 14.43 79.58 15.15"/><line class="cls-3" x1="62.03" y1="17.42" x2="68.83" y2="17.42"/><line class="cls-3" x1="62.03" y1="17.42" x2="80.11" y2="17.42"/><line class="cls-9" x1="85.69" y1="17.43" x2="45" y2="17.43"/><polygon class="cls-8" points="83.41 18.14 47.3 18.14 49.14 16.71 81.57 16.71 83.41 18.14"/><rect class="cls-1" x="43.29" y="25.4" width="7.7" height="10.94"/><line class="cls-3" x1="42.23" y1="36.8" x2="52.04" y2="36.8"/><rect class="cls-3" x="43.29" y="25.4" width="7.7" height="11.4"/><line class="cls-3" x1="47.14" y1="25.4" x2="47.14" y2="36.8"/><line class="cls-3" x1="43.29" y1="31.1" x2="50.99" y2="31.1"/><rect class="cls-1" x="81.84" y="25.4" width="7.7" height="10.94"/><line class="cls-3" x1="80.78" y1="36.8" x2="90.6" y2="36.8"/><rect class="cls-3" x="81.84" y="25.4" width="7.7" height="11.4"/><line class="cls-3" x1="85.69" y1="25.4" x2="85.69" y2="36.8"/><line class="cls-3" x1="81.84" y1="31.1" x2="89.54" y2="31.1"/><rect class="cls-1" x="63.09" y="25.4" width="7.7" height="10.94"/><line class="cls-3" x1="62.03" y1="36.8" x2="71.85" y2="36.8"/><rect class="cls-3" x="63.09" y="25.4" width="7.7" height="11.4"/><line class="cls-3" x1="66.94" y1="25.4" x2="66.94" y2="36.8"/><line class="cls-3" x1="63.09" y1="31.1" x2="70.79" y2="31.1"/><line class="cls-3" x1="7.78" y1="92.12" x2="124.01" y2="92.12"/></g></g></svg>