<svg xmlns="http://www.w3.org/2000/svg" viewBox="0 0 72.14 49.54"><defs><style>.cls-1,.cls-9{fill:#fff;}.cls-2{fill:#bbf9f6;}.cls-3{fill:#29b2b8;}.cls-4,.cls-5,.cls-6,.cls-7,.cls-8{fill:none;}.cls-4,.cls-5,.cls-6,.cls-8,.cls-9{stroke:#1c3157;}.cls-4,.cls-7{stroke-linecap:round;stroke-linejoin:round;}.cls-4,.cls-5{stroke-width:0.94px;}.cls-5,.cls-6,.cls-8,.cls-9{stroke-miterlimit:10;}.cls-6{stroke-width:1.13px;}.cls-7{stroke:#cd1318;stroke-width:0.47px;stroke-dasharray:1.88;}.cls-8{stroke-width:0.59px;}.cls-9{stroke-width:0.29px;}</style></defs><g id="Layer_2" data-name="Layer 2"><g id="Layer_2-2" data-name="Layer 2"><rect class="cls-1" x="0.3" y="4.29" width="71.84" height="44.69"/><rect class="cls-2" y="41.14" width="62.79" height="2.84"/><rect class="cls-3" x="49.1" y="6.72" width="13.69" height="17.44"/><line class="cls-4" x1="47.26" y1="24.16" x2="64.27" y2="24.16"/><rect class="cls-4" x="49.1" y="6.72" width="13.34" height="17.44"/><line class="cls-4" x1="55.77" y1="6.72" x2="55.77" y2="24.16"/><line class="cls-4" x1="49.1" y1="15.44" x2="62.44" y2="15.44"/><line class="cls-5" x1="72.14" y1="48.98" x2="0.3" y2="48.98"/><polyline class="cls-6" points="0.3 41.14 63.09 41.14 63.09 48.98 0.3 48.98"/><rect class="cls-4" x="6.71" y="41.14" width="20.79" height="7.84"/><rect class="cls-4" x="6.71" y="45.06" width="20.79" height="3.92"/><rect class="cls-3" x="10.4" y="6.61" width="13.91" height="17.27"/><polygon class="cls-2" points="24.32 6.61 24.32 8.34 12.63 8.34 12.63 23.87 10.4 23.87 10.4 6.61 24.32 6.61"/><rect class="cls-4" x="10.4" y="6.6" width="13.91" height="34.53"/><line class="cls-4" x1="17.36" y1="6.6" x2="17.36" y2="23.5"/><line class="cls-4" x1="10.66" y1="23.87" x2="23.97" y2="23.87"/><line class="cls-4" x1="10.66" y1="15.29" x2="23.97" y2="15.29"/><circle class="cls-7" cx="36.77" cy="11.58" r="11.35"/><circle class="cls-3" cx="36.77" cy="11.58" r="2.71"/><circle class="cls-8" cx="36.77" cy="11.58" r="2.71"/><circle class="cls-9" cx="36.77" cy="11.58" r="1.74"/><circle class="cls-9" cx="36.77" cy="11.58" r="1.23"/></g></g></svg>