<svg xmlns="http://www.w3.org/2000/svg" viewBox="0 0 71.84 49.54"><defs><style>.cls-1,.cls-9{fill:#fff;}.cls-2{fill:#bbf9f6;}.cls-3{fill:#29b2b8;}.cls-4,.cls-5,.cls-6,.cls-7,.cls-8{fill:none;}.cls-4,.cls-5,.cls-6,.cls-8,.cls-9{stroke:#1c3157;}.cls-4,.cls-7{stroke-linecap:round;stroke-linejoin:round;}.cls-4,.cls-5{stroke-width:0.94px;}.cls-5,.cls-6,.cls-8,.cls-9{stroke-miterlimit:10;}.cls-6{stroke-width:1.13px;}.cls-7{stroke:#cd1318;stroke-width:0.47px;stroke-dasharray:1.88;}.cls-8{stroke-width:0.59px;}.cls-9{stroke-width:0.29px;}</style></defs><g id="Layer_2" data-name="Layer 2"><g id="Layer_2-2" data-name="Layer 2"><rect class="cls-1" y="4.29" width="71.84" height="44.69"/><rect class="cls-2" y="40.82" width="62.79" height="2.84"/><rect class="cls-3" x="43.8" y="6.72" width="13.69" height="17.44"/><polygon class="cls-2" points="57.61 6.61 57.61 8.34 45.92 8.34 45.92 23.87 43.69 23.87 43.69 6.61 57.61 6.61"/><line class="cls-4" x1="41.97" y1="24.16" x2="58.97" y2="24.16"/><rect class="cls-4" x="43.8" y="6.72" width="13.34" height="17.44"/><line class="cls-4" x1="50.47" y1="6.72" x2="50.47" y2="24.16"/><line class="cls-4" x1="43.8" y1="15.44" x2="57.14" y2="15.44"/><line class="cls-5" x1="71.84" y1="48.98" y2="48.98"/><polyline class="cls-6" points="0 41.14 62.79 41.14 62.79 48.98 0 48.98"/><rect class="cls-4" x="11.78" y="41.14" width="20.79" height="7.84"/><rect class="cls-4" x="11.78" y="45.06" width="20.79" height="3.92"/><rect class="cls-3" x="15.46" y="6.6" width="13.91" height="17.27"/><polygon class="cls-2" points="29.34 6.66 29.34 8.39 17.66 8.39 17.66 23.92 15.42 23.92 15.42 6.66 29.34 6.66"/><rect class="cls-4" x="15.46" y="6.6" width="13.91" height="34.53"/><line class="cls-4" x1="22.42" y1="6.6" x2="22.42" y2="23.5"/><line class="cls-4" x1="15.73" y1="23.87" x2="29.03" y2="23.87"/><line class="cls-4" x1="15.73" y1="15.29" x2="29.03" y2="15.29"/><circle class="cls-7" cx="36.47" cy="11.58" r="11.35"/><circle class="cls-3" cx="36.47" cy="11.58" r="2.71"/><circle class="cls-8" cx="36.47" cy="11.58" r="2.71"/><circle class="cls-9" cx="36.47" cy="11.58" r="1.74"/><circle class="cls-9" cx="36.47" cy="11.58" r="1.23"/></g></g></svg>