<svg xmlns="http://www.w3.org/2000/svg" viewBox="0 0 20.37 38.68"><defs><style>.cls-1{fill:#fff;}.cls-2,.cls-5{fill:#bbf9f6;}.cls-3,.cls-4{fill:none;}.cls-3{stroke:#1c3157;stroke-linecap:round;stroke-linejoin:round;}.cls-4,.cls-5{stroke:#29b2b8;stroke-miterlimit:10;}</style></defs><g id="Layer_2" data-name="Layer 2"><g id="Layer_2-2" data-name="Layer 2"><path class="cls-1" d="M19.87,7V26.63a3,3,0,0,1-3,3H15.77v3.66h1.58v4.91H3V33.27H4.61V29.61H3.48a3,3,0,0,1-3-3V7a3,3,0,0,1,3-3h2V2.23A1.72,1.72,0,0,1,7.2.5h6A1.72,1.72,0,0,1,14.9,2.23V4h2a3,3,0,0,1,2.9,2.29A3.1,3.1,0,0,1,19.87,7Z"/><rect class="cls-2" x="3.03" y="33.27" width="4.1" height="4.8"/><rect class="cls-2" x="13.25" y="33.27" width="4.1" height="4.8"/><rect class="cls-2" x="4.61" y="29.61" width="11.16" height="3.66"/><path class="cls-2" d="M19.79,6.32H6.93A2.73,2.73,0,0,0,4.2,9.05V29.61H3.48a3,3,0,0,1-3-3V7a3,3,0,0,1,3-3h2V2.23A1.72,1.72,0,0,1,7.2.5h6A1.72,1.72,0,0,1,14.9,2.23V4h2A3,3,0,0,1,19.79,6.32Z"/><rect class="cls-3" x="4.61" y="29.61" width="11.16" height="3.66"/><rect class="cls-3" x="3.03" y="33.27" width="14.32" height="4.91"/><rect class="cls-3" x="7.13" y="33.27" width="6.12" height="4.91"/><path class="cls-3" d="M14.9,2.23V4H5.48V2.23A1.72,1.72,0,0,1,7.2.5h6A1.72,1.72,0,0,1,14.9,2.23Z"/><path class="cls-4" d="M19.87,7V26.63a3,3,0,0,1-3,3H3.48a3,3,0,0,1-3-3V7a3,3,0,0,1,3-3H16.89A3,3,0,0,1,19.87,7Z"/><rect class="cls-5" x="7.93" y="9.96" width="4.51" height="13.73" rx="2.26"/><path class="cls-5" d="M2.75,12.21v9.22A2.26,2.26,0,0,1,.5,23.69V10a2.24,2.24,0,0,1,1.59.66A2.2,2.2,0,0,1,2.75,12.21Z"/><path class="cls-5" d="M19.87,10V23.69a2.26,2.26,0,0,1-2.25-2.26V12.21A2.25,2.25,0,0,1,19.87,10Z"/></g></g></svg>