<svg xmlns="http://www.w3.org/2000/svg" viewBox="0 0 25.41 45.09"><defs><style>.cls-1{fill:#fff;}.cls-2{fill:#bbf9f6;}.cls-3,.cls-4,.cls-5{fill:none;}.cls-3{stroke:#1c3157;}.cls-3,.cls-5{stroke-linecap:round;stroke-linejoin:round;}.cls-4,.cls-5{stroke:#29b2b8;}.cls-4{stroke-miterlimit:10;}.cls-6{fill:#cd1318;}</style></defs><g id="Layer_2" data-name="Layer 2"><g id="Layer_2-2" data-name="Layer 2"><path class="cls-1" d="M24.91,26.12v8.23A1.67,1.67,0,0,1,23.24,36H18.29v3.66h1.57v4.91H5.55V39.68H7.12V36H2.17A1.67,1.67,0,0,1,.5,34.35V26.12a1.67,1.67,0,0,1,1.67-1.67H3.3V4.85A4.35,4.35,0,0,1,7.65.5H17.76a4.35,4.35,0,0,1,4.35,4.35v19.6h1.13A1.67,1.67,0,0,1,24.91,26.12Z"/><rect class="cls-2" x="15.77" y="39.79" width="4.26" height="4.8"/><rect class="cls-2" x="5.55" y="39.68" width="4.18" height="5.11"/><rect class="cls-2" x="7.12" y="36.02" width="11.49" height="3.77"/><path class="cls-2" d="M24.91,26.12v.24H4.39a1.32,1.32,0,0,0-1.32,1.32V36h-.9A1.67,1.67,0,0,1,.5,34.35V26.12a1.67,1.67,0,0,1,1.67-1.67H23.24A1.67,1.67,0,0,1,24.91,26.12Z"/><path class="cls-2" d="M22.11,4.85V5H7.82V24.45H3.3V4.85A4.35,4.35,0,0,1,7.65.5H17.76A4.35,4.35,0,0,1,22.11,4.85Z"/><rect class="cls-3" x="7.12" y="36.02" width="11.17" height="3.66"/><rect class="cls-3" x="5.55" y="39.68" width="14.31" height="4.91"/><rect class="cls-3" x="9.64" y="39.68" width="6.13" height="4.91"/><line class="cls-3" x1="5.65" y1="24.45" x2="5.65" y2="19.82"/><line class="cls-3" x1="19.76" y1="24.45" x2="19.76" y2="19.82"/><line class="cls-3" x1="7.97" y1="24.45" x2="7.97" y2="21.31"/><line class="cls-3" x1="10.29" y1="24.45" x2="10.29" y2="21.31"/><line class="cls-3" x1="12.61" y1="24.45" x2="12.61" y2="21.31"/><line class="cls-3" x1="14.92" y1="24.45" x2="14.92" y2="21.31"/><line class="cls-3" x1="17.26" y1="24.45" x2="17.26" y2="21.31"/><path class="cls-4" d="M22.11,4.85v19.6H3.3V4.85A4.35,4.35,0,0,1,7.65.5H17.76A4.35,4.35,0,0,1,22.11,4.85Z"/><rect class="cls-4" x="0.5" y="24.45" width="24.41" height="11.57" rx="1.67"/><line class="cls-5" x1="7.82" y1="0.5" x2="7.82" y2="12.53"/><line class="cls-5" x1="17.58" y1="0.5" x2="17.58" y2="12.53"/><line class="cls-5" x1="12.7" y1="0.5" x2="12.7" y2="12.53"/><circle class="cls-3" cx="4.69" cy="31.63" r="1.39"/><circle class="cls-6" cx="4.69" cy="31.63" r="0.6"/><line class="cls-3" x1="12.7" y1="27.39" x2="12.7" y2="25.85"/><line class="cls-4" x1="0.5" y1="28.5" x2="24.91" y2="28.5"/></g></g></svg>