<svg xmlns="http://www.w3.org/2000/svg" viewBox="0 0 30.68 30.68"><defs><style>.cls-1{fill:#bbf9f6;}.cls-2{fill:#fff;}.cls-3,.cls-4{fill:none;stroke-width:1.26px;}.cls-3{stroke:#1c3157;stroke-miterlimit:10;}.cls-4{stroke:#29b2b8;stroke-linecap:round;stroke-linejoin:round;}</style></defs><g id="Layer_2" data-name="Layer 2"><g id="Layer_2-2" data-name="Layer 2"><path class="cls-1" d="M30.05,15.34a14.71,14.71,0,1,1-20-13.72,14.24,14.24,0,0,1,5.28-1A14.7,14.7,0,0,1,30.05,15.34Z"/><path class="cls-2" d="M30.05,15.34a14.64,14.64,0,0,1-6.58,12.25,14.71,14.71,0,0,1-20-13.74A14.65,14.65,0,0,1,10.06,1.62a14.24,14.24,0,0,1,5.28-1A14.7,14.7,0,0,1,30.05,15.34Z"/><circle class="cls-3" cx="15.34" cy="15.34" r="14.71"/><polyline class="cls-4" points="6.87 15.63 12.32 21.09 23.81 9.59"/></g></g></svg>