<svg xmlns="http://www.w3.org/2000/svg" viewBox="0 0 69.89 67.15"><defs><style>.cls-1{fill:#fff;}.cls-2{fill:#bbf9f6;}.cls-3{fill:#29b2b8;}.cls-4,.cls-5,.cls-6,.cls-7,.cls-8{fill:none;}.cls-4{stroke:#29b2b8;stroke-miterlimit:10;stroke-width:0.6px;}.cls-5,.cls-6{stroke:#1c3157;}.cls-5,.cls-6,.cls-7,.cls-8{stroke-linecap:round;stroke-linejoin:round;}.cls-6{stroke-width:0.7px;}.cls-7,.cls-8{stroke:#cd1318;stroke-width:0.52px;}.cls-8{stroke-dasharray:1.95 1.95;}</style></defs><g id="Layer_2" data-name="Layer 2"><g id="Layer_2-2" data-name="Layer 2"><polygon class="cls-1" points="69.54 4.14 69.54 66.66 6.78 66.66 6.78 38.48 0.5 42 0.5 39.69 53.15 9.06 53.15 4.14 69.54 4.14"/><polygon class="cls-2" points="69.54 4.14 69.54 15.65 53.15 15.65 10.51 40.78 10.51 66.66 6.78 66.66 6.78 38.48 0.5 42 0.5 39.69 53.15 9.06 53.15 4.14 69.54 4.14"/><polygon class="cls-3" points="53.15 9.06 53.15 11.37 0.5 42 0.5 39.69 53.15 9.06"/><path class="cls-1" d="M15.87,25.76v5.07l-3,1.73-1.24.72V25.76a.74.74,0,0,1,.74-.74h0V20.58a1.36,1.36,0,0,1,2.72,0V25A.74.74,0,0,1,15.87,25.76Z"/><path class="cls-2" d="M15.87,25.76v.68h-3v6.12l-1.24.72V25.76a.74.74,0,0,1,.74-.74h0V22.34h2.72V23.4h-1.9V25h1.9A.74.74,0,0,1,15.87,25.76Z"/><path class="cls-4" d="M15.87,25.76v5.07l-4.22,2.45V25.76a.74.74,0,0,1,.74-.74h2.75A.74.74,0,0,1,15.87,25.76Z"/><rect class="cls-4" x="12.42" y="22.43" width="2.71" height="2.58"/><path class="cls-4" d="M15.14,20.58H12.42a1.36,1.36,0,0,1,2.72,0Z"/><line class="cls-4" x1="12.42" y1="22.43" x2="12.42" y2="20.58"/><line class="cls-4" x1="13.78" y1="20.58" x2="13.78" y2="22.44"/><line class="cls-4" x1="15.14" y1="22.43" x2="15.14" y2="20.58"/><line class="cls-5" x1="6.78" y1="66.65" x2="6.78" y2="38.48"/><polygon class="cls-5" points="53.15 9.06 53.15 11.37 33.59 22.75 26.56 26.84 25.18 27.64 0.5 42 0.5 39.69 26.56 24.53 33.59 20.44 53.15 9.06"/><rect class="cls-3" x="36.3" y="30.23" width="15.21" height="19.37"/><path class="cls-2" d="M51.51,30.23v2.11H38.29V49.6h-2V30.23Z"/><line class="cls-6" x1="34.27" y1="49.59" x2="53.15" y2="49.59"/><rect class="cls-6" x="36.3" y="30.22" width="14.82" height="19.37"/><line class="cls-6" x1="43.71" y1="30.22" x2="43.71" y2="49.59"/><line class="cls-6" x1="36.3" y1="39.91" x2="51.12" y2="39.91"/><rect class="cls-3" x="62.13" y="30.23" width="7.41" height="19.37"/><path class="cls-2" d="M69.54,30.23v2.1H64V49.59h-2V30.23Z"/><polyline class="cls-6" points="60.1 49.6 62.13 49.6 69.54 49.6"/><rect class="cls-6" x="62.13" y="30.23" width="7.41" height="19.37"/><polyline class="cls-6" points="69.54 30.23 69.54 39.91 69.54 49.6"/><line class="cls-6" x1="69.54" y1="39.91" x2="62.13" y2="39.91"/><line class="cls-7" x1="5.58" y1="0.26" x2="5.58" y2="1.21"/><line class="cls-8" x1="5.58" y1="3.17" x2="5.58" y2="64.72"/><line class="cls-7" x1="5.58" y1="65.7" x2="5.58" y2="66.65"/><line class="cls-7" x1="22.2" y1="0.26" x2="22.2" y2="1.21"/><line class="cls-8" x1="22.2" y1="3.17" x2="22.2" y2="64.72"/><line class="cls-7" x1="22.2" y1="65.7" x2="22.2" y2="66.65"/><line class="cls-7" x1="52.92" y1="0.26" x2="52.92" y2="1.21"/><line class="cls-8" x1="52.92" y1="3.17" x2="52.92" y2="64.72"/><line class="cls-7" x1="52.92" y1="65.7" x2="52.92" y2="66.65"/><line class="cls-7" x1="69.54" y1="0.26" x2="69.54" y2="1.21"/><line class="cls-8" x1="69.54" y1="3.17" x2="69.54" y2="64.72"/><line class="cls-7" x1="69.54" y1="65.7" x2="69.54" y2="66.65"/></g></g></svg>