<svg xmlns="http://www.w3.org/2000/svg" viewBox="0 0 59.95 68.71"><defs><style>.cls-1{fill:#bbf9f6;}.cls-2{fill:#fff;}.cls-3{fill:#29b2b8;}.cls-4,.cls-5,.cls-6,.cls-7{fill:none;}.cls-4,.cls-5,.cls-7{stroke:#1c3157;}.cls-4,.cls-7{stroke-linecap:round;stroke-linejoin:round;}.cls-5,.cls-6{stroke-miterlimit:10;}.cls-6{stroke:#29b2b8;}.cls-6,.cls-7{stroke-width:0.72px;}</style></defs><g id="Layer_2" data-name="Layer 2"><g id="Layer_2-2" data-name="Layer 2"><polygon class="cls-1" points="55.56 7.37 55.56 9.61 39.56 9.61 39.56 7.37 45.39 7.37 45.39 1.96 51.32 1.96 51.32 7.37 55.56 7.37"/><rect class="cls-2" x="0.5" y="7.38" width="58.95" height="60.83"/><polygon class="cls-1" points="59.45 37.05 59.45 40.52 25.38 40.52 25.38 68.21 20.95 68.21 20.95 37.05 59.45 37.05"/><polygon class="cls-1" points="59.45 12.53 8.42 12.53 25.96 37.05 21.06 37.05 0.72 7.38 59.45 7.38 59.45 12.53"/><polygon class="cls-1" points="16.33 34.42 0.5 34.42 0.5 10.95 16.33 34.42"/><rect class="cls-3" x="44.81" y="44.22" width="8.31" height="10.07"/><polygon class="cls-1" points="52.91 44.43 52.91 46.21 46.38 46.21 46.38 54.37 44.99 54.37 44.99 44.43 52.91 44.43"/><rect class="cls-3" x="28" y="44.22" width="8.44" height="10.07"/><polygon class="cls-1" points="35.92 44.28 35.92 46.06 29.39 46.06 29.39 54.22 28 54.22 28 44.28 35.92 44.28"/><rect class="cls-3" x="6.41" y="44.21" width="7.92" height="9.94"/><polygon class="cls-1" points="14.33 44.22 14.33 46 7.79 46 7.79 54.16 6.41 54.16 6.41 44.22 14.33 44.22"/><polyline class="cls-4" points="0.5 37.05 59.45 37.05 59.45 68.21"/><polyline class="cls-5" points="21.06 68.21 21.06 37.05 0.5 37.05"/><polyline class="cls-4" points="0.5 7.38 20.95 36.88 0.5 37.05"/><polyline class="cls-4" points="0.5 11.57 16.33 34.42 0.5 34.42"/><polyline class="cls-4" points="0.5 37.05 21.06 37.05 59.45 37.05 59.45 7.38 55.56 7.38 51.33 7.38 45.4 7.38 39.56 7.38 31.09 7.38 28.69 7.38 27.46 7.38 27.42 7.38 0.5 7.38"/><rect class="cls-4" x="45.39" y="1.96" width="5.93" height="5.41"/><line class="cls-4" x1="0.5" y1="17.92" x2="4.72" y2="17.92"/><line class="cls-4" x1="7.56" y1="21.91" x2="0.5" y2="21.91"/><line class="cls-4" x1="10.22" y1="25.9" x2="0.5" y2="25.9"/><line class="cls-4" x1="0.5" y1="29.88" x2="12.77" y2="29.88"/><line class="cls-4" x1="5.32" y1="54.58" x2="15.42" y2="54.58"/><rect class="cls-4" x="6.4" y="44.22" width="7.93" height="10.36"/><line class="cls-4" x1="10.37" y1="44.22" x2="10.37" y2="54.58"/><line class="cls-4" x1="6.4" y1="49.4" x2="14.33" y2="49.4"/><line class="cls-4" x1="27.13" y1="54.58" x2="37.23" y2="54.58"/><rect class="cls-4" x="28.22" y="44.22" width="7.93" height="10.36"/><line class="cls-4" x1="32.18" y1="44.22" x2="32.18" y2="54.58"/><line class="cls-4" x1="28.22" y1="49.4" x2="36.15" y2="49.4"/><line class="cls-4" x1="43.9" y1="54.58" x2="54" y2="54.58"/><rect class="cls-4" x="44.98" y="44.22" width="7.93" height="10.36"/><line class="cls-4" x1="48.95" y1="44.22" x2="48.95" y2="54.58"/><line class="cls-4" x1="44.98" y1="49.4" x2="52.91" y2="49.4"/><path class="cls-2" d="M31.29,6.66v7.72H27.22V6.66A.71.71,0,0,1,27.93,6h0V1.67a1.31,1.31,0,1,1,2.62,0V6A.71.71,0,0,1,31.29,6.66Z"/><path class="cls-1" d="M31.29,6.66v.5H28.11v7.22h-.89V6.66A.71.71,0,0,1,27.93,6h0V3.57h2.62v.62c-.69,0-1.73.06-1.73.06V6h1.73A.71.71,0,0,1,31.29,6.66Z"/><path class="cls-6" d="M31.29,6.66v7.72H27.22V6.66A.71.71,0,0,1,27.93,6h2.65A.71.71,0,0,1,31.29,6.66Z"/><line class="cls-7" x1="26" y1="14.39" x2="32.5" y2="14.39"/><rect class="cls-6" x="27.96" y="3.46" width="2.62" height="2.49"/><path class="cls-6" d="M30.58,1.67H28a1.31,1.31,0,1,1,2.62,0Z"/><line class="cls-6" x1="27.96" y1="3.46" x2="27.96" y2="1.67"/><line class="cls-6" x1="29.27" y1="1.67" x2="29.27" y2="3.46"/><line class="cls-6" x1="30.58" y1="3.46" x2="30.58" y2="1.67"/></g></g></svg>