<svg xmlns="http://www.w3.org/2000/svg" viewBox="0 0 45.17 76.03"><defs><style>.cls-1,.cls-4{fill:#fff;}.cls-2{fill:#bbf9f6;}.cls-3{fill:none;}.cls-3,.cls-4{stroke:#1c3157;stroke-linecap:round;stroke-linejoin:round;}.cls-4{stroke-width:0.72px;}.cls-5{fill:#29b2b8;}</style></defs><g id="Layer_2" data-name="Layer 2"><g id="Layer_2-2" data-name="Layer 2"><polygon class="cls-1" points="44.67 0.48 44.67 18.42 5.54 18.42 23.48 0.48 44.67 0.48"/><polygon class="cls-2" points="44.67 0.48 44.67 3.26 24.72 3.26 9.56 18.42 5.54 18.42 23.48 0.48 44.67 0.48"/><polygon class="cls-1" points="44.67 18.45 5.54 18.45 5.54 25.15 7.26 25.15 7.26 75.53 15.51 75.53 15.51 52.08 15.75 52.08 15.75 75.53 44.67 75.53 44.67 52.08 44.67 52.08 44.67 18.45"/><polygon class="cls-2" points="44.67 18.45 44.67 22.84 18.33 22.84 18.93 52.08 15.51 52.08 15.51 18.45 44.67 18.45"/><polygon class="cls-2" points="15.51 25.27 15.51 27.25 9.29 27.25 9.29 75.53 7.25 75.53 7.25 25.27 15.51 25.27"/><polygon class="cls-2" points="15.75 19.51 15.63 19.6 7.25 19.6 7.25 25.16 5.54 25.16 5.54 18.45 15.51 18.45 15.51 19.51 15.75 19.51"/><rect class="cls-1" x="27.15" y="27.69" width="15.81" height="20.14"/><polyline class="cls-3" points="15.51 75.53 15.51 52.08 15.51 25.16 7.25 25.16 7.25 36.4 7.25 41.83 7.25 75.53"/><rect class="cls-4" x="6.03" y="37.55" width="1.23" height="5.18"/><rect class="cls-4" x="4.8" y="38.32" width="1.23" height="3.63"/><polyline class="cls-4" points="0.36 38.87 4.8 38.87 4.8 41.4 0.36 41.4"/><rect class="cls-3" x="5.54" y="18.46" width="9.97" height="6.7"/><polyline class="cls-3" points="44.67 18.45 15.51 18.45 15.51 25.16 15.51 52.08 44.67 52.08"/><rect class="cls-5" x="27.15" y="27.69" width="15.81" height="20.14"/><polygon class="cls-2" points="42.96 27.69 42.96 29.69 29.34 29.69 29.34 47.83 27.15 47.83 27.15 27.69 42.96 27.69"/><polyline class="cls-3" points="44.67 47.83 42.96 47.83 42.56 47.83 34.85 47.83 27.15 47.83 25.04 47.83"/><rect class="cls-3" x="27.15" y="27.69" width="15.4" height="20.14"/><line class="cls-3" x1="34.85" y1="27.69" x2="34.85" y2="47.83"/><line class="cls-3" x1="27.15" y1="37.76" x2="42.56" y2="37.76"/><polyline class="cls-3" points="44.67 0.5 23.5 0.5 5.54 18.45"/></g></g></svg>