<svg xmlns="http://www.w3.org/2000/svg" viewBox="0 0 31.11 30.36"><defs><style>.cls-1{fill:#29b2b8;}.cls-2,.cls-6{fill:#fff;}.cls-3,.cls-8{fill:#bbf9f6;}.cls-4,.cls-5{fill:none;}.cls-4,.cls-5,.cls-6,.cls-8{stroke:#1c3157;stroke-width:0.5px;}.cls-4,.cls-6,.cls-8{stroke-linecap:round;stroke-linejoin:round;}.cls-5{stroke-miterlimit:10;}.cls-7{fill:#1c3157;}</style></defs><g id="Layer_2" data-name="Layer 2"><g id="Layer_2-2" data-name="Layer 2"><circle class="cls-1" cx="26.31" cy="16.9" r="4.8"/><rect class="cls-1" x="25.9" y="19.33" width="0.78" height="10.82"/><polygon class="cls-2" points="25.93 2.99 25.93 30.24 2.79 30.24 2.79 2.99 16.82 2.99 16.82 1.36 16.13 1.36 16.13 0.25 19.41 0.25 19.41 1.36 18.61 1.36 18.61 2.99 25.93 2.99"/><polygon class="cls-3" points="25.93 13.44 15.55 13.44 15.55 30.11 14.31 30.11 14.31 11.93 25.93 11.93 25.93 13.44"/><rect class="cls-3" x="2.8" y="11.93" width="2.61" height="18.18"/><polygon class="cls-3" points="25.93 9.77 25.93 11.93 2.79 11.93 2.79 2.99 8.56 2.99 8.56 9.77 25.93 9.77"/><rect class="cls-3" x="2.8" y="28.4" width="23.13" height="1.84"/><rect class="cls-4" x="2.8" y="11.93" width="23.13" height="18.18"/><rect class="cls-5" x="2.8" y="11.93" width="11.57" height="18.18"/><polygon class="cls-6" points="2.79 11.93 14.36 11.93 8.58 2.99 2.79 11.93"/><polygon class="cls-3" points="4.68 10.89 8.58 4.86 12.48 10.89 4.68 10.89"/><path class="cls-7" d="M8.58,5.32,12,10.64H5.14L8.58,5.32m0-.92L4.22,11.14h8.72L8.58,4.4Z"/><rect class="cls-4" x="2.8" y="2.99" width="23.13" height="8.94"/><rect class="cls-8" x="16.82" y="1.36" width="1.78" height="1.63"/><rect class="cls-4" x="16.12" y="0.25" width="3.29" height="1.11"/><line class="cls-4" x1="7.9" y1="6.17" x2="9.28" y2="6.17"/><line class="cls-4" x1="7.01" y1="7.37" x2="9.99" y2="7.37"/><line class="cls-4" x1="6.27" y1="8.57" x2="10.77" y2="8.57"/><line class="cls-4" x1="7.9" y1="9.77" x2="9.28" y2="9.77"/><line class="cls-4" x1="7.9" y1="9.77" x2="11.57" y2="9.77"/><line class="cls-4" x1="5.56" y1="9.77" x2="11.57" y2="9.77"/><rect class="cls-1" x="6.91" y="20.82" width="3.05" height="3.78"/><rect class="cls-4" x="6.91" y="20.82" width="3.05" height="7.57"/><rect class="cls-4" x="6.1" y="28.39" width="4.56" height="1.72"/><rect class="cls-4" x="6.1" y="29.25" width="4.56" height="0.86"/><line class="cls-4" x1="8.43" y1="20.82" x2="8.43" y2="24.52"/><line class="cls-4" x1="6.97" y1="24.61" x2="9.88" y2="24.61"/><line class="cls-4" x1="6.97" y1="22.73" x2="9.88" y2="22.73"/><rect class="cls-1" x="7.15" y="14.27" width="3.09" height="4.38"/><line class="cls-4" x1="6.72" y1="18.84" x2="10.66" y2="18.84"/><rect class="cls-4" x="7.15" y="14.27" width="3.09" height="4.57"/><line class="cls-4" x1="8.69" y1="14.27" x2="8.69" y2="18.84"/><line class="cls-4" x1="7.15" y1="16.55" x2="10.23" y2="16.55"/><rect class="cls-1" x="18.93" y="14.27" width="3.09" height="4.38"/><line class="cls-4" x1="18.5" y1="18.84" x2="22.44" y2="18.84"/><rect class="cls-4" x="18.93" y="14.27" width="3.09" height="4.57"/><line class="cls-4" x1="20.47" y1="14.27" x2="20.47" y2="18.84"/><line class="cls-4" x1="18.93" y1="16.55" x2="22.01" y2="16.55"/><rect class="cls-1" x="18.93" y="20.82" width="3.16" height="4.57"/><line class="cls-4" x1="18.5" y1="25.39" x2="22.44" y2="25.39"/><rect class="cls-4" x="18.93" y="20.82" width="3.09" height="4.57"/><line class="cls-4" x1="20.47" y1="20.82" x2="20.47" y2="25.39"/><line class="cls-4" x1="18.93" y1="23.11" x2="22.01" y2="23.11"/><line class="cls-4" x1="0.25" y1="30.11" x2="28.37" y2="30.11"/></g></g></svg>