<svg xmlns="http://www.w3.org/2000/svg" viewBox="0 0 54.11 30.36"><defs><style>.cls-1{fill:#29b2b8;}.cls-10,.cls-2,.cls-5,.cls-8,.cls-9{fill:none;}.cls-2,.cls-5,.cls-7{stroke:#1c3157;}.cls-10,.cls-11,.cls-2,.cls-7,.cls-8{stroke-linecap:round;}.cls-10,.cls-11,.cls-2,.cls-7{stroke-linejoin:round;}.cls-10,.cls-11,.cls-2,.cls-5,.cls-7,.cls-8,.cls-9{stroke-width:0.5px;}.cls-3{fill:#fff;}.cls-11,.cls-4,.cls-7{fill:#bbf9f6;}.cls-5,.cls-8,.cls-9{stroke-miterlimit:10;}.cls-6{fill:#1c3157;}.cls-10,.cls-11,.cls-8,.cls-9{stroke:#29b2b8;}</style></defs><g id="Layer_2" data-name="Layer 2"><g id="Layer_2-2" data-name="Layer 2"><circle class="cls-1" cx="4.8" cy="16.82" r="4.8"/><rect class="cls-1" x="4.39" y="19.26" width="0.78" height="10.82"/><line class="cls-2" x1="3.48" y1="30.11" x2="53.86" y2="30.11"/><polygon class="cls-3" points="51.47 2.99 51.47 30.24 5.21 30.24 5.21 2.99 19.24 2.99 19.24 1.36 18.54 1.36 18.54 0.25 21.83 0.25 21.83 1.36 21.02 1.36 21.02 2.99 35.66 2.99 35.66 1.36 34.85 1.36 34.85 0.25 38.14 0.25 38.14 1.36 37.44 1.36 37.44 2.99 51.47 2.99"/><polygon class="cls-4" points="28.34 13.44 17.97 13.44 17.97 30.11 16.73 30.11 16.73 11.93 28.34 11.93 28.34 13.44"/><rect class="cls-4" x="5.21" y="11.93" width="2.61" height="18.18"/><polygon class="cls-4" points="28.34 9.77 28.34 11.93 5.21 11.93 5.21 2.99 10.98 2.99 10.98 9.77 28.34 9.77"/><polygon class="cls-4" points="51.47 13.44 41.1 13.44 41.1 30.11 39.86 30.11 39.86 11.93 51.47 11.93 51.47 13.44"/><rect class="cls-4" x="28.34" y="11.93" width="2.61" height="18.18"/><polygon class="cls-4" points="51.47 9.77 51.47 11.93 28.34 11.93 28.34 2.99 34.11 2.99 34.11 9.77 51.47 9.77"/><rect class="cls-4" x="5.21" y="28.4" width="23.13" height="1.84"/><rect class="cls-2" x="5.21" y="11.93" width="23.13" height="18.18"/><rect class="cls-5" x="5.21" y="11.93" width="11.56" height="18.18"/><polygon class="cls-2" points="5.21 11.93 16.78 11.93 10.99 2.99 5.21 11.93"/><path class="cls-6" d="M11,5.32l3.43,5.32H7.56L11,5.32m0-.92L6.64,11.14h8.71L11,4.4Z"/><rect class="cls-2" x="5.21" y="2.99" width="23.13" height="8.94"/><rect class="cls-7" x="19.24" y="1.36" width="1.78" height="1.63"/><rect class="cls-2" x="18.54" y="0.25" width="3.29" height="1.11"/><line class="cls-2" x1="10.32" y1="6.17" x2="11.7" y2="6.17"/><line class="cls-2" x1="9.43" y1="7.37" x2="12.41" y2="7.37"/><line class="cls-2" x1="8.68" y1="8.57" x2="13.18" y2="8.57"/><line class="cls-2" x1="10.32" y1="9.77" x2="11.7" y2="9.77"/><line class="cls-2" x1="10.32" y1="9.77" x2="13.99" y2="9.77"/><line class="cls-2" x1="7.98" y1="9.77" x2="13.99" y2="9.77"/><rect class="cls-4" x="28.34" y="28.4" width="23.13" height="1.84"/><rect class="cls-8" x="28.34" y="11.93" width="23.13" height="18.18"/><rect class="cls-9" x="39.91" y="11.93" width="11.56" height="18.18"/><polygon class="cls-10" points="51.48 11.93 39.91 11.93 45.69 2.99 51.48 11.93"/><polygon class="cls-4" points="41.79 10.89 45.69 4.86 49.59 10.89 41.79 10.89"/><path class="cls-1" d="M45.69,5.32l3.44,5.32H42.25l3.44-5.32m0-.92-4.36,6.74h8.72L45.69,4.4Z"/><rect class="cls-8" x="28.34" y="2.99" width="23.13" height="8.94"/><rect class="cls-11" x="35.66" y="1.36" width="1.78" height="1.63"/><rect class="cls-10" x="34.85" y="0.25" width="3.29" height="1.11"/><line class="cls-10" x1="46.36" y1="6.17" x2="44.99" y2="6.17"/><line class="cls-10" x1="47.26" y1="7.37" x2="44.28" y2="7.37"/><line class="cls-10" x1="48" y1="8.57" x2="43.5" y2="8.57"/><line class="cls-10" x1="46.36" y1="9.77" x2="44.99" y2="9.77"/><line class="cls-10" x1="46.36" y1="9.77" x2="42.7" y2="9.77"/><line class="cls-10" x1="48.7" y1="9.77" x2="42.7" y2="9.77"/><rect class="cls-1" x="9.42" y="20.65" width="3.05" height="3.78"/><rect class="cls-2" x="9.42" y="20.65" width="3.05" height="7.57"/><rect class="cls-2" x="8.61" y="28.21" width="4.56" height="1.72"/><rect class="cls-2" x="8.61" y="29.07" width="4.56" height="0.86"/><line class="cls-2" x1="10.94" y1="20.65" x2="10.94" y2="24.35"/><line class="cls-2" x1="9.48" y1="24.43" x2="12.39" y2="24.43"/><line class="cls-2" x1="9.48" y1="22.55" x2="12.39" y2="22.55"/><rect class="cls-1" x="9.66" y="14.09" width="3.09" height="4.38"/><line class="cls-2" x1="9.23" y1="18.66" x2="13.17" y2="18.66"/><rect class="cls-2" x="9.66" y="14.09" width="3.09" height="4.57"/><line class="cls-2" x1="11.2" y1="14.09" x2="11.2" y2="18.66"/><line class="cls-2" x1="9.66" y1="16.37" x2="12.74" y2="16.37"/><rect class="cls-1" x="21.44" y="14.09" width="3.09" height="4.38"/><line class="cls-2" x1="21.01" y1="18.66" x2="24.95" y2="18.66"/><rect class="cls-2" x="21.44" y="14.09" width="3.09" height="4.57"/><line class="cls-2" x1="22.98" y1="14.09" x2="22.98" y2="18.66"/><line class="cls-2" x1="21.44" y1="16.37" x2="24.52" y2="16.37"/><rect class="cls-1" x="21.44" y="20.65" width="3.16" height="4.57"/><line class="cls-2" x1="21.01" y1="25.21" x2="24.95" y2="25.21"/><rect class="cls-2" x="21.44" y="20.65" width="3.09" height="4.57"/><line class="cls-2" x1="22.98" y1="20.65" x2="22.98" y2="25.21"/><line class="cls-2" x1="21.44" y1="22.93" x2="24.52" y2="22.93"/><rect class="cls-6" x="44.06" y="20.82" width="3.05" height="3.78" transform="translate(91.17 45.43) rotate(-180)"/><rect class="cls-8" x="44.06" y="20.82" width="3.05" height="7.57" transform="translate(91.17 49.21) rotate(-180)"/><rect class="cls-9" x="43.36" y="28.39" width="4.56" height="1.72" transform="translate(91.28 58.5) rotate(-180)"/><rect class="cls-9" x="43.36" y="29.25" width="4.56" height="0.86" transform="translate(91.28 59.36) rotate(-180)"/><line class="cls-8" x1="45.59" y1="20.82" x2="45.59" y2="24.53"/><line class="cls-8" x1="47.05" y1="24.61" x2="44.14" y2="24.61"/><line class="cls-8" x1="47.05" y1="22.73" x2="44.14" y2="22.73"/><rect class="cls-6" x="44.09" y="14.27" width="3.09" height="4.38" transform="translate(91.27 32.92) rotate(-180)"/><line class="cls-9" x1="47.6" y1="18.84" x2="43.67" y2="18.84"/><rect class="cls-9" x="44.09" y="14.27" width="3.09" height="4.57" transform="translate(91.27 33.1) rotate(-180)"/><line class="cls-9" x1="45.64" y1="14.27" x2="45.64" y2="18.84"/><line class="cls-9" x1="47.18" y1="16.55" x2="44.09" y2="16.55"/><rect class="cls-6" x="32.01" y="14.27" width="3.09" height="4.38" transform="translate(67.1 32.92) rotate(-180)"/><line class="cls-8" x1="35.52" y1="18.84" x2="31.58" y2="18.84"/><rect class="cls-8" x="32.01" y="14.27" width="3.09" height="4.57" transform="translate(67.1 33.1) rotate(-180)"/><line class="cls-8" x1="33.55" y1="14.27" x2="33.55" y2="18.84"/><line class="cls-8" x1="35.09" y1="16.55" x2="32.01" y2="16.55"/><rect class="cls-6" x="31.93" y="20.82" width="3.16" height="4.57" transform="translate(67.02 46.21) rotate(-180)"/><line class="cls-8" x1="35.52" y1="25.39" x2="31.58" y2="25.39"/><rect class="cls-8" x="32.01" y="20.82" width="3.09" height="4.57" transform="translate(67.1 46.21) rotate(-180)"/><line class="cls-8" x1="33.55" y1="20.82" x2="33.55" y2="25.39"/><line class="cls-8" x1="35.09" y1="23.11" x2="32.01" y2="23.11"/></g></g></svg>