<svg xmlns="http://www.w3.org/2000/svg" viewBox="0 0 64.68 28.4"><defs><style>.cls-1{fill:#29b2b8;}.cls-2{fill:#fff;}.cls-3{fill:#bbf9f6;}.cls-4,.cls-5{fill:none;stroke-linecap:round;stroke-width:0.5px;}.cls-4{stroke:#1c3157;stroke-linejoin:round;}.cls-5{stroke:#29b2b8;stroke-miterlimit:10;}.cls-6{fill:#1c3157;}</style></defs><g id="Layer_2" data-name="Layer 2"><g id="Layer_2-2" data-name="Layer 2"><circle class="cls-1" cx="59.88" cy="14.89" r="4.8"/><rect class="cls-1" x="59.47" y="17.33" width="0.78" height="10.82"/><polygon class="cls-2" points="59.47 1.63 59.47 28.31 1.6 28.31 1.6 1.63 15.01 1.63 15.01 0.26 16.97 0.26 16.97 1.63 34.3 1.63 34.3 0.25 36.26 0.25 36.26 1.63 53.59 1.63 53.59 0.25 55.55 0.25 55.55 1.63 59.47 1.63"/><rect class="cls-3" x="1.6" y="1.63" width="2.73" height="26.52"/><rect class="cls-3" x="20.89" y="1.63" width="2.73" height="26.52"/><rect class="cls-3" x="40.18" y="1.63" width="2.73" height="26.52"/><polygon class="cls-3" points="59.47 1.63 59.47 3.64 1.6 3.64 1.6 1.63 14.26 1.63 14.26 0.26 17.85 0.26 17.85 1.63 33.55 1.63 33.55 0.25 37.14 0.25 37.14 1.63 52.84 1.63 52.84 0.25 56.43 0.25 56.43 1.63 59.47 1.63"/><line class="cls-4" x1="0.25" y1="28.15" x2="60.97" y2="28.15"/><rect class="cls-3" x="40.18" y="26.04" width="19.29" height="2.27"/><rect class="cls-4" x="40.18" y="5.65" width="19.29" height="22.5"/><rect class="cls-4" x="40.18" y="1.63" width="19.29" height="4.02"/><rect class="cls-4" x="52.84" y="0.25" width="3.59" height="1.37"/><rect class="cls-3" x="1.6" y="26.04" width="19.29" height="2.27"/><rect class="cls-4" x="1.6" y="5.65" width="19.29" height="22.5"/><rect class="cls-4" x="1.6" y="1.63" width="19.29" height="4.02"/><rect class="cls-4" x="14.26" y="0.26" width="3.59" height="1.37"/><rect class="cls-1" x="5.34" y="16.52" width="3.82" height="4.74"/><rect class="cls-4" x="5.34" y="16.52" width="3.82" height="9.47"/><rect class="cls-4" x="4.33" y="26" width="5.7" height="2.15"/><rect class="cls-4" x="4.33" y="27.07" width="5.7" height="1.07"/><line class="cls-4" x1="7.25" y1="16.52" x2="7.25" y2="21.16"/><line class="cls-4" x1="5.42" y1="21.26" x2="9.07" y2="21.26"/><line class="cls-4" x1="5.42" y1="18.91" x2="9.07" y2="18.91"/><rect class="cls-1" x="5.64" y="8.32" width="3.86" height="5.49"/><line class="cls-4" x1="5.11" y1="14.04" x2="10.03" y2="14.04"/><rect class="cls-4" x="5.64" y="8.32" width="3.86" height="5.72"/><line class="cls-4" x1="7.57" y1="8.32" x2="7.57" y2="14.04"/><line class="cls-4" x1="5.64" y1="11.18" x2="9.5" y2="11.18"/><rect class="cls-1" x="13.55" y="8.32" width="3.86" height="5.49"/><line class="cls-4" x1="13.02" y1="14.04" x2="17.94" y2="14.04"/><rect class="cls-4" x="13.55" y="8.32" width="3.86" height="5.72"/><line class="cls-4" x1="15.48" y1="8.32" x2="15.48" y2="14.04"/><line class="cls-4" x1="13.55" y1="11.18" x2="17.41" y2="11.18"/><rect class="cls-1" x="13.77" y="16.52" width="3.96" height="5.72"/><line class="cls-4" x1="13.24" y1="22.24" x2="18.16" y2="22.24"/><rect class="cls-4" x="13.77" y="16.52" width="3.86" height="5.72"/><line class="cls-4" x1="15.7" y1="16.52" x2="15.7" y2="22.24"/><line class="cls-4" x1="13.77" y1="19.38" x2="17.63" y2="19.38"/><rect class="cls-3" x="20.89" y="26.04" width="19.29" height="2.27"/><rect class="cls-5" x="20.89" y="5.65" width="19.29" height="22.5"/><rect class="cls-5" x="20.89" y="1.63" width="19.29" height="4.02"/><rect class="cls-5" x="33.55" y="0.25" width="3.59" height="1.37"/><rect class="cls-6" x="24.41" y="16.52" width="3.82" height="4.74"/><rect class="cls-5" x="24.41" y="16.52" width="3.82" height="9.47"/><rect class="cls-5" x="23.4" y="26" width="5.7" height="2.15"/><rect class="cls-5" x="23.4" y="27.07" width="5.7" height="1.07"/><line class="cls-5" x1="26.32" y1="16.52" x2="26.32" y2="21.16"/><line class="cls-5" x1="24.49" y1="21.26" x2="28.14" y2="21.26"/><line class="cls-5" x1="24.49" y1="18.91" x2="28.14" y2="18.91"/><rect class="cls-6" x="24.71" y="8.32" width="3.86" height="5.49"/><line class="cls-5" x1="24.18" y1="14.04" x2="29.11" y2="14.04"/><rect class="cls-5" x="24.71" y="8.32" width="3.86" height="5.72"/><line class="cls-5" x1="26.64" y1="8.32" x2="26.64" y2="14.04"/><line class="cls-5" x1="24.71" y1="11.18" x2="28.58" y2="11.18"/><rect class="cls-6" x="32.62" y="8.32" width="3.86" height="5.49"/><line class="cls-5" x1="32.09" y1="14.04" x2="37.02" y2="14.04"/><rect class="cls-5" x="32.62" y="8.32" width="3.86" height="5.72"/><line class="cls-5" x1="34.55" y1="8.32" x2="34.55" y2="14.04"/><line class="cls-5" x1="32.62" y1="11.18" x2="36.49" y2="11.18"/><rect class="cls-5" x="32.84" y="16.52" width="3.96" height="5.72"/><rect class="cls-6" x="32.84" y="16.52" width="3.86" height="5.72"/><line class="cls-5" x1="34.77" y1="16.52" x2="34.77" y2="22.24"/><line class="cls-5" x1="32.84" y1="19.38" x2="36.7" y2="19.38"/><line class="cls-5" x1="32.31" y1="22.24" x2="37.23" y2="22.24"/><rect class="cls-1" x="43.92" y="16.52" width="3.82" height="4.74"/><rect class="cls-4" x="43.92" y="16.52" width="3.82" height="9.47"/><rect class="cls-4" x="42.91" y="26" width="5.7" height="2.15"/><rect class="cls-4" x="42.91" y="27.07" width="5.7" height="1.07"/><line class="cls-4" x1="45.83" y1="16.52" x2="45.83" y2="21.16"/><line class="cls-4" x1="44" y1="21.26" x2="47.65" y2="21.26"/><line class="cls-4" x1="44" y1="18.91" x2="47.65" y2="18.91"/><rect class="cls-1" x="44.22" y="8.32" width="3.86" height="5.49"/><line class="cls-4" x1="43.69" y1="14.04" x2="48.61" y2="14.04"/><rect class="cls-4" x="44.22" y="8.32" width="3.86" height="5.72"/><line class="cls-4" x1="46.15" y1="8.32" x2="46.15" y2="14.04"/><line class="cls-4" x1="44.22" y1="11.18" x2="48.08" y2="11.18"/><rect class="cls-1" x="52.13" y="8.32" width="3.86" height="5.49"/><line class="cls-4" x1="51.6" y1="14.04" x2="56.52" y2="14.04"/><rect class="cls-4" x="52.13" y="8.32" width="3.86" height="5.72"/><line class="cls-4" x1="54.06" y1="8.32" x2="54.06" y2="14.04"/><line class="cls-4" x1="52.13" y1="11.18" x2="55.99" y2="11.18"/><rect class="cls-1" x="52.35" y="16.52" width="3.96" height="5.72"/><line class="cls-4" x1="51.82" y1="22.24" x2="56.74" y2="22.24"/><rect class="cls-4" x="52.35" y="16.52" width="3.86" height="5.72"/><line class="cls-4" x1="54.28" y1="16.52" x2="54.28" y2="22.24"/><line class="cls-4" x1="52.35" y1="19.38" x2="56.21" y2="19.38"/></g></g></svg>