<svg xmlns="http://www.w3.org/2000/svg" viewBox="0 0 29.91 39.95"><defs><style>.cls-1{fill:#29b2b8;}.cls-2{fill:#fff;}.cls-3{fill:#bbf9f6;}.cls-4{fill:none;stroke:#1c3157;stroke-linecap:round;stroke-linejoin:round;stroke-width:0.5px;}</style></defs><g id="Layer_2" data-name="Layer 2"><g id="Layer_2-2" data-name="Layer 2"><circle class="cls-1" cx="4.8" cy="26.44" r="4.8"/><rect class="cls-1" x="4.39" y="28.88" width="0.78" height="10.82"/><circle class="cls-1" cx="25.11" cy="26.44" r="4.8"/><rect class="cls-1" x="24.69" y="28.88" width="0.78" height="10.82"/><rect class="cls-2" x="5.38" y="0.25" width="19.29" height="39.61"/><rect class="cls-3" x="5.38" y="0.25" width="2.55" height="39.45"/><rect class="cls-3" x="5.38" y="0.25" width="19.29" height="1.65"/><rect class="cls-1" x="14.6" y="29.35" width="2.67" height="3.92"/><rect class="cls-3" x="5.38" y="37.59" width="19.29" height="2.27"/><rect class="cls-4" x="5.38" y="1.9" width="19.29" height="37.8"/><rect class="cls-1" x="8.04" y="29.18" width="3.45" height="4.29"/><rect class="cls-4" x="8.04" y="29.18" width="3.45" height="8.57"/><rect class="cls-4" x="7.13" y="37.75" width="5.16" height="1.95"/><rect class="cls-4" x="7.13" y="38.72" width="5.16" height="0.97"/><line class="cls-4" x1="9.77" y1="29.18" x2="9.77" y2="33.37"/><line class="cls-4" x1="8.11" y1="33.47" x2="11.41" y2="33.47"/><line class="cls-4" x1="8.11" y1="31.34" x2="11.41" y2="31.34"/><rect class="cls-1" x="19.39" y="29.18" width="3.45" height="4.29"/><rect class="cls-4" x="19.39" y="29.18" width="3.45" height="8.57"/><rect class="cls-4" x="18.47" y="37.75" width="5.16" height="1.95"/><rect class="cls-4" x="18.47" y="38.72" width="5.16" height="0.97"/><line class="cls-4" x1="21.11" y1="29.18" x2="21.11" y2="33.37"/><line class="cls-4" x1="19.45" y1="33.47" x2="22.75" y2="33.47"/><line class="cls-4" x1="19.45" y1="31.34" x2="22.75" y2="31.34"/><rect class="cls-1" x="7.93" y="19.87" width="2.61" height="3.71"/><line class="cls-4" x1="7.6" y1="23.73" x2="10.93" y2="23.73"/><rect class="cls-4" x="7.93" y="19.87" width="2.61" height="3.86"/><line class="cls-4" x1="9.23" y1="19.87" x2="9.23" y2="23.73"/><line class="cls-4" x1="7.93" y1="21.8" x2="10.54" y2="21.8"/><rect class="cls-1" x="13.79" y="19.87" width="2.61" height="3.71"/><line class="cls-4" x1="13.44" y1="23.73" x2="16.76" y2="23.73"/><rect class="cls-4" x="13.79" y="19.87" width="2.61" height="3.86"/><line class="cls-4" x1="15.1" y1="19.87" x2="15.1" y2="23.73"/><line class="cls-4" x1="13.79" y1="21.8" x2="16.4" y2="21.8"/><rect class="cls-1" x="19.47" y="19.87" width="2.61" height="3.71"/><line class="cls-4" x1="19.11" y1="23.73" x2="22.44" y2="23.73"/><rect class="cls-4" x="19.47" y="19.87" width="2.61" height="3.86"/><line class="cls-4" x1="20.77" y1="19.87" x2="20.77" y2="23.73"/><line class="cls-4" x1="19.47" y1="21.8" x2="22.08" y2="21.8"/><rect class="cls-1" x="7.93" y="12.52" width="2.61" height="3.71"/><line class="cls-4" x1="7.6" y1="16.38" x2="10.93" y2="16.38"/><rect class="cls-4" x="7.93" y="12.52" width="2.61" height="3.86"/><line class="cls-4" x1="9.23" y1="12.52" x2="9.23" y2="16.38"/><line class="cls-4" x1="7.93" y1="14.45" x2="10.54" y2="14.45"/><rect class="cls-1" x="13.79" y="12.52" width="2.61" height="3.71"/><line class="cls-4" x1="13.44" y1="16.38" x2="16.76" y2="16.38"/><rect class="cls-4" x="13.79" y="12.52" width="2.61" height="3.86"/><line class="cls-4" x1="15.1" y1="12.52" x2="15.1" y2="16.38"/><line class="cls-4" x1="13.79" y1="14.45" x2="16.4" y2="14.45"/><rect class="cls-1" x="19.47" y="12.52" width="2.61" height="3.71"/><line class="cls-4" x1="19.11" y1="16.38" x2="22.44" y2="16.38"/><rect class="cls-4" x="19.47" y="12.52" width="2.61" height="3.86"/><line class="cls-4" x1="20.77" y1="12.52" x2="20.77" y2="16.38"/><line class="cls-4" x1="19.47" y1="14.45" x2="22.08" y2="14.45"/><rect class="cls-1" x="7.93" y="5.17" width="2.61" height="3.71"/><line class="cls-4" x1="7.6" y1="9.03" x2="10.93" y2="9.03"/><rect class="cls-4" x="7.93" y="5.17" width="2.61" height="3.86"/><line class="cls-4" x1="9.23" y1="5.17" x2="9.23" y2="9.03"/><line class="cls-4" x1="7.93" y1="7.1" x2="10.54" y2="7.1"/><rect class="cls-1" x="13.79" y="5.17" width="2.61" height="3.71"/><line class="cls-4" x1="13.44" y1="9.03" x2="16.76" y2="9.03"/><rect class="cls-4" x="13.79" y="5.17" width="2.61" height="3.86"/><line class="cls-4" x1="15.1" y1="5.17" x2="15.1" y2="9.03"/><line class="cls-4" x1="13.79" y1="7.1" x2="16.4" y2="7.1"/><rect class="cls-1" x="19.47" y="5.17" width="2.61" height="3.71"/><line class="cls-4" x1="19.11" y1="9.03" x2="22.44" y2="9.03"/><rect class="cls-4" x="19.47" y="5.17" width="2.61" height="3.86"/><line class="cls-4" x1="20.77" y1="5.17" x2="20.77" y2="9.03"/><line class="cls-4" x1="19.47" y1="7.1" x2="22.08" y2="7.1"/><line class="cls-4" x1="14.24" y1="33.27" x2="17.57" y2="33.27"/><rect class="cls-4" x="14.6" y="29.4" width="2.61" height="3.86"/><line class="cls-4" x1="15.91" y1="29.4" x2="15.91" y2="33.27"/><line class="cls-4" x1="14.6" y1="31.34" x2="17.21" y2="31.34"/><rect class="cls-4" x="5.38" y="0.25" width="19.29" height="1.65"/><line class="cls-4" x1="0.96" y1="39.7" x2="29.08" y2="39.7"/></g></g></svg>