<svg xmlns="http://www.w3.org/2000/svg" viewBox="0 0 49.21 29.18"><defs><style>.cls-1{fill:#fff;}.cls-2,.cls-5{fill:#bbf9f6;}.cls-3{fill:#29b2b8;}.cls-4{fill:none;}.cls-4,.cls-5{stroke:#1c3157;stroke-linecap:round;stroke-linejoin:round;stroke-width:0.5px;}</style></defs><g id="Layer_2" data-name="Layer 2"><g id="Layer_2-2" data-name="Layer 2"><polygon class="cls-1" points="44.8 8.65 44.8 10.62 4.41 10.62 4.41 8.65 5.94 8.65 10.93 0.25 38.29 0.25 38.87 1.22 43.28 8.65 44.8 8.65"/><path class="cls-2" d="M38.87,1.22c-4.83-.05-26.55,0-26.55,0L8.59,8.65v2h-4l-.13-.15V8.65H5.94l5-8.4H38.29Z"/><circle class="cls-3" cx="4.8" cy="15.51" r="4.8"/><rect class="cls-3" x="4.39" y="17.95" width="0.78" height="10.82"/><circle class="cls-3" cx="44.41" cy="15.51" r="4.8"/><rect class="cls-3" x="43.99" y="17.95" width="0.78" height="10.82"/><rect class="cls-1" x="5.92" y="10.62" width="37.36" height="18.31"/><rect class="cls-2" x="5.78" y="10.62" width="2.24" height="18.31"/><polygon class="cls-2" points="43.43 26.19 43.3 28.93 5.94 28.93 6.07 26.19 43.43 26.19"/><rect class="cls-4" x="5.92" y="10.62" width="37.36" height="18.18"/><rect class="cls-3" x="22.07" y="14.68" width="5.25" height="5.75"/><rect class="cls-4" x="22.07" y="14.68" width="5.25" height="11.51"/><rect class="cls-4" x="20.68" y="26.19" width="7.85" height="2.61"/><rect class="cls-4" x="20.68" y="27.5" width="7.85" height="1.31"/><line class="cls-4" x1="24.7" y1="14.68" x2="24.7" y2="20.31"/><line class="cls-4" x1="22.17" y1="20.44" x2="27.19" y2="20.44"/><line class="cls-4" x1="22.17" y1="17.58" x2="27.19" y2="17.58"/><polyline class="cls-4" points="46.54 28.93 42.57 28.93 5.21 28.93 2.66 28.93"/><rect class="cls-3" x="8.59" y="15.8" width="4.68" height="6.64"/><line class="cls-4" x1="7.95" y1="22.73" x2="13.91" y2="22.73"/><rect class="cls-4" x="8.59" y="15.8" width="4.68" height="6.92"/><line class="cls-4" x1="10.93" y1="15.8" x2="10.93" y2="22.73"/><line class="cls-4" x1="8.59" y1="19.26" x2="13.27" y2="19.26"/><rect class="cls-3" x="13.23" y="15.8" width="4.68" height="6.64"/><line class="cls-4" x1="12.59" y1="22.73" x2="18.55" y2="22.73"/><rect class="cls-4" x="13.23" y="15.8" width="4.68" height="6.92"/><line class="cls-4" x1="15.57" y1="15.8" x2="15.57" y2="22.73"/><line class="cls-4" x1="13.23" y1="19.26" x2="17.91" y2="19.26"/><rect class="cls-3" x="31.3" y="15.8" width="4.68" height="6.64"/><line class="cls-4" x1="30.66" y1="22.73" x2="36.62" y2="22.73"/><rect class="cls-4" x="31.3" y="15.8" width="4.68" height="6.92"/><line class="cls-4" x1="33.64" y1="15.8" x2="33.64" y2="22.73"/><line class="cls-4" x1="31.3" y1="19.26" x2="35.98" y2="19.26"/><rect class="cls-3" x="35.94" y="15.8" width="4.68" height="6.64"/><line class="cls-4" x1="35.29" y1="22.73" x2="41.26" y2="22.73"/><rect class="cls-4" x="35.94" y="15.8" width="4.68" height="6.92"/><line class="cls-4" x1="38.28" y1="15.8" x2="38.28" y2="22.73"/><line class="cls-4" x1="35.94" y1="19.26" x2="40.61" y2="19.26"/><rect class="cls-4" x="4.41" y="8.65" width="40.39" height="1.97"/><polygon class="cls-4" points="43.28 8.65 5.94 8.65 10.93 0.25 38.29 0.25 43.28 8.65"/><rect class="cls-5" x="32.98" y="2.82" width="2.51" height="2.3"/><rect class="cls-4" x="31.99" y="1.25" width="4.64" height="1.57"/></g></g></svg>