<svg xmlns="http://www.w3.org/2000/svg" viewBox="0 0 40.51 42.77"><defs><style>.cls-1{fill:#fff;}.cls-2{fill:#bbf9f6;}.cls-3,.cls-4{fill:none;stroke-linecap:round;stroke-linejoin:round;}.cls-3{stroke:#29b2b8;}.cls-4{stroke:#1c3157;}</style></defs><g id="Layer_2" data-name="Layer 2"><g id="Layer_2-2" data-name="Layer 2"><polygon class="cls-1" points="40.01 11.6 35.58 11.6 35.58 42.27 4.93 42.27 4.93 11.6 0.5 11.6 20.27 0.5 24.16 2.68 25.51 3.44 40.01 11.6"/><polygon class="cls-2" points="25.51 3.44 10.77 11.6 10.09 12.05 10.09 42.27 4.93 42.27 4.93 11.6 0.5 11.6 20.27 0.5 24.16 2.68 25.51 3.44"/><rect class="cls-3" x="4.93" y="11.6" width="30.65" height="30.67"/><polygon class="cls-3" points="40.01 11.6 0.5 11.6 20.27 0.5 24.16 2.68 25.51 3.44 40.01 11.6"/><circle class="cls-4" cx="20.26" cy="26.93" r="10.18"/><polyline class="cls-3" points="13.48 27.34 17.81 31.66 26.93 22.55"/></g></g></svg>