<svg xmlns="http://www.w3.org/2000/svg" viewBox="0 0 92.65 75.6"><defs><style>.cls-1{fill:#29b2b8;}.cls-2,.cls-3{fill:none;}.cls-2{stroke:#bbf9f6;}.cls-2,.cls-3,.cls-8{stroke-linecap:round;stroke-linejoin:round;}.cls-3,.cls-6,.cls-8{stroke:#1c3157;}.cls-4{fill:#bbf9f6;}.cls-5,.cls-6,.cls-8{fill:#fff;}.cls-6{stroke-miterlimit:10;}.cls-7{fill:#1c3157;}</style></defs><g id="Layer_2" data-name="Layer 2"><g id="Layer_2-2" data-name="Layer 2"><path class="cls-1" d="M26,39.24A13,13,0,1,1,5.85,28.4a12.44,12.44,0,0,1,3.42-1.6,13,13,0,0,1,10.84,1.6,13.26,13.26,0,0,1,3.24,3,13.63,13.63,0,0,1,1.7,3,12.31,12.31,0,0,1,.63,2.09A13.47,13.47,0,0,1,26,39.24Z"/><path class="cls-1" d="M23,21.37a10,10,0,0,1-10,10,10.16,10.16,0,0,1-3.71-.71,8,8,0,0,1-1.21-.59,10,10,0,0,1,1.21-18A10.16,10.16,0,0,1,13,11.37,10,10,0,0,1,23,21.37Z"/><path class="cls-2" d="M5.55,21.38A7.44,7.44,0,0,1,13,14"/><path class="cls-2" d="M2.57,39.24A10.42,10.42,0,0,1,13,28.83"/><path class="cls-3" d="M19.36,39.86v.74a5.29,5.29,0,0,1-5.3,5.29H13v28.4"/><line class="cls-3" x1="12.98" y1="45.89" x2="12.98" y2="38.41"/><path class="cls-3" d="M7.31,42.85h0a5.29,5.29,0,0,0,5.3,5.29H13"/><polygon class="cls-4" points="18.29 36.53 89.51 36.53 53.9 0.5 18.29 36.53"/><polygon class="cls-4" points="76.5 23.37 70.14 16.95 70.14 9.87 76.5 9.87 76.5 23.37"/><polygon class="cls-5" points="84.8 36.53 79.68 36.53 79.68 75.1 28.1 75.1 28.1 36.53 22.99 36.53 25.05 34.44 53.9 5.26 84.8 36.53"/><rect class="cls-1" x="31.77" y="43.19" width="44.25" height="31.91"/><polyline class="cls-3" points="92.15 75.1 79.68 75.1 76.02 75.1 71.86 75.1 66.2 75.1 41.6 75.1 35.93 75.1 31.78 75.1 28.1 75.1 9.27 75.1 9.01 75.1"/><polygon class="cls-3" points="84.8 36.53 79.68 36.53 79.68 75.1 28.1 75.1 28.1 36.53 22.99 36.53 25.05 34.44 53.9 5.26 84.8 36.53"/><polyline class="cls-3" points="89.51 36.53 76.5 23.37 70.14 16.95 70.14 16.94 53.9 0.5 23.35 31.41 18.29 36.53"/><polyline class="cls-3" points="76.5 23.38 76.5 23.37 76.5 9.87 70.14 9.87 70.14 16.94 70.14 16.95"/><path class="cls-6" d="M42.92,62.89V73.8a1.31,1.31,0,0,1-1.32,1.3H35.93a1.31,1.31,0,0,1-1.32-1.3V62.89A1.26,1.26,0,0,1,35,62a1.3,1.3,0,0,1,1-.43H41.6a1.3,1.3,0,0,1,1,.43A1.26,1.26,0,0,1,42.92,62.89Z"/><path class="cls-6" d="M73.17,62.89V73.8a1.3,1.3,0,0,1-1.31,1.3H66.2a1.3,1.3,0,0,1-1.32-1.3V62.89a1.26,1.26,0,0,1,.35-.87,1.3,1.3,0,0,1,1-.43h5.66a1.29,1.29,0,0,1,1,.43A1.26,1.26,0,0,1,73.17,62.89Z"/><rect class="cls-6" x="66.97" y="54.12" width="5.34" height="2.71" rx="1.36"/><rect class="cls-6" x="35.49" y="54.12" width="5.34" height="2.71" rx="1.36"/><path class="cls-5" d="M37.94,57.62l3.71-7.23a7.17,7.17,0,0,1,6.4-3.91H59.74a7.16,7.16,0,0,1,5.58,2.64,6.56,6.56,0,0,1,.82,1.27l3.71,7.23Z"/><path class="cls-7" d="M59.75,47a6.69,6.69,0,0,1,5.18,2.46,6.23,6.23,0,0,1,.77,1.17L69,57.13H38.76l3.34-6.52A6.68,6.68,0,0,1,48.05,47h11.7m0-1H48.05a7.65,7.65,0,0,0-6.84,4.18l-3.34,6.51-.75,1.46H70.67l-.75-1.46-3.33-6.51a7.07,7.07,0,0,0-.89-1.36,7.65,7.65,0,0,0-6-2.82Z"/><path class="cls-4" d="M64.93,49.44H46.31L42,57.13H38.76l3.34-6.52A6.68,6.68,0,0,1,48.05,47h11.7A6.69,6.69,0,0,1,64.93,49.44Z"/><path class="cls-6" d="M42.92,56.43a3.69,3.69,0,1,1,7.38,0"/><path class="cls-5" d="M36.72,69.88a2.81,2.81,0,0,1-2.83-2.76V63.84a7.64,7.64,0,0,1,.24-1.94A7.83,7.83,0,0,1,35.52,59a8.21,8.21,0,0,1,6.55-3.28H65.72A8.1,8.1,0,0,1,72.27,59a7.8,7.8,0,0,1,1.39,3,7.45,7.45,0,0,1,.24,1.93v3.27a2.85,2.85,0,0,1-2.84,2.77Z"/><path class="cls-7" d="M65.72,56.17a7.66,7.66,0,0,1,6.15,3.08A7.46,7.46,0,0,1,73.18,62a7.37,7.37,0,0,1,.22,1.82v3.27a2.34,2.34,0,0,1-2.34,2.27H36.72a2.33,2.33,0,0,1-2.33-2.27V63.84A6.93,6.93,0,0,1,34.62,62a7.29,7.29,0,0,1,1.3-2.77,7.68,7.68,0,0,1,6.15-3.08H65.72m0-1H42.07a8.73,8.73,0,0,0-7,3.48,8.35,8.35,0,0,0-1.48,3.15,8.26,8.26,0,0,0-.25,2v3.27a3.32,3.32,0,0,0,3.33,3.27H71.06a3.35,3.35,0,0,0,3.34-3.25V63.84a8.15,8.15,0,0,0-.26-2.07,8.27,8.27,0,0,0-1.47-3.12,8.72,8.72,0,0,0-7-3.48Z"/><rect class="cls-4" x="34.39" y="64.16" width="39.01" height="2.95"/><rect class="cls-6" x="32.99" y="66.44" width="41.81" height="5.24" rx="1.82"/><path class="cls-5" d="M34,62.52l.14-.61a7.73,7.73,0,0,1,1.39-3l.15-.2h4.88A3.28,3.28,0,0,1,43.82,62v.5Z"/><path class="cls-7" d="M40.55,59.25A2.77,2.77,0,0,1,43.32,62h-8.7a7.29,7.29,0,0,1,1.3-2.77h4.63m0-1H35.42l-.3.4a8.35,8.35,0,0,0-1.48,3.15L33.36,63h11V62a3.77,3.77,0,0,0-3.77-3.77Z"/><path class="cls-5" d="M64,62.52V62a3.28,3.28,0,0,1,3.28-3.27h4.87l.15.2a7.73,7.73,0,0,1,1.39,3l.15.61Z"/><path class="cls-7" d="M71.87,59.25A7.46,7.46,0,0,1,73.18,62H64.47a2.77,2.77,0,0,1,2.78-2.77h4.62m.5-1H67.25A3.77,3.77,0,0,0,63.47,62v1h11l-.28-1.22a8.35,8.35,0,0,0-1.48-3.15l-.3-.4Z"/><path class="cls-8" d="M45.4,59.25h17a0,0,0,0,1,0,0v0A2.78,2.78,0,0,1,59.62,62H48.17a2.78,2.78,0,0,1-2.78-2.78v0a0,0,0,0,1,0,0Z"/><rect class="cls-8" x="46.86" y="67.67" width="14.08" height="2.79"/><circle class="cls-6" cx="37.2" cy="69.06" r="1.31"/><circle class="cls-6" cx="70.59" cy="69.06" r="1.31"/><rect class="cls-3" x="31.78" y="36.53" width="44.24" height="38.57"/><rect class="cls-3" x="31.77" y="36.54" width="44.25" height="6.65"/><line class="cls-3" x1="31.77" y1="39.86" x2="76.02" y2="39.86"/><rect class="cls-1" x="48.37" y="17.14" width="11.34" height="14.44"/><polygon class="cls-4" points="59.8 17.05 59.8 18.49 50.13 18.49 50.13 31.35 48.28 31.35 48.28 17.05 59.8 17.05"/><line class="cls-3" x1="46.86" y1="31.58" x2="60.94" y2="31.58"/><rect class="cls-3" x="48.37" y="17.14" width="11.04" height="14.44"/><line class="cls-3" x1="53.9" y1="17.14" x2="53.9" y2="31.58"/><line class="cls-3" x1="48.37" y1="24.36" x2="59.42" y2="24.36"/></g></g></svg>