<svg xmlns="http://www.w3.org/2000/svg" viewBox="0 0 88.21 67.97"><defs><style>.cls-1,.cls-6{fill:#fff;}.cls-2{fill:#1c3157;}.cls-3{fill:#bbf9f6;}.cls-4,.cls-5{fill:none;}.cls-4,.cls-5,.cls-6{stroke:#29b2b8;}.cls-4{stroke-miterlimit:10;}.cls-5,.cls-6{stroke-linecap:round;stroke-linejoin:round;}</style></defs><g id="Layer_2" data-name="Layer 2"><g id="Layer_2-2" data-name="Layer 2"><path class="cls-1" d="M80.18,3.89V65a2.5,2.5,0,0,1-2.5,2.5H10.46A2.5,2.5,0,0,1,8,65V3.89A3.39,3.39,0,0,1,11.36.5H76.78A3.4,3.4,0,0,1,80.18,3.89Z"/><rect class="cls-2" x="31.4" y="0.5" width="25.34" height="62.04"/><path class="cls-1" d="M49.4,25.82V28.4H45.62A.63.63,0,0,0,45,29v1.42H42.41V29a3.23,3.23,0,0,1,3.21-3.21Z"/><path class="cls-3" d="M49.4,25.82v.79H46a2.61,2.61,0,0,0-2.61,2.62v1.22h-1V29a3.23,3.23,0,0,1,3.21-3.21Z"/><path class="cls-1" d="M53.45,33.93V58.87a1.15,1.15,0,0,1,0,.19,2,2,0,0,1,0,.35c0,.11,0,.21-.07.31a3.35,3.35,0,0,1-.37.92l-.18.27a3.31,3.31,0,0,1-.87.84l-.28.17a3.43,3.43,0,0,1-1,.37,3.21,3.21,0,0,1-.63.06H38.21l-.41,0a.35.35,0,0,0-.14,0l-.1,0a2,2,0,0,1-.33-.08l-.31-.11a1.07,1.07,0,0,1-.22-.1.42.42,0,0,1-.13-.07,2.61,2.61,0,0,1-.28-.17,3.31,3.31,0,0,1-.87-.84c-.07-.09-.12-.18-.18-.27a2.8,2.8,0,0,1-.15-.3,2.52,2.52,0,0,1-.12-.29,3.18,3.18,0,0,1-.1-.33c0-.1,0-.2-.07-.31a2,2,0,0,1,0-.35,1.15,1.15,0,0,1,0-.19V33.93a1.28,1.28,0,0,1,0-.19,3.47,3.47,0,0,1,3-3.26,2.86,2.86,0,0,1,.42,0H50a3.47,3.47,0,0,1,3.47,3.29A1.28,1.28,0,0,1,53.45,33.93Z"/><path class="cls-3" d="M37.8,30.48V62.33a.35.35,0,0,0-.14,0l-.1,0a2,2,0,0,1-.33-.08l-.31-.11a1.07,1.07,0,0,1-.22-.1.42.42,0,0,1-.13-.07,2.61,2.61,0,0,1-.28-.17,3.31,3.31,0,0,1-.87-.84c-.07-.09-.12-.18-.18-.27a2.8,2.8,0,0,1-.15-.3,2.52,2.52,0,0,1-.12-.29,3.18,3.18,0,0,1-.1-.33c0-.1,0-.2-.07-.31a2,2,0,0,1,0-.35,1.15,1.15,0,0,1,0-.19V33.93a1.28,1.28,0,0,1,0-.19A3.47,3.47,0,0,1,37.8,30.48Z"/><rect class="cls-1" x="39.54" y="62.35" width="1.41" height="4.69"/><rect class="cls-1" x="47.25" y="62.35" width="1.52" height="4.69"/><path class="cls-3" d="M53.44,33.74H34.77a3.47,3.47,0,0,1,3.45-3.29H50A3.47,3.47,0,0,1,53.44,33.74Z"/><path class="cls-3" d="M53.44,59.06a2,2,0,0,1,0,.35c0,.11,0,.21-.07.31a3.35,3.35,0,0,1-.37.92l-.18.27a3.31,3.31,0,0,1-.87.84l-.28.17a3.43,3.43,0,0,1-1,.37,3.21,3.21,0,0,1-.63.06H38.21a3.31,3.31,0,0,1-.55-.05l-.1,0a2,2,0,0,1-.33-.08l-.31-.11a1.07,1.07,0,0,1-.22-.1.42.42,0,0,1-.13-.07,2.61,2.61,0,0,1-.28-.17,3.31,3.31,0,0,1-.87-.84c-.07-.09-.12-.18-.18-.27a2.8,2.8,0,0,1-.15-.3,2.52,2.52,0,0,1-.12-.29,3.18,3.18,0,0,1-.1-.33c0-.1,0-.2-.07-.31a2,2,0,0,1,0-.35Z"/><path class="cls-4" d="M53.45,33.93V58.87a1.15,1.15,0,0,1,0,.19,2,2,0,0,1,0,.35c0,.11,0,.21-.07.31a3.35,3.35,0,0,1-.37.92l-.18.27a3.31,3.31,0,0,1-.87.84l-.28.17a3.43,3.43,0,0,1-1,.37,3.21,3.21,0,0,1-.63.06H38.21a2.5,2.5,0,0,1-.55-.05l-.1,0a2,2,0,0,1-.33-.08l-.31-.11a1.07,1.07,0,0,1-.22-.1.42.42,0,0,1-.13-.07,2.61,2.61,0,0,1-.28-.17,3.31,3.31,0,0,1-.87-.84c-.07-.09-.12-.18-.18-.27a2.8,2.8,0,0,1-.15-.3,2.52,2.52,0,0,1-.12-.29,3.18,3.18,0,0,1-.1-.33c0-.1,0-.2-.07-.31a2,2,0,0,1,0-.35,1.15,1.15,0,0,1,0-.19V33.93a1.28,1.28,0,0,1,0-.19,3.47,3.47,0,0,1,3.45-3.29H50a3.47,3.47,0,0,1,3.47,3.29A1.28,1.28,0,0,1,53.45,33.93Z"/><path class="cls-4" d="M49.4,28.4H45.62A.63.63,0,0,0,45,29v1.42H42.41V29a3.23,3.23,0,0,1,3.21-3.21H49.4"/><polyline class="cls-4" points="40.96 67.03 40.96 62.35 39.53 62.35 39.53 67.03"/><polyline class="cls-4" points="48.68 67.03 48.68 62.35 47.25 62.35 47.25 67.03"/><path class="cls-2" d="M80.18,3.89V65a2.5,2.5,0,0,1-2.5,2.5H56.74V.5h20A3.4,3.4,0,0,1,80.18,3.89Z"/><path class="cls-3" d="M13,.5v67H10.46A2.5,2.5,0,0,1,8,65V3.89A3.39,3.39,0,0,1,11.36.5Z"/><path class="cls-2" d="M80.18,60.27V65a2.5,2.5,0,0,1-2.5,2.5H10.46A2.5,2.5,0,0,1,8,65V60.54a3.36,3.36,0,0,0,2.31,2c2.75.42,66.5,0,66.5,0A6.4,6.4,0,0,0,80.18,60.27Z"/><path class="cls-5" d="M80.18,3.89V59.15a3.4,3.4,0,0,1-3.4,3.39H11.36A3.4,3.4,0,0,1,8,59.15V3.89A3.39,3.39,0,0,1,11.36.5H76.78A3.4,3.4,0,0,1,80.18,3.89Z"/><path class="cls-5" d="M80.18,3.89V59.15a3.4,3.4,0,0,1-3.4,3.39H11.36A3.4,3.4,0,0,1,8,59.15V3.89A3.39,3.39,0,0,1,11.36.5H76.78A3.4,3.4,0,0,1,80.18,3.89Z"/><line class="cls-5" x1="31.4" y1="0.5" x2="31.4" y2="62.54"/><line class="cls-5" x1="56.74" y1="0.5" x2="56.74" y2="62.54"/><line class="cls-5" x1="27.34" y1="29.11" x2="27.34" y2="33.93"/><path class="cls-5" d="M80.18,59.15V65a2.5,2.5,0,0,1-2.5,2.5H10.46A2.5,2.5,0,0,1,8,65V59.15"/><line class="cls-5" x1="56.74" y1="14.9" x2="80.17" y2="14.9"/><line class="cls-5" x1="56.74" y1="30.34" x2="80.17" y2="30.34"/><line class="cls-5" x1="56.74" y1="45.79" x2="80.17" y2="45.79"/><path class="cls-6" d="M75.62,7.12h-9.8a1.63,1.63,0,1,0,0,3.25,1.62,1.62,0,1,0,0,3.24h9.8a3.25,3.25,0,1,0,0-6.49Z"/><line class="cls-6" x1="65.82" y1="10.37" x2="75.43" y2="10.37"/><path class="cls-6" d="M75.62,38.05h-9.8a1.63,1.63,0,1,0,0,3.25,1.62,1.62,0,1,0,0,3.24h9.8a3.25,3.25,0,1,0,0-6.49Z"/><line class="cls-6" x1="65.82" y1="41.3" x2="75.43" y2="41.3"/><path class="cls-6" d="M61.28,22.58h9.81a1.62,1.62,0,0,1,0,3.24,1.63,1.63,0,0,1,0,3.25H61.28a3.25,3.25,0,1,1,0-6.49Z"/><line class="cls-6" x1="71.09" y1="25.82" x2="61.47" y2="25.82"/><path class="cls-6" d="M61.26,51.37h9.81a1.62,1.62,0,1,1,0,3.24,1.63,1.63,0,0,1,0,3.25H61.26a3.25,3.25,0,1,1,0-6.49Z"/><line class="cls-6" x1="71.07" y1="54.61" x2="61.45" y2="54.61"/><line class="cls-6" x1="0.5" y1="67.47" x2="87.71" y2="67.47"/></g></g></svg>