<svg xmlns="http://www.w3.org/2000/svg" viewBox="0 0 58.03 64.51"><defs><style>.cls-1{fill:#fff;}.cls-2{fill:#bbf9f6;}.cls-3{fill:#1c3157;}.cls-4,.cls-6,.cls-7{fill:none;stroke-width:1.26px;}.cls-4,.cls-7{stroke:#29b2b8;}.cls-4,.cls-6{stroke-linecap:round;stroke-linejoin:round;}.cls-5{fill:#29b2b8;}.cls-6{stroke:#1c3157;}.cls-7{stroke-miterlimit:10;}</style></defs><g id="Layer_2" data-name="Layer 2"><g id="Layer_2-2" data-name="Layer 2"><path class="cls-1" d="M43.76.63H7.33A3.78,3.78,0,0,0,3.55,4.41h0V15A1.47,1.47,0,0,0,5,16.49H16.36A1.46,1.46,0,0,0,17.83,15V7.65L44.06,5a2.36,2.36,0,0,0,2.28-2.18A2.41,2.41,0,0,0,43.76.63Z"/><path class="cls-1" d="M20,52.75v9a1.49,1.49,0,0,1-1.48,1.5H3.3a1.5,1.5,0,0,1-1.5-1.5v-9a1.5,1.5,0,0,1,1.5-1.5H18.49A1.49,1.49,0,0,1,20,52.75Z"/><path class="cls-2" d="M20,52.75v1.87H11.34a2.56,2.56,0,0,0-2.56,2.55v6.08H3.3a1.5,1.5,0,0,1-1.5-1.5v-9a1.5,1.5,0,0,1,1.5-1.5H18.49A1.49,1.49,0,0,1,20,52.75Z"/><line class="cls-1" x1="0.63" y1="54.62" x2="21.15" y2="54.62"/><path class="cls-1" d="M51.23,23.74v3.32a3.42,3.42,0,0,1-3,3.38L18.24,33.65v17.6H3.55V23.16a2.86,2.86,0,0,1,.82-2,2.89,2.89,0,0,1,2-.82H47.83A3.41,3.41,0,0,1,51.23,23.74Z"/><path class="cls-2" d="M51.23,23.74V25H11.39a3.06,3.06,0,0,0-3.06,3.06V51.25H3.55V23.16a2.86,2.86,0,0,1,.82-2,2.89,2.89,0,0,1,2-.82H47.83A3.41,3.41,0,0,1,51.23,23.74Z"/><path class="cls-2" d="M46.27,2.33a1.84,1.84,0,0,1-.14,1.35H10.92a3.26,3.26,0,0,0-3.49,3v9.83H3.56V4.41C3.56,2.32,5.55.63,8,.63H43.6A2.67,2.67,0,0,1,46.27,2.33Z"/><path class="cls-3" d="M49.27,30.13v5.16A1.71,1.71,0,0,1,47.56,37H40.79a1.72,1.72,0,0,1-1.71-1.71V31.42l9.11-1A3.39,3.39,0,0,0,49.27,30.13Z"/><path class="cls-4" d="M20,52.75v9a1.49,1.49,0,0,1-1.48,1.5H3.3a1.5,1.5,0,0,1-1.5-1.5v-9a1.5,1.5,0,0,1,1.5-1.5H18.49A1.49,1.49,0,0,1,20,52.75Z"/><path class="cls-5" d="M16.38,17.64v1.57c0,.63-.38,1.14-.84,1.14H6.35c-.46,0-.84-.51-.84-1.14V17.64c0-.64.38-1.16.84-1.16h9.19C16,16.48,16.38,17,16.38,17.64Z"/><path class="cls-2" d="M9.79,16.48v3.87H6.35c-.46,0-.84-.51-.84-1.14V17.64c0-.64.38-1.16.84-1.16Z"/><rect class="cls-4" x="5.51" y="16.49" width="10.87" height="3.86" rx="0.98"/><line class="cls-6" x1="0.63" y1="54.62" x2="21.15" y2="54.62"/><path class="cls-4" d="M47.83,20.36H6.36a2.81,2.81,0,0,0-2.81,2.81h0V51.25H18.23V33.65l30-3.22a3.39,3.39,0,0,0,3-3.38v-3.3A3.39,3.39,0,0,0,47.83,20.36Z"/><path class="cls-7" d="M49.27,30.13v5.16A1.71,1.71,0,0,1,47.56,37H40.79a1.72,1.72,0,0,1-1.71-1.71V31.42l9.11-1A3.39,3.39,0,0,0,49.27,30.13Z"/><path class="cls-7" d="M43.76.63H7.33A3.78,3.78,0,0,0,3.55,4.41h0V15A1.47,1.47,0,0,0,5,16.49H16.36A1.46,1.46,0,0,0,17.83,15V7.65L44.06,5a2.36,2.36,0,0,0,2.28-2.18A2.41,2.41,0,0,0,43.76.63Z"/><path class="cls-2" d="M46,43.52a1.78,1.78,0,0,1-1.41,1.75,1.65,1.65,0,0,1-.38,0,1.8,1.8,0,0,1-1.8-1.8c0-1,1.8-3.77,1.8-3.77l.38.62A9.69,9.69,0,0,1,46,43.52Z"/><path class="cls-5" d="M44.18,39.75l.38.62A9.69,9.69,0,0,1,46,43.52a1.78,1.78,0,0,1-1.41,1.75,1.65,1.65,0,0,1-.38,0,1.8,1.8,0,0,1-1.8-1.8c0-1,1.8-3.77,1.8-3.77m0-1.26h0a1.25,1.25,0,0,0-1.05.58c-.75,1.15-2,3.26-2,4.45a3.07,3.07,0,0,0,3.06,3.06,3,3,0,0,0,.67-.08,3.07,3.07,0,0,0,2.38-3c0-.34,0-1.15-1.59-3.8-.24-.4-.41-.66-.41-.66a1.27,1.27,0,0,0-1-.57Z"/><path class="cls-3" d="M46,43.52a1.78,1.78,0,0,1-1.41,1.75,1.78,1.78,0,0,1-1.41-1.75,9.69,9.69,0,0,1,1.41-3.15A9.69,9.69,0,0,1,46,43.52Z"/><path class="cls-2" d="M49.57,49.37a1.79,1.79,0,0,1-1.41,1.75,1.27,1.27,0,0,1-.39.05A1.8,1.8,0,0,1,46,49.37c0-1,1.79-3.77,1.79-3.77l.39.63A9.65,9.65,0,0,1,49.57,49.37Z"/><path class="cls-5" d="M47.77,45.6l.39.63a9.65,9.65,0,0,1,1.41,3.14,1.79,1.79,0,0,1-1.41,1.75,1.27,1.27,0,0,1-.39.05A1.8,1.8,0,0,1,46,49.37c0-1,1.79-3.77,1.79-3.77m0-1.26h0a1.25,1.25,0,0,0-1.05.58c-.75,1.15-2,3.26-2,4.45a3.06,3.06,0,0,0,3.05,3.06,3,3,0,0,0,.68-.08,3.07,3.07,0,0,0,2.38-3c0-.34,0-1.14-1.59-3.79-.24-.4-.41-.66-.41-.66a1.26,1.26,0,0,0-1.06-.58Z"/><path class="cls-3" d="M49.57,49.37a1.79,1.79,0,0,1-1.41,1.75,1.78,1.78,0,0,1-1.41-1.75,9.65,9.65,0,0,1,1.41-3.14A9.65,9.65,0,0,1,49.57,49.37Z"/><path class="cls-2" d="M42.38,49.37A1.79,1.79,0,0,1,41,51.12a1.2,1.2,0,0,1-.38.05,1.81,1.81,0,0,1-1.8-1.8c0-1,1.8-3.77,1.8-3.77s.16.25.38.63A9.7,9.7,0,0,1,42.38,49.37Z"/><path class="cls-5" d="M40.58,45.6s.16.25.38.63a9.7,9.7,0,0,1,1.42,3.14A1.79,1.79,0,0,1,41,51.12a1.2,1.2,0,0,1-.38.05,1.81,1.81,0,0,1-1.8-1.8c0-1,1.8-3.77,1.8-3.77m0-1.26h0a1.26,1.26,0,0,0-1.06.58c-.75,1.15-2,3.26-2,4.45a3.06,3.06,0,0,0,3.06,3.06,2.86,2.86,0,0,0,.67-.08,3.07,3.07,0,0,0,2.39-3c0-.34,0-1.14-1.6-3.79-.23-.4-.4-.66-.4-.66a1.27,1.27,0,0,0-1.06-.58Z"/><path class="cls-3" d="M42.38,49.37A1.79,1.79,0,0,1,41,51.12a1.79,1.79,0,0,1-1.41-1.75A9.65,9.65,0,0,1,41,46.23,9.7,9.7,0,0,1,42.38,49.37Z"/><path class="cls-2" d="M53.17,55.27A1.79,1.79,0,0,1,51.75,57a1.58,1.58,0,0,1-.38,0,1.81,1.81,0,0,1-1.8-1.8c0-1,1.8-3.77,1.8-3.77s.16.25.38.62A9.74,9.74,0,0,1,53.17,55.27Z"/><path class="cls-5" d="M51.37,51.5s.16.25.38.62a9.74,9.74,0,0,1,1.42,3.15A1.79,1.79,0,0,1,51.75,57a1.58,1.58,0,0,1-.38,0,1.81,1.81,0,0,1-1.8-1.8c0-1,1.8-3.77,1.8-3.77m0-1.26h0a1.27,1.27,0,0,0-1.06.58c-.74,1.15-2,3.26-2,4.45a3.06,3.06,0,0,0,3.06,3.06,3,3,0,0,0,.68-.08,3.07,3.07,0,0,0,2.38-3c0-.34,0-1.15-1.6-3.8-.23-.39-.4-.66-.4-.66a1.27,1.27,0,0,0-1.06-.57Z"/><path class="cls-3" d="M53.17,55.27A1.79,1.79,0,0,1,51.75,57a1.78,1.78,0,0,1-1.4-1.75,9.86,9.86,0,0,1,1.4-3.15A9.74,9.74,0,0,1,53.17,55.27Z"/><path class="cls-2" d="M38.78,55.27A1.79,1.79,0,0,1,37.37,57a1.67,1.67,0,0,1-.39,0,1.8,1.8,0,0,1-1.79-1.8c0-1,1.79-3.77,1.79-3.77l.39.62A9.69,9.69,0,0,1,38.78,55.27Z"/><path class="cls-5" d="M37,51.5l.39.62a9.69,9.69,0,0,1,1.41,3.15A1.79,1.79,0,0,1,37.37,57a1.67,1.67,0,0,1-.39,0,1.8,1.8,0,0,1-1.79-1.8c0-1,1.79-3.77,1.79-3.77m0-1.26h0a1.25,1.25,0,0,0-1,.58c-.75,1.15-2,3.26-2,4.45A3.07,3.07,0,0,0,37,58.33a3,3,0,0,0,.68-.08,3.07,3.07,0,0,0,2.38-3c0-.34,0-1.15-1.59-3.8L38,50.81A1.27,1.27,0,0,0,37,50.24Z"/><path class="cls-3" d="M38.78,55.27A1.79,1.79,0,0,1,37.37,57,1.78,1.78,0,0,1,36,55.27a9.69,9.69,0,0,1,1.41-3.15A9.69,9.69,0,0,1,38.78,55.27Z"/><path class="cls-2" d="M46,55.27A1.79,1.79,0,0,1,44.56,57a1.65,1.65,0,0,1-.38,0,1.81,1.81,0,0,1-1.8-1.8c0-1,1.8-3.77,1.8-3.77s.16.25.38.62A9.74,9.74,0,0,1,46,55.27Z"/><path class="cls-5" d="M44.18,51.5s.16.25.38.62A9.74,9.74,0,0,1,46,55.27,1.79,1.79,0,0,1,44.56,57a1.65,1.65,0,0,1-.38,0,1.81,1.81,0,0,1-1.8-1.8c0-1,1.8-3.77,1.8-3.77m0-1.26h0a1.26,1.26,0,0,0-1.06.58c-.75,1.15-2,3.26-2,4.45a3.06,3.06,0,0,0,3.06,3.06,2.86,2.86,0,0,0,.67-.08,3.08,3.08,0,0,0,2.39-3c0-.34,0-1.15-1.6-3.8l-.41-.66a1.27,1.27,0,0,0-1-.57Z"/><path class="cls-3" d="M46,55.27A1.79,1.79,0,0,1,44.56,57a1.78,1.78,0,0,1-1.41-1.75,9.69,9.69,0,0,1,1.41-3.15A9.74,9.74,0,0,1,46,55.27Z"/><path class="cls-2" d="M35.19,61.45a1.81,1.81,0,0,1-1.42,1.76,1.58,1.58,0,0,1-.38,0,1.8,1.8,0,0,1-1.8-1.8c0-1,1.8-3.76,1.8-3.76s.16.24.38.62A9.79,9.79,0,0,1,35.19,61.45Z"/><path class="cls-5" d="M33.39,57.69s.16.24.38.62a9.79,9.79,0,0,1,1.42,3.14,1.81,1.81,0,0,1-1.42,1.76,1.64,1.64,0,0,1-.38,0,1.8,1.8,0,0,1-1.8-1.8c0-1,1.8-3.76,1.8-3.76m0-1.26h0a1.25,1.25,0,0,0-1.06.57c-.75,1.15-2,3.27-2,4.45a3.06,3.06,0,0,0,3.06,3.06,2.41,2.41,0,0,0,.67-.08,3.07,3.07,0,0,0,2.39-3c0-.34,0-1.14-1.6-3.79-.24-.4-.41-.66-.41-.66a1.25,1.25,0,0,0-1-.57Z"/><path class="cls-3" d="M35.19,61.45a1.81,1.81,0,0,1-1.42,1.76,1.8,1.8,0,0,1-1.41-1.76,9.74,9.74,0,0,1,1.41-3.14A9.79,9.79,0,0,1,35.19,61.45Z"/><path class="cls-2" d="M42.38,61.45A1.81,1.81,0,0,1,41,63.21a1.58,1.58,0,0,1-.38,0,1.8,1.8,0,0,1-1.8-1.8c0-1,1.8-3.76,1.8-3.76s.16.24.38.62A9.79,9.79,0,0,1,42.38,61.45Z"/><path class="cls-5" d="M40.58,57.69s.16.24.38.62a9.79,9.79,0,0,1,1.42,3.14A1.81,1.81,0,0,1,41,63.21a1.58,1.58,0,0,1-.38,0,1.8,1.8,0,0,1-1.8-1.8c0-1,1.8-3.76,1.8-3.76m0-1.26h0a1.25,1.25,0,0,0-1.06.57c-.75,1.15-2,3.27-2,4.45a3.06,3.06,0,0,0,3.06,3.06,2.41,2.41,0,0,0,.67-.08,3.06,3.06,0,0,0,2.39-3c0-.34,0-1.14-1.6-3.79-.23-.4-.4-.66-.4-.66a1.26,1.26,0,0,0-1.06-.57Z"/><path class="cls-3" d="M42.38,61.45A1.81,1.81,0,0,1,41,63.21a1.81,1.81,0,0,1-1.41-1.76A9.74,9.74,0,0,1,41,58.31,9.79,9.79,0,0,1,42.38,61.45Z"/><path class="cls-2" d="M49.57,61.45a1.81,1.81,0,0,1-1.41,1.76,1.67,1.67,0,0,1-.39,0A1.79,1.79,0,0,1,46,61.45c0-1,1.79-3.76,1.79-3.76s.16.24.39.62A9.74,9.74,0,0,1,49.57,61.45Z"/><path class="cls-5" d="M47.77,57.69s.16.24.39.62a9.74,9.74,0,0,1,1.41,3.14,1.81,1.81,0,0,1-1.41,1.76,1.67,1.67,0,0,1-.39,0A1.79,1.79,0,0,1,46,61.45c0-1,1.79-3.76,1.79-3.76m0-1.26h0a1.25,1.25,0,0,0-1.05.57c-.75,1.15-2,3.27-2,4.45a3.06,3.06,0,0,0,3.05,3.06,2.53,2.53,0,0,0,.68-.08,3.06,3.06,0,0,0,2.38-3c0-.34,0-1.14-1.59-3.79-.24-.4-.41-.66-.41-.66a1.25,1.25,0,0,0-1.06-.57Z"/><path class="cls-3" d="M49.57,61.45a1.81,1.81,0,0,1-1.41,1.76,1.8,1.8,0,0,1-1.41-1.76,9.74,9.74,0,0,1,1.41-3.14A9.74,9.74,0,0,1,49.57,61.45Z"/><path class="cls-2" d="M56.76,61.17a1.78,1.78,0,0,1-1.41,1.75A1.64,1.64,0,0,1,55,63a1.8,1.8,0,0,1-1.8-1.79c0-1,1.8-3.77,1.8-3.77s.16.24.38.62A9.69,9.69,0,0,1,56.76,61.17Z"/><path class="cls-5" d="M55,57.4s.16.24.38.62a9.69,9.69,0,0,1,1.41,3.15,1.78,1.78,0,0,1-1.41,1.75A1.64,1.64,0,0,1,55,63a1.8,1.8,0,0,1-1.8-1.79c0-1,1.8-3.77,1.8-3.77m0-1.26h0a1.25,1.25,0,0,0-1.06.57c-.75,1.16-2,3.27-2,4.46a3.06,3.06,0,0,0,3.06,3,2.41,2.41,0,0,0,.67-.08,3.06,3.06,0,0,0,2.39-3c0-.35,0-1.15-1.6-3.8-.24-.4-.41-.66-.41-.66A1.25,1.25,0,0,0,55,56.14Z"/><path class="cls-3" d="M56.76,61.17a1.78,1.78,0,0,1-1.41,1.75,1.78,1.78,0,0,1-1.41-1.75A9.69,9.69,0,0,1,55.35,58,9.69,9.69,0,0,1,56.76,61.17Z"/></g></g></svg>