<svg xmlns="http://www.w3.org/2000/svg" viewBox="0 0 51.85 64.82"><defs><style>.cls-1{fill:#fff;}.cls-2{fill:#bbf9f6;}.cls-3{fill:#1c3157;}.cls-4,.cls-6,.cls-7{fill:none;stroke-width:1.26px;}.cls-4,.cls-7{stroke:#29b2b8;}.cls-4,.cls-6{stroke-linecap:round;stroke-linejoin:round;}.cls-5{fill:#29b2b8;}.cls-6{stroke:#1c3157;}.cls-7{stroke-miterlimit:10;}</style></defs><g id="Layer_2" data-name="Layer 2"><g id="Layer_2-2" data-name="Layer 2"><path class="cls-1" d="M43.76.63H7.33A3.78,3.78,0,0,0,3.55,4.41h0V15A1.47,1.47,0,0,0,5,16.49H16.36A1.46,1.46,0,0,0,17.83,15V7.65L44.06,5a2.36,2.36,0,0,0,2.28-2.18A2.41,2.41,0,0,0,43.76.63Z"/><path class="cls-1" d="M20,52.75v9a1.49,1.49,0,0,1-1.48,1.5H3.3a1.5,1.5,0,0,1-1.5-1.5v-9a1.5,1.5,0,0,1,1.5-1.5H18.49A1.49,1.49,0,0,1,20,52.75Z"/><path class="cls-2" d="M20,52.75v1.87H11.34a2.56,2.56,0,0,0-2.56,2.55v6.08H3.3a1.5,1.5,0,0,1-1.5-1.5v-9a1.5,1.5,0,0,1,1.5-1.5H18.49A1.49,1.49,0,0,1,20,52.75Z"/><line class="cls-1" x1="0.63" y1="54.62" x2="21.15" y2="54.62"/><path class="cls-1" d="M51.23,23.74v3.32a3.42,3.42,0,0,1-3,3.38L18.24,33.65v17.6H3.55V23.16a2.86,2.86,0,0,1,.82-2,2.89,2.89,0,0,1,2-.82H47.83A3.41,3.41,0,0,1,51.23,23.74Z"/><path class="cls-2" d="M51.23,23.74V25H11.39a3.06,3.06,0,0,0-3.06,3.06V51.25H3.55V23.16a2.86,2.86,0,0,1,.82-2,2.89,2.89,0,0,1,2-.82H47.83A3.41,3.41,0,0,1,51.23,23.74Z"/><path class="cls-2" d="M46.27,2.33a1.84,1.84,0,0,1-.14,1.35H10.92a3.26,3.26,0,0,0-3.49,3v9.83H3.56V4.41C3.56,2.32,5.55.63,8,.63H43.6A2.67,2.67,0,0,1,46.27,2.33Z"/><path class="cls-3" d="M49.27,30.13v5.16A1.71,1.71,0,0,1,47.56,37H40.79a1.72,1.72,0,0,1-1.71-1.71V31.42l9.11-1A3.39,3.39,0,0,0,49.27,30.13Z"/><path class="cls-4" d="M20,52.75v9a1.49,1.49,0,0,1-1.48,1.5H3.3a1.5,1.5,0,0,1-1.5-1.5v-9a1.5,1.5,0,0,1,1.5-1.5H18.49A1.49,1.49,0,0,1,20,52.75Z"/><path class="cls-5" d="M16.38,17.64v1.57c0,.63-.38,1.14-.84,1.14H6.35c-.46,0-.84-.51-.84-1.14V17.64c0-.64.38-1.16.84-1.16h9.19C16,16.48,16.38,17,16.38,17.64Z"/><path class="cls-2" d="M9.79,16.48v3.87H6.35c-.46,0-.84-.51-.84-1.14V17.64c0-.64.38-1.16.84-1.16Z"/><rect class="cls-4" x="5.51" y="16.49" width="10.87" height="3.86" rx="0.98"/><line class="cls-6" x1="0.63" y1="54.62" x2="21.15" y2="54.62"/><path class="cls-4" d="M47.83,20.36H6.36a2.81,2.81,0,0,0-2.81,2.81h0V51.25H18.23V33.65l30-3.22a3.39,3.39,0,0,0,3-3.38v-3.3A3.39,3.39,0,0,0,47.83,20.36Z"/><path class="cls-7" d="M49.27,30.13v5.16A1.71,1.71,0,0,1,47.56,37H40.79a1.72,1.72,0,0,1-1.71-1.71V31.42l9.11-1A3.39,3.39,0,0,0,49.27,30.13Z"/><path class="cls-7" d="M43.76.63H7.33A3.78,3.78,0,0,0,3.55,4.41h0V15A1.47,1.47,0,0,0,5,16.49H16.36A1.46,1.46,0,0,0,17.83,15V7.65L44.06,5a2.36,2.36,0,0,0,2.28-2.18A2.41,2.41,0,0,0,43.76.63Z"/><path class="cls-2" d="M47.28,47.3a3.08,3.08,0,0,1-2.44,3,2.44,2.44,0,0,1-.66.08,3.1,3.1,0,0,1-3.1-3.1c0-1.71,3.1-6.5,3.1-6.5s.27.42.66,1.07C45.75,43.39,47.28,46.11,47.28,47.3Z"/><path class="cls-5" d="M44.18,40.8s.27.42.66,1.07c.91,1.52,2.44,4.24,2.44,5.43a3.08,3.08,0,0,1-2.44,3,2.48,2.48,0,0,1-.66.08,3.1,3.1,0,0,1-3.1-3.1c0-1.71,3.1-6.5,3.1-6.5m0-1.26h0a1.26,1.26,0,0,0-1.06.58c-.78,1.19-3.31,5.25-3.31,7.18a4.37,4.37,0,0,0,4.37,4.36,3.64,3.64,0,0,0,1-.11,4.37,4.37,0,0,0,3.41-4.25c0-.42,0-1.72-2.62-6.07-.4-.68-.69-1.11-.69-1.11a1.25,1.25,0,0,0-1-.58Z"/><path class="cls-3" d="M47.28,47.3a3.08,3.08,0,0,1-2.44,3,3.07,3.07,0,0,1-2.43-3c0-1.19,1.52-3.91,2.43-5.43C45.75,43.39,47.28,46.11,47.28,47.3Z"/><path class="cls-2" d="M47.28,60.46a3.1,3.1,0,0,1-2.44,3,2.44,2.44,0,0,1-.66.08,3.1,3.1,0,0,1-3.1-3.1c0-1.71,3.1-6.5,3.1-6.5s.27.42.66,1.07C45.75,56.55,47.28,59.26,47.28,60.46Z"/><path class="cls-5" d="M44.18,54s.27.42.66,1.07c.91,1.52,2.44,4.23,2.44,5.43a3.1,3.1,0,0,1-2.44,3,2.48,2.48,0,0,1-.66.08,3.1,3.1,0,0,1-3.1-3.1c0-1.71,3.1-6.5,3.1-6.5m0-1.26h0a1.25,1.25,0,0,0-1.06.57c-.78,1.2-3.31,5.25-3.31,7.19a4.37,4.37,0,0,0,4.37,4.36,4.12,4.12,0,0,0,1-.11,4.37,4.37,0,0,0,3.41-4.25c0-.43,0-1.72-2.62-6.08-.4-.67-.69-1.11-.69-1.11a1.25,1.25,0,0,0-1-.57Z"/><path class="cls-3" d="M47.28,60.46a3.1,3.1,0,0,1-2.44,3,3.09,3.09,0,0,1-2.43-3c0-1.2,1.52-3.91,2.43-5.43C45.75,56.55,47.28,59.26,47.28,60.46Z"/></g></g></svg>